<svg width="226" height="30" viewBox="0 0 226 30" fill="none" xmlns="http://www.w3.org/2000/svg">
<title>Burberry</title>
<g clip-path="url(#clip0)">
<path fill-rule="evenodd" clip-rule="evenodd" d="M168.571 28.9659L161.554 16.8266C163.077 16.1078 164.363 14.9791 165.264 13.5708C166.164 12.1625 166.643 10.5319 166.644 8.867C166.644 3.98236 162.613 0.00842948 157.659 0.00842948H142.653V28.9649H149.326V17.7256H154.638L161.135 28.9659H168.571V28.9659ZM149.216 12.1359V5.612H156.409L156.381 5.62272C158.57 5.73843 159.966 6.98986 159.966 8.87986C159.966 10.7495 158.472 12.0588 156.243 12.137H149.216V12.1359ZM115.398 28.9659V0.00842948H137.338V5.53379H122.252V11.327H135.479V16.9756H122.252V23.1524H138.085V28.9659H115.398ZM84.1045 28.9659L77.0876 16.8266C78.6104 16.1077 79.8962 14.979 80.7966 13.5707C81.6971 12.1624 82.1756 10.5319 82.177 8.867C82.177 3.98236 78.147 0.00842948 73.1935 0.00842948H58.1851V28.9649H64.8597V17.7256H70.1729L76.6682 28.9659H84.1045V28.9659ZM64.7489 12.1359V5.612H71.9429L71.9146 5.62272C74.104 5.73843 75.5002 6.98986 75.5002 8.87986C75.5002 10.7495 74.0051 12.0588 71.7766 12.137H64.7489V12.1359ZM40.4007 29.6795C48.4302 29.6795 53.2251 25.127 53.2251 17.5027V0.0287866H46.3712V17.0506C46.3712 21.1734 44.1948 23.537 40.4007 23.537H40.3974C36.6032 23.537 34.428 21.1734 34.428 17.0506V0.0287866H27.5719V17.5038C27.5719 25.127 32.3668 29.6795 40.3974 29.6795H40.4007V29.6795ZM18.6079 12.9277C22.5629 14.2574 24.4905 17.5756 24.4905 20.7749C24.4905 25.2824 20.7789 28.9509 16.2121 28.9659H0.000976562V0.00628662H14.9322C16.7998 0.0234999 18.585 0.766587 19.9003 2.07416C21.2155 3.38173 21.9545 5.14818 21.9567 6.98986C21.9591 8.17907 21.6527 9.34908 21.0665 10.3883C20.4802 11.4276 19.6338 12.3015 18.6079 12.9266V12.9277ZM6.72882 23.5627H14.2216C16.5772 23.5627 17.8093 21.8302 17.8093 20.1181C17.8093 18.7391 16.6967 16.7966 14.2216 16.7966H6.72882V23.5627ZM12.2158 11.3945C13.9413 11.3945 15.2951 10.0799 15.2951 8.402C15.2951 6.77986 13.8826 5.4095 12.2148 5.4095H6.72882V11.3945H12.2158Z" fill="#2017CC"/>
<path fill-rule="evenodd" clip-rule="evenodd" d="M105.835 12.9225C109.79 14.2511 111.718 17.5704 111.718 20.7696C111.718 25.2771 108.006 28.9446 103.439 28.9607L87.2283 28.9596V0.00107145L102.157 0C104.025 0.0174938 105.811 0.760931 107.126 2.06887C108.442 3.37681 109.181 5.14365 109.183 6.98571C109.185 8.17474 108.879 9.34453 108.292 10.3836C107.706 11.4227 106.86 12.2964 105.834 12.9214L105.835 12.9225ZM93.9561 23.5575H101.449C103.805 23.5575 105.037 21.825 105.037 20.1129C105.037 18.7339 103.923 16.7914 101.449 16.7914H93.9561V23.5575ZM99.441 11.3893C101.169 11.3893 102.522 10.0746 102.522 8.39679C102.522 6.77464 101.11 5.40429 99.441 5.40429H93.9561V11.3893H99.441Z" fill="#2017CC"/>
<path fill-rule="evenodd" clip-rule="evenodd" d="M197.613 28.9661L190.596 16.8268C192.119 16.1079 193.405 14.9792 194.305 13.5709C195.206 12.1626 195.684 10.532 195.685 8.86718C195.685 3.98253 191.655 0.00860596 186.702 0.00860596H171.695V28.965H178.369V17.7257H183.682L190.178 28.9661H197.614H197.613ZM178.257 12.1361V5.61218H185.451L185.423 5.62289C187.612 5.73861 189.009 6.99003 189.009 8.88003C189.009 10.7497 187.514 12.059 185.285 12.1372H178.257V12.1361ZM207.365 28.9661V17.1665L195.715 0.00860596H204.273L210.98 9.96432L217.714 0.00860596H226.273L214.594 17.1665V28.9661H207.365Z" fill="#2017CC"/>
</g>
<defs>
<clipPath id="clip0">
<rect width="226" height="30" fill="white"/>
</clipPath>
</defs>
</svg>
