<svg width="150" height="40" viewBox="0 0 150 40" fill="none" xmlns="http://www.w3.org/2000/svg">
<title>Deliveroo</title>
<path fill-rule="evenodd" clip-rule="evenodd" d="M54.7735 29.848H58.192L57.626 27.218V11.541H54.356V18.6925C53.371 17.5625 52.0185 16.899 50.421 16.899C47.1495 16.899 44.617 19.577 44.617 23.509C44.617 27.441 47.1495 30.119 50.4205 30.119C52.0445 30.119 53.4455 29.4315 54.4305 28.2515L54.774 29.849L54.7735 29.848ZM119.424 20.413C120.088 20.413 120.702 20.583 121.268 20.9765L122.818 17.5125C122.103 17.069 121.268 16.8735 120.456 16.8735C118.981 16.8735 117.751 17.535 116.965 18.7655L116.62 17.167H113.251L113.792 19.649V29.8465H117.061V21.7625C117.504 20.9265 118.34 20.4115 119.423 20.4115V20.4125H119.424L119.424 20.413ZM129.014 26.703C127.122 26.703 125.718 25.4495 125.718 23.508C125.718 21.542 127.122 20.314 129.014 20.314C130.933 20.314 132.31 21.542 132.31 23.5075C132.31 25.4495 130.933 26.7025 129.015 26.7025H129.014L129.014 26.703ZM47.7885 23.508C47.7885 21.542 49.19 20.314 51.0835 20.314C53.0025 20.314 54.3785 21.542 54.3785 23.5075C54.3785 25.4495 53.0025 26.7025 51.0845 26.7025C49.191 26.7025 47.7885 25.4495 47.7885 23.5075V23.508ZM143.499 26.703C141.606 26.703 140.204 25.4495 140.204 23.508C140.204 21.542 141.606 20.314 143.499 20.314C145.417 20.314 146.794 21.542 146.794 23.5075C146.794 25.4495 145.417 26.7025 143.499 26.7025V26.703ZM66.135 20.1165C67.832 20.1165 68.939 20.9025 69.283 22.3525H62.988C63.357 20.9025 64.463 20.1165 66.135 20.1165ZM105.26 20.1165C106.957 20.1165 108.064 20.9025 108.408 22.3525H102.113C102.482 20.9025 103.588 20.1165 105.26 20.1165ZM89.3 29.848H94.5625L97.9815 17.168H94.4155L91.9085 27.44L89.4 17.168H85.882L89.301 29.848H89.3V29.848ZM80.865 29.848H84.134V17.168H80.865V29.848ZM66.635 30.083C68.4565 30.083 70.251 29.591 71.751 28.633L70.4975 25.832C69.3165 26.446 68.0135 26.815 66.6855 26.815C64.9655 26.815 63.7605 26.1515 63.243 24.9225H72.4395C72.538 24.456 72.588 23.989 72.588 23.4235C72.588 19.492 69.858 16.8625 66.194 16.8625C62.506 16.8625 59.801 19.5165 59.801 23.4725C59.801 27.5025 62.481 30.0825 66.6375 30.0825H66.6365L66.635 30.083ZM149.967 23.508C149.967 19.576 147.212 16.898 143.499 16.898C139.784 16.898 137.031 19.576 137.031 23.508C137.031 27.44 139.785 30.118 143.499 30.118C147.212 30.118 149.966 27.44 149.966 23.508H149.967ZM105.702 30.118C107.521 30.118 109.317 29.6265 110.818 28.668L109.563 25.8655C108.382 26.4805 107.079 26.8485 105.751 26.8485C104.031 26.8485 102.826 26.186 102.309 24.9565H111.506C111.604 24.4895 111.653 24.023 111.653 23.458C111.653 19.526 108.923 16.897 105.259 16.897C101.571 16.897 98.866 19.55 98.866 23.507C98.866 27.537 101.547 30.117 105.703 30.117V30.1185L105.702 30.118ZM129.014 30.118C132.728 30.118 135.481 27.44 135.481 23.508C135.481 19.576 132.728 16.898 129.014 16.898C125.3 16.898 122.546 19.576 122.546 23.508C122.546 27.44 125.3 30.118 129.013 30.118H129.014H129.014ZM74.6675 29.848H77.9375V11.54H74.6675V29.8475V29.848ZM82.5115 15.422C83.6665 15.422 84.5525 14.537 84.5525 13.357C84.5525 12.178 83.6675 11.2935 82.5125 11.2935C81.3315 11.2935 80.446 12.1785 80.446 13.3575C80.446 14.5375 81.332 15.4215 82.5125 15.4215H82.5115V15.422ZM26.325 0L24.453 17.571L21.258 2.757L11.245 4.857L14.437 19.6695L0 22.695L2.55 34.527L27.9385 39.847L33.745 26.99L36.509 1.0565L26.325 0ZM18.3035 25.49C17.7795 25.963 17.087 25.92 16.3535 25.6785C15.62 25.4385 15.2945 24.5635 15.5715 23.507C15.7785 22.722 16.753 22.6045 17.24 22.597C17.425 22.5935 17.607 22.63 17.775 22.705C18.12 22.859 18.703 23.187 18.8215 23.6875C18.9915 24.4095 18.8275 25.016 18.304 25.4885H18.303V25.4895L18.3035 25.49ZM25.6535 26.305C25.2735 26.957 24.2745 27.043 23.2925 26.569C22.6305 26.249 22.6355 25.435 22.7075 24.939C22.7465 24.6675 22.8565 24.413 23.0285 24.198C23.265 23.903 23.6595 23.518 24.116 23.5055C24.858 23.4855 25.496 23.814 25.857 24.4075C26.219 24.9995 26.038 25.6525 25.657 26.305H25.6545H25.6535Z" fill="#2017CC"/>
</svg>
