<svg width="98" height="98" viewBox="0 0 98 98" fill="none" xmlns="http://www.w3.org/2000/svg">
<path d="M61.7444 0C61.9431 0.0907116 62.1551 0.27962 62.338 0.254406C62.9585 0.169013 63.3208 0.537375 63.6506 0.938338C64.3147 1.74578 64.5845 2.72499 64.7269 3.7374C64.7958 4.2271 64.522 4.49845 64.0307 4.42477C63.6708 4.3708 63.2708 4.2858 62.9864 4.07897C61.9698 3.33949 61.2813 2.34442 60.9313 1.12212C60.7921 0.636951 60.8956 0.254111 61.3524 0C61.483 0 61.6137 0 61.7444 0Z" fill="#2017CC"/>
<path d="M43.3191 98.0001C42.6751 96.6214 42.2415 95.1829 42.2444 93.6509C42.2452 93.2476 42.4069 92.8239 42.5812 92.4504C42.6751 92.2492 42.9451 92.0312 43.1495 92.0166C43.2893 92.0066 43.5349 92.312 43.5909 92.5158C43.7811 93.2073 43.9879 93.9104 44.0408 94.6202C44.1244 95.7422 44.0885 96.873 44.1032 98.0001C43.8418 98.0001 43.5804 98.0001 43.3191 98.0001Z" fill="#2017CC"/>
<path d="M0 95.1437C0.18326 94.7302 0.303506 94.2689 0.567616 93.9164C0.826434 93.5709 1.20932 93.2985 1.58535 93.0747C1.70491 93.0035 2.06163 93.1344 2.15541 93.2761C2.24939 93.4183 2.23215 93.7557 2.12199 93.8918C1.69138 94.4242 1.21461 94.9205 0.734216 95.4096C0.538216 95.6092 0.290864 95.7657 0 95.5377C0 95.4064 0 95.275 0 95.1437Z" fill="#2017CC"/>
<path d="M97.517 11.6672C97.5295 13.797 96.8635 15.752 95.7953 17.5393C94.7557 19.2788 93.5699 20.9317 92.4093 22.5952C92.1012 23.0369 92.0883 23.3494 92.4138 23.7699C92.8029 24.2726 93.1328 24.8229 93.4727 25.3626C94.0554 26.288 94.6588 27.2026 95.1932 28.1558C95.8264 29.2853 96.0723 30.5255 95.909 31.8123C95.5839 34.3739 93.937 35.8757 91.3842 36.1965C90.0724 36.3614 88.8171 36.1747 87.5425 36.0031C87.4293 35.9878 87.3165 35.9675 87.2028 35.9587C86.0065 35.8667 85.8853 35.9547 85.4338 37.0572C84.7137 38.8159 83.8381 40.4786 82.3455 41.7182C80.3202 43.4004 78.0014 43.4308 75.948 41.7829C74.5207 40.6375 73.4621 39.1909 72.7148 37.5204C72.358 36.7228 71.8858 36.5029 70.9725 36.7394C69.1953 37.1997 67.3933 37.4895 65.5514 37.4213C64.0765 37.3667 62.649 37.0652 61.434 36.1876C59.6654 34.9102 59.0402 33.0962 59.2464 30.968C59.4798 28.5589 60.5118 26.4438 61.7111 24.3972C61.9676 23.9595 62.2419 23.5314 62.5256 23.1108C62.8284 22.6622 62.8384 22.2053 62.5304 21.7821C62.2334 21.3738 61.8728 21.0127 61.5461 20.6256C60.2273 19.0628 59.0943 17.3929 58.5736 15.3739C58.3249 14.4092 58.2263 13.4337 58.4536 12.4526C58.9376 10.3636 60.3948 9.35026 62.3717 8.96338C64.348 8.5767 66.3089 8.85435 68.2557 9.21464C69.8237 9.50479 69.5372 9.54193 70.0278 8.20351C70.7583 6.21052 71.5918 4.26982 73.0118 2.65573C73.9946 1.53862 75.164 0.770383 76.7355 0.994158C77.7409 1.13727 78.6189 1.62392 79.445 2.19311C80.8283 3.14612 81.8809 4.41411 82.7934 5.81005C82.9457 6.04308 83.1014 6.27493 83.2357 6.5184C83.4348 6.87938 83.7027 6.93907 84.0971 6.84865C85.7648 6.4662 87.4318 6.07174 89.1145 5.76799C90.3711 5.54116 91.6492 5.55121 92.9166 5.78808C95.7791 6.3229 97.4007 8.19997 97.516 11.1257C97.5232 11.3059 97.517 11.4867 97.517 11.6672ZM85.0333 24.1799C85.0159 24.1782 84.9984 24.1765 84.981 24.1749C84.9118 22.9818 84.8566 21.7877 84.7686 20.596C84.7074 19.7669 84.5902 18.9138 83.8224 18.4233C81.4558 16.9112 79.0673 15.4338 76.6838 13.9486C76.0388 13.5466 75.3608 13.5781 74.7301 13.9475C74.212 14.2508 73.7312 14.6245 73.2586 14.9986C72.6052 15.5158 72.0174 16.1286 71.3236 16.579C70.5696 17.0685 70.2303 17.7341 70.1799 18.5737C70.1467 19.1273 70.2109 19.6866 70.2279 20.2434C70.2539 21.0931 70.3374 21.9464 70.2894 22.7919C70.1646 24.986 70.9008 26.7114 72.8363 27.8394C73.2171 28.0613 73.6019 28.277 73.991 28.484C75.2443 29.1506 76.5037 29.8055 77.7541 30.4774C78.5309 30.8949 79.3302 30.9422 80.1029 30.548C80.7386 30.2238 81.3377 29.8184 81.9241 29.4074C82.6196 28.9198 83.2525 28.3359 83.9726 27.892C84.4992 27.5673 84.8106 27.1448 84.8796 26.5761C84.9757 25.7827 84.9861 24.979 85.0333 24.1799ZM91.2616 7.50806C88.9822 7.57375 87.091 8.03804 85.2335 8.69696C84.8013 8.85031 84.6592 9.10787 84.7265 9.49632C84.8294 10.091 84.9238 10.6982 85.1263 11.2624C85.7079 12.8834 86.2281 14.5116 86.4682 16.2293C86.6759 17.7141 87.3957 18.9418 88.5641 19.8946C89.1345 20.3596 89.7036 20.8276 90.2502 21.3201C90.6139 21.6478 90.8945 21.6146 91.1907 21.2428C91.8739 20.3852 92.6031 19.5624 93.2515 18.6794C94.5498 16.9112 95.5823 15.0097 96.0061 12.8176C96.4974 10.2756 95.2713 8.25177 92.8545 7.71597C92.2371 7.57907 91.596 7.54982 91.2616 7.50806ZM60.532 31.3838C60.4893 33.2525 61.3684 34.5621 63.1332 35.16C63.7148 35.357 64.3417 35.5515 64.9417 35.5339C66.3697 35.4919 67.7962 35.3441 69.2185 35.1933C69.7143 35.1407 70.2111 34.9943 70.6799 34.8174C71.1577 34.6369 71.2244 34.3636 71.0754 33.8743C70.8847 33.2486 70.7127 32.6167 70.5498 31.9831C70.3459 31.1902 70.1887 30.3841 69.9579 29.5996C69.7049 28.7401 69.2888 27.96 68.5956 27.3643C67.8035 26.6838 67.0089 26.0059 66.2069 25.3373C65.7056 24.9194 65.1996 24.5053 64.6746 24.1184C64.3228 23.8592 63.9857 23.8787 63.7165 24.2867C63.0775 25.2556 62.3665 26.1821 61.7944 27.1888C61.0615 28.4781 60.5692 29.8691 60.532 31.3838ZM63.8703 9.99785C63.0813 10.1629 62.1717 10.2748 61.3147 10.5517C60.1664 10.9226 59.1634 12.3916 59.6899 13.959C60.3502 15.9247 61.3251 17.7108 62.6633 19.2845C63.0271 19.7123 63.4961 20.0618 63.9609 20.3829C64.0968 20.4768 64.4626 20.4308 64.5902 20.3086C65.4649 19.4719 66.3087 18.6024 67.1536 17.7347C68.0318 16.8327 68.6272 15.7702 68.8268 14.5174C68.9685 13.6288 69.0457 12.7298 69.16 11.8367C69.2611 11.048 69.1292 10.7965 68.3586 10.6669C66.913 10.4235 65.4589 10.2315 63.8703 9.99785ZM78.5523 41.4605C80.0486 41.3471 81.195 40.664 81.9101 39.4442C82.5912 38.2826 83.0769 37.0047 83.6374 35.7726C83.7898 35.4376 83.5906 35.2452 83.2997 35.1304C82.3907 34.7715 81.4837 34.4069 80.5687 34.0639C79.4202 33.6333 78.3011 33.731 77.2055 34.2762C76.2858 34.7339 75.3584 35.1765 74.4273 35.61C73.6373 35.978 73.5514 36.1574 73.845 36.9953C73.899 37.1495 73.9568 37.3046 74.0335 37.4481C74.8302 38.9401 75.9386 40.1434 77.3899 41.0054C77.7432 41.2154 78.163 41.312 78.5523 41.4605ZM74.6401 11.0793C75.8853 11.0097 76.7792 10.4304 77.698 9.89492C78.7104 9.30485 79.7557 8.77112 80.7604 8.16855C80.9447 8.05794 81.1184 7.72257 81.0945 7.51456C81.055 7.17161 80.9097 6.80354 80.7038 6.52451C80.1418 5.76297 79.5721 4.99689 78.92 4.31503C77.5153 2.84651 75.1745 2.90915 73.8184 4.42495C73.4731 4.81094 73.1383 5.24312 72.9355 5.71362C72.4705 6.79241 72.0693 7.90075 71.6818 9.01105C71.4038 9.80726 71.5947 10.1526 72.3923 10.4199C72.9783 10.6163 73.5727 10.7882 74.1653 10.9643C74.3642 11.0235 74.5693 11.0624 74.6401 11.0793ZM89.0823 33.8589C90.0713 33.9194 91.0405 33.8407 91.9722 33.4812C93.1892 33.0116 93.94 32.0965 93.8424 30.9427C93.7624 29.996 93.5936 29.014 93.2304 28.1464C92.8649 27.2731 92.2314 26.5071 91.6726 25.7248C91.4697 25.4409 91.1688 25.2004 90.8632 25.0289C90.6968 24.9355 90.3496 24.938 90.2166 25.0526C89.5367 25.6386 88.8692 26.2461 88.2558 26.9014C87.4661 27.745 87.0609 28.7557 87.1146 29.9434C87.1328 30.3464 87.0442 30.7571 86.9794 31.1603C86.9041 31.6287 86.7794 32.0896 86.716 32.5591C86.6202 33.269 86.8203 33.5704 87.5282 33.7058C88.0375 33.8031 88.5636 33.8111 89.0823 33.8589ZM77.5067 12.2373C77.6322 12.3568 77.6713 12.4105 77.7237 12.4416C79.6315 13.5748 81.5393 14.708 83.4532 15.8307C83.5464 15.8853 83.7309 15.894 83.8063 15.8362C83.8795 15.7801 83.9086 15.6022 83.8856 15.4927C83.6138 14.1958 83.3535 12.8955 83.0333 11.6104C82.9211 11.1599 82.6845 10.7297 82.4461 10.3253C82.2586 10.0073 81.9611 9.86331 81.567 10.0578C80.7483 10.4619 79.9065 10.8203 79.098 11.2434C78.5591 11.5253 78.0615 11.8868 77.5067 12.2373ZM71.8235 29.7239C71.3626 29.7599 71.3046 29.9792 71.3824 30.2797C71.5789 31.0386 71.7527 31.8047 71.9868 32.5517C72.1216 32.9823 72.3135 33.4106 72.5652 33.7812C72.6732 33.9402 73.0359 34.066 73.2192 34.007C73.9756 33.7635 74.7127 33.4561 75.4454 33.1446C75.6941 33.0388 75.9451 32.8847 76.1225 32.687C76.2043 32.5957 76.1781 32.2427 76.088 32.1844C74.9536 31.4498 73.8045 30.7377 72.6447 30.0442C72.3718 29.8809 72.0454 29.808 71.8235 29.7239ZM68.9179 23.7246C68.8879 23.7256 68.8579 23.7266 68.8278 23.7276C68.7799 22.4915 68.7404 21.2549 68.6802 20.0195C68.6515 19.4299 68.3348 19.2589 67.8922 19.6474C67.17 20.2812 66.493 20.971 65.8403 21.6778C65.725 21.8026 65.7414 22.1694 65.8385 22.3457C65.9991 22.6374 66.2456 22.9018 66.5082 23.112C67.0555 23.5501 67.6328 23.9509 68.2069 24.354C68.3548 24.4579 68.5364 24.5134 68.7025 24.5911C68.7742 24.4005 68.8562 24.213 68.9133 24.0181C68.9398 23.9276 68.9179 23.8228 68.9179 23.7246ZM84.6521 30.8903C84.65 30.2173 84.3551 29.9951 83.88 30.2894C83.2745 30.6644 82.7205 31.1255 82.1555 31.5641C81.7108 31.9093 81.756 32.1873 82.3006 32.3708C82.7611 32.526 83.2445 32.6118 83.7079 32.7597C84.0949 32.8831 84.3183 32.7446 84.3945 32.3756C84.5034 31.849 84.5798 31.3157 84.6521 30.8903ZM73.208 12.381C72.6576 12.0914 72.2145 11.8448 71.7597 11.6227C71.2986 11.3975 70.9979 11.5252 70.878 12.0283C70.7721 12.4721 70.7143 12.9301 70.6713 13.3852C70.6517 13.5923 70.7191 13.8078 70.7471 14.0195C70.9868 13.97 71.2791 13.9912 71.4566 13.8579C72.0152 13.438 72.5307 12.9603 73.208 12.381ZM87.333 23.175C87.358 23.5402 87.3576 23.9003 87.4136 24.2513C87.4715 24.6143 87.7325 24.7314 88.0154 24.5133C88.3972 24.219 88.7502 23.8783 89.0691 23.5161C89.1573 23.416 89.1538 23.1109 89.0664 22.9999C88.7559 22.6055 88.4129 22.2299 88.0407 21.8937C87.6966 21.5828 87.4614 21.6852 87.3906 22.159C87.3402 22.495 87.3498 22.8399 87.333 23.175Z" fill="#2017CC"/>
<path d="M26.3194 69.3297C25.6284 69.0461 25.0362 68.7317 24.4056 68.5585C22.8336 68.1267 21.232 67.8012 19.6663 67.3489C18.8287 67.107 17.9915 66.7761 17.2421 66.3344C16.1038 65.6636 15.9167 64.733 16.5505 63.5757C17.2222 62.3492 18.1893 61.3719 19.2204 60.4564C21.8992 58.0782 24.9145 56.175 27.9255 54.2684C30.4518 52.6687 33.0059 51.1127 35.5178 49.4905C36.6555 48.7559 37.7179 47.904 38.8205 47.1138C39.1144 46.9031 39.41 46.5715 39.7992 46.9688C40.315 47.4955 40.3531 47.8204 40.0026 48.3381C38.7642 50.1671 37.4462 51.9495 36.3278 53.8502C35.5126 55.2359 34.9705 56.783 34.2939 58.2523C33.9538 58.991 33.6158 59.7336 33.2215 60.4433C32.8098 61.1846 32.8164 61.4587 33.5756 61.8585C36.1601 63.2197 38.7606 64.5506 41.3593 65.8846C42.8983 66.6746 44.4488 67.4422 45.9878 68.2323C46.904 68.7028 47.0666 69.2674 46.5445 70.1602C45.9984 71.0942 45.1138 71.6675 44.2692 72.2887C38.6987 76.3862 32.6569 79.7063 26.6416 83.0661C20.7961 86.331 14.9197 89.54 9.05422 92.7688C8.87381 92.8681 8.66791 92.961 8.46779 92.9763C7.90351 93.0194 7.56404 92.7022 7.65959 92.1473C7.73534 91.7072 7.88763 91.2459 8.12861 90.8745C9.36714 88.9661 10.5879 87.0418 11.9212 85.2008C15.0728 80.8488 18.7656 76.97 22.5346 73.163C23.7545 71.931 24.971 70.6956 26.3194 69.3297ZM44.609 70.0381C44.4219 69.9144 44.2976 69.8143 44.1585 69.743C42.6046 68.947 41.0485 68.1554 39.4929 67.3628C37.1389 66.1631 34.7747 64.9828 32.438 63.75C31.8691 63.4499 31.3594 63.0114 30.8783 62.5745C30.3345 62.0805 30.244 61.4511 30.5762 60.7806C30.6706 60.5901 30.768 60.3998 30.8815 60.2204C32.0962 58.3017 32.9649 56.2161 33.8003 54.1146C33.8665 53.9482 33.9152 53.7723 33.95 53.5965C34.0165 53.2614 33.8523 53.142 33.5695 53.2915C33.2252 53.4733 32.8814 53.6776 32.5876 53.9312C30.4644 55.7638 28.0956 57.2533 25.8221 58.8773C23.6426 60.434 21.5183 62.0692 19.3845 63.6897C19.1727 63.8505 19.0644 64.1492 18.9081 64.3838C19.1292 64.497 19.3398 64.6426 19.573 64.7187C21.9912 65.5079 24.4092 66.2988 26.8364 67.059C27.5602 67.2858 28.3144 67.4132 29.0522 67.5957C29.3977 67.6812 29.7533 67.7556 30.0727 67.904C30.1985 67.9625 30.3408 68.2454 30.2993 68.3637C30.0798 68.9888 30.0008 69.7251 29.2091 69.9739C29.0451 70.0254 28.9017 70.1592 28.763 70.2726C27.4337 71.3593 26.1093 72.4518 24.778 73.536C24.6299 73.6567 24.4371 73.7216 24.2854 73.8388C24.0932 73.9873 23.8972 74.1431 23.747 74.3313C23.5076 74.6311 23.3453 75.0012 23.0787 75.2696C22.2614 76.0925 21.3833 76.8554 20.5802 77.6915C19.9589 78.3385 19.4215 79.0662 18.835 79.7478C17.01 81.8688 15.1404 83.9527 13.3695 86.1181C12.6381 87.0125 12.1135 88.0777 11.4949 89.0652C11.5421 89.104 11.5893 89.1429 11.6365 89.1817C22.7066 82.9798 33.9851 77.1403 44.609 70.0381Z" fill="#2017CC"/>
<path d="M8.55291 35.8965C9.95176 36.1334 11.4598 36.3178 12.9291 36.6672C13.6692 36.8431 14.3474 37.302 15.0355 37.6672C15.242 37.7768 15.4156 37.9829 15.5513 38.1815C15.6405 38.312 15.6965 38.5296 15.6492 38.6671C15.6182 38.757 15.3667 38.8335 15.2295 38.8126C14.473 38.6973 13.7251 38.5224 12.9672 38.4194C11.1402 38.1712 9.30496 37.9807 7.48294 37.7016C6.97315 37.6235 6.46668 37.3705 6.01598 37.101C5.58155 36.8412 5.63261 36.4678 6.12623 36.3391C6.87691 36.1435 7.65503 36.0541 8.55291 35.8965Z" fill="#2017CC"/>
<path d="M56.0622 86.7668C56.2121 86.8688 56.5322 87.0001 56.7272 87.2359C57.3614 88.0026 58.0418 88.7541 58.5353 89.61C59.333 90.9935 60.0165 92.4458 60.6995 93.8922C60.8363 94.1819 60.7558 94.5753 60.7755 94.9208C60.452 94.7748 60.04 94.7096 59.8212 94.4679C59.1319 93.7061 58.4727 92.9081 57.8803 92.0681C57.0714 90.9209 56.3154 89.7341 55.58 88.5375C55.3826 88.2164 55.2948 87.8045 55.2423 87.4225C55.1847 87.0019 55.4757 86.7513 56.0622 86.7668Z" fill="#2017CC"/>
<path d="M29.3295 88.1178C29.0446 88.9982 28.8168 89.9026 28.4615 90.7534C27.9397 92.0033 27.3305 93.2168 26.7509 94.442C26.5425 94.8824 26.0583 94.9301 25.8546 94.4875C25.6794 94.1068 25.5346 93.6269 25.6047 93.2318C25.9315 91.3924 26.441 89.6006 27.3306 87.9428C27.476 87.672 27.6564 87.4097 27.866 87.1867C28.384 86.6353 28.9218 86.7727 29.1349 87.4982C29.1894 87.6837 29.1991 87.8824 29.2294 88.0751C29.2628 88.0893 29.2961 88.1036 29.3295 88.1178Z" fill="#2017CC"/>
<path d="M50.6822 90.851C50.1818 90.9976 49.7729 90.8612 49.473 90.5499C49.0567 90.1177 48.6577 89.6528 48.3357 89.1475C47.4835 87.8102 46.6696 86.448 45.8576 85.0852C45.6848 84.7952 45.5428 84.4717 45.462 84.1448C45.3529 83.7043 45.4941 83.353 45.9532 83.152C46.4157 82.9495 46.6688 83.1463 46.9261 83.5148C48.2648 85.4319 49.2235 87.5487 50.1697 89.6731C50.3409 90.0575 50.5056 90.4447 50.6822 90.851Z" fill="#2017CC"/>
<path d="M5.66479 82.2284C5.73604 82.0577 5.80983 81.7229 5.99417 81.4694C6.53121 80.7307 7.08374 79.999 7.68457 79.3126C8.27591 78.637 8.91173 77.9962 9.57117 77.3874C9.93691 77.0497 10.3682 76.7617 10.8145 76.5436C11.046 76.4304 11.3998 76.443 11.6542 76.5296C12.2435 76.7301 12.2404 76.986 11.8119 77.4197C10.987 78.2547 10.1837 79.1137 9.40996 79.997C8.50395 81.0313 7.63509 82.0982 6.4143 82.7871C5.98104 83.0316 5.67636 82.8622 5.66479 82.2284Z" fill="#2017CC"/>
<path d="M10.4212 67.4167C10.5191 67.4717 10.7183 67.5173 10.7661 67.6286C10.8163 67.7453 10.7721 67.976 10.6807 68.0681C10.337 68.4144 9.99818 68.7963 9.58364 69.0357C7.81866 70.0549 6.02506 71.0241 4.24715 72.0209C3.88533 72.2237 3.61916 72.082 3.37818 71.8314C3.11162 71.5542 3.16444 71.2218 3.39455 70.9891C3.80458 70.5743 4.23431 70.1606 4.71784 69.8412C6.25331 68.8269 7.92842 68.1023 9.68732 67.5739C9.90488 67.5086 10.1326 67.4775 10.4212 67.4167Z" fill="#2017CC"/>
<path d="M64.4528 43.7169C64.3505 43.9581 64.2161 44.4206 63.9745 44.8167C63.306 45.9125 62.3911 46.7675 61.2783 47.4049C61.1793 47.4616 61.0796 47.52 60.9741 47.5617C60.6202 47.7013 60.2354 47.8606 59.9202 47.5444C59.6033 47.2263 59.7491 46.8221 59.9096 46.4857C60.6774 44.8761 61.832 43.5684 63.1598 42.409C63.2688 42.3138 63.5286 42.3067 63.6802 42.3628C64.2024 42.5558 64.474 42.9831 64.4528 43.7169Z" fill="#2017CC"/>
<path d="M20.2765 51.9365C20.0362 52.0527 19.8073 52.2142 19.554 52.278C17.119 52.8922 14.6387 53.1134 12.1337 53.1093C11.7657 53.1087 11.5576 52.8665 11.5457 52.576C11.5373 52.3698 11.7147 52.031 11.8895 51.9645C12.5393 51.7172 13.2113 51.4885 13.895 51.3793C15.7343 51.0857 17.5847 50.8755 19.4218 51.4159C19.7082 51.5002 19.9824 51.6267 20.2623 51.7336C20.2671 51.8013 20.2718 51.8688 20.2765 51.9365Z" fill="#2017CC"/>
<path d="M75.2703 52.9341C75.4577 52.3876 75.5992 51.8186 75.8488 51.3024C76.0205 50.9473 76.3695 50.7138 76.8179 50.7728C77.261 50.8311 77.5469 51.1226 77.6305 51.5219C77.7937 52.3015 77.9221 53.0927 77.9951 53.8855C78.0511 54.4959 78.0107 55.1165 77.9894 55.7318C77.984 55.8873 77.896 56.0434 77.8311 56.1928C77.4989 56.9577 77.0034 57.0306 76.4805 56.3715C75.897 55.636 75.6263 54.7633 75.4693 53.8516C75.4195 53.5622 75.4018 53.2672 75.3693 52.9748C75.3362 52.9612 75.3032 52.9476 75.2703 52.9341Z" fill="#2017CC"/>
<path d="M17.8779 13.9985C17.3969 13.8704 16.8813 13.8138 16.4426 13.5988C15.6549 13.2128 15.6563 12.3427 16.4209 11.9049C16.6821 11.7554 16.9966 11.6363 17.2922 11.6226C18.525 11.5653 19.76 11.5339 20.994 11.5379C21.3224 11.539 21.6631 11.6684 21.9748 11.7966C22.2818 11.9229 22.3294 12.1926 22.0959 12.4278C21.8805 12.6447 21.6314 12.8449 21.3634 12.9887C20.284 13.5677 19.126 13.8711 17.8779 13.9985Z" fill="#2017CC"/>
<path d="M36.0811 91.1883C36.2726 90.0779 36.4416 88.9626 36.6731 87.8606C36.7263 87.6075 36.9552 87.3475 37.1727 87.1833C37.5312 86.9125 37.9439 86.997 38.1092 87.416C38.2901 87.8746 38.4543 88.4014 38.4085 88.8772C38.2767 90.2444 38.0501 91.6035 37.827 92.9603C37.7671 93.3245 37.5967 93.6726 37.4592 94.0209C37.3259 94.3585 37.0628 94.3513 36.9174 94.0875C36.6622 93.6247 36.4318 93.132 36.2962 92.6234C36.1756 92.1716 36.1977 91.6813 36.1568 91.208C36.1314 91.2013 36.1062 91.1948 36.0811 91.1883Z" fill="#2017CC"/>
<path d="M14.7573 45.157C14.3898 45.1947 14.017 45.2921 13.6556 45.26C11.4136 45.0608 9.17191 44.8515 6.93525 44.5999C6.41095 44.5409 5.88567 44.3515 5.40204 44.1307C5.18752 44.0328 5.0757 43.7079 4.91724 43.486C5.14009 43.3619 5.37186 43.1174 5.58432 43.1333C6.9965 43.2395 8.41701 43.3278 9.81057 43.5659C11.1886 43.8013 12.5407 44.1952 13.8977 44.5449C14.2125 44.6261 14.5011 44.81 14.8018 44.9466C14.787 45.0167 14.7722 45.0869 14.7573 45.157Z" fill="#2017CC"/>
<path d="M50.148 7.07251C51.8852 7.21601 53.381 7.67194 54.7481 8.53187C54.8306 8.58378 54.9244 8.63578 54.9777 8.71241C55.0933 8.87866 55.3066 9.11189 55.2595 9.22467C55.1913 9.38777 54.9361 9.54763 54.7457 9.56782C54.3495 9.60987 53.942 9.57796 53.542 9.54349C52.5515 9.45819 51.5592 9.38029 50.5747 9.24673C50.0967 9.18192 49.6049 9.0594 49.177 8.84606C48.9336 8.72472 48.6536 8.35922 48.6667 8.11909C48.6822 7.83839 48.944 7.4849 49.1994 7.32642C49.4996 7.14057 49.9075 7.13023 50.148 7.07251Z" fill="#2017CC"/>
<path d="M88.3561 58.5014C88.3803 59.0049 88.0212 59.2597 87.6185 58.9725C87.2035 58.6767 86.7665 58.3193 86.5291 57.8842C86.0423 56.9916 85.7838 56.002 85.7604 54.9694C85.756 54.7749 85.7751 54.5753 85.8159 54.3851C85.9113 53.9406 86.0807 53.4025 86.5449 53.3973C86.9105 53.3931 87.3501 53.7184 87.6278 54.0183C87.8752 54.2855 88.034 54.7079 88.0776 55.08C88.2104 56.2158 88.2687 57.3603 88.3561 58.5014Z" fill="#2017CC"/>
<path d="M17.8034 20.9045C17.8418 21.1922 17.9202 21.4259 17.8879 21.6427C17.8576 21.8463 17.7602 22.1335 17.6067 22.21C16.3375 22.8412 15.0576 23.4682 13.6094 23.5586C13.1428 23.5878 12.5814 23.6402 12.3937 23.0777C12.2167 22.5471 12.6307 22.1855 13.0056 21.8956C14.1061 21.0443 15.3966 20.8319 16.7424 20.8451C17.0821 20.8484 17.4215 20.8822 17.8034 20.9045Z" fill="#2017CC"/>
<path d="M25.1349 45.3694C23.3277 45.1169 21.6283 44.7667 20.0274 44.0355C19.7593 43.9129 19.5637 43.6302 19.3345 43.4216C19.595 43.2814 19.8498 43.0364 20.117 43.0217C20.7916 42.9847 21.4816 42.9889 22.1475 43.0925C23.0114 43.227 23.8616 43.46 24.71 43.6807C24.9716 43.7488 25.2185 43.8979 25.4534 44.041C25.7836 44.2422 26.0464 44.5525 25.8368 44.9287C25.7186 45.1407 25.3763 45.2266 25.1349 45.3694Z" fill="#2017CC"/>
<path d="M49.9217 60.2192C49.5658 60.0625 49.2911 59.9964 49.0824 59.8408C47.5756 58.7174 46.423 57.2918 45.5857 55.6074C45.5281 55.4917 45.4553 55.3513 45.4742 55.2366C45.5115 55.0115 45.5495 54.728 45.6988 54.598C45.8249 54.4881 46.1434 54.4872 46.3144 54.5693C46.5851 54.6992 46.8366 54.9092 47.039 55.1367C48.2699 56.5209 49.1385 58.1294 49.8575 59.8262C49.8877 59.8975 49.8845 59.9828 49.9217 60.2192Z" fill="#2017CC"/>
<path d="M39.2162 33.2306C38.3034 33.2415 37.8572 32.7444 38.0239 31.9453C38.1987 31.1074 38.688 30.4738 39.5078 30.2069C40.0098 30.0435 40.5555 29.9994 41.0861 29.9482C41.3902 29.9189 41.6213 30.081 41.6469 30.4279C41.746 31.7623 41.0304 32.786 39.7432 33.1399C39.5409 33.1956 39.3281 33.2119 39.2162 33.2306Z" fill="#2017CC"/>
<path d="M80.2478 66.6463C80.4512 65.9 80.6018 65.2339 80.8257 64.5936C80.8932 64.4006 81.1602 64.1641 81.3426 64.1581C81.5182 64.1523 81.799 64.3843 81.8658 64.572C82.1107 65.2614 82.515 66.0098 82.4177 66.6703C82.3328 67.2458 82.468 67.7049 82.52 68.2209C82.5701 68.717 82.633 69.3779 82.0655 69.5426C81.5576 69.6901 81.168 69.1577 80.9699 68.7304C80.6599 68.0622 80.4785 67.3339 80.2478 66.6463Z" fill="#2017CC"/>
<path d="M58.4265 82.5082C58.0815 82.4486 57.7191 82.4378 57.3946 82.3208C56.1018 81.8549 54.976 81.111 54.0389 80.1036C53.7911 79.8372 53.5979 79.4912 53.4758 79.1472C53.4192 78.9879 53.5386 78.6855 53.678 78.5582C53.8155 78.4327 54.1286 78.3422 54.2795 78.4148C56.0876 79.2851 57.5059 80.5849 58.4889 82.3415C58.4681 82.3971 58.4473 82.4526 58.4265 82.5082Z" fill="#2017CC"/>
<path d="M35.2767 41.3671C34.9089 41.9508 34.3181 42.171 33.6725 42.2162C32.437 42.3026 31.3211 41.9548 30.3587 41.1535C30.2962 41.1015 30.2179 41.0488 30.1893 40.979C30.0664 40.6789 29.8137 40.3346 29.8797 40.0765C29.9854 39.6635 30.4373 39.5205 30.8467 39.6055C31.3837 39.7169 31.9219 39.8662 32.4277 40.0766C33.3735 40.47 34.2964 40.9192 35.2767 41.3671Z" fill="#2017CC"/>
<path d="M61.4619 72.6519C61.1986 72.5234 60.9719 72.4412 60.7753 72.3125C59.2344 71.3036 57.8623 70.1006 56.7272 68.6426C56.5531 68.4189 56.5058 68.0955 56.3999 67.8182C56.6965 67.8334 57.0308 67.7656 57.2818 67.8809C57.8064 68.1218 58.3487 68.3902 58.7726 68.7719C59.594 69.5117 60.368 70.3114 61.1017 71.1397C61.4374 71.5185 61.6441 72.0213 61.4619 72.6519Z" fill="#2017CC"/>
<path d="M28.3269 4.82916C28.0139 5.14118 27.6058 5.21968 27.2452 5.06219C26.1755 4.59514 25.1152 4.09903 24.0873 3.54639C23.6957 3.33581 23.5871 2.8729 23.6893 2.4153C23.79 1.96441 24.1633 1.69552 24.603 1.82336C26.1988 2.28736 27.4938 3.16168 28.2935 4.67383C28.3147 4.71382 28.314 4.76553 28.3269 4.82916Z" fill="#2017CC"/>
<path d="M51.7652 21.1549C51.4323 21.4441 51.1357 21.7985 50.7597 22.0104C49.6274 22.6484 48.3475 22.7559 47.0904 22.9057C46.6907 22.9533 46.3331 22.544 46.2787 22.0719C46.2328 21.673 46.3644 21.3122 46.7674 21.2177C48.0637 20.914 49.3603 20.5569 50.7118 20.6842C51.0495 20.716 51.3764 20.8626 51.7083 20.9566C51.7273 21.0227 51.7463 21.0888 51.7652 21.1549Z" fill="#2017CC"/>
<path d="M69.3467 82.9259C68.1433 81.7759 66.9634 80.6728 65.8167 79.5358C65.5216 79.2431 65.2946 78.862 65.1086 78.4854C65.026 78.3182 65.0424 77.9674 65.1576 77.8677C65.3223 77.7252 65.6313 77.6637 65.8558 77.7021C66.0958 77.7432 66.3376 77.9078 66.5297 78.0751C67.7843 79.1679 68.7182 80.4978 69.3243 82.0497C69.4426 82.3523 69.654 82.7232 69.3467 82.9259Z" fill="#2017CC"/>
<path d="M44.8447 16.479C44.1305 16.5114 43.4223 16.466 42.821 16.0527C42.5676 15.8785 42.283 15.5456 42.2755 15.2773C42.2691 15.0486 42.5962 14.7343 42.8501 14.5871C44.2225 13.7915 45.5755 14.3799 46.3786 15.1746C46.563 15.3571 46.743 15.7229 46.68 15.9284C46.6168 16.1346 46.2652 16.3176 46.0081 16.3819C45.6353 16.4749 45.2339 16.4522 44.8447 16.479Z" fill="#2017CC"/>
<path d="M95.1918 46.3202C94.7291 46.1187 94.3489 46.0226 94.0505 45.8104C93.0647 45.1095 92.5247 44.0912 92.2025 42.9515C92.0828 42.5278 92.348 42.2015 92.8693 42.0318C93.4256 41.8507 93.9552 41.9755 94.1069 42.3798C94.4618 43.325 94.7978 44.2784 95.104 45.2405C95.1939 45.523 95.158 45.8459 95.1918 46.3202Z" fill="#2017CC"/>
<path d="M64.2617 58.9726C64.4069 57.8489 64.8326 56.8465 65.6955 56.0668C65.8448 55.9319 66.0601 55.8273 66.2577 55.799C66.598 55.7505 66.9258 55.8798 66.8829 56.2828C66.8251 56.8262 66.7782 57.4139 66.5378 57.8854C66.087 58.7691 65.5042 59.5851 64.9651 60.4221C64.9137 60.5017 64.76 60.5925 64.6956 60.5678C64.5969 60.5302 64.4856 60.4062 64.4652 60.302C64.381 59.8701 64.3289 59.4318 64.2617 58.9726Z" fill="#2017CC"/>
<path d="M96.3969 84.7857C96.2532 85.1971 96.1465 85.6271 95.9547 86.0145C95.7808 86.3659 95.4602 86.4652 95.0838 86.2712C94.1619 85.796 93.5576 84.0024 94.012 83.0783C94.3856 82.3186 94.9696 82.2294 95.5614 82.8416C96.0017 83.2971 96.3238 84.1072 96.3969 84.7857Z" fill="#2017CC"/>
<path d="M92.7226 58.4265C92.9146 58.5478 93.3186 58.7115 93.5982 58.9977C94.2677 59.6831 94.5789 60.5719 94.7644 61.4949C94.8677 62.0087 94.5034 62.2758 94.012 62.0309C92.975 61.5144 92.193 60.7015 91.6595 59.6822C91.2872 58.9708 91.682 58.4333 92.7226 58.4265Z" fill="#2017CC"/>
<path d="M88.4248 73.4198C88.5789 73.0534 88.699 72.6219 88.934 72.2674C89.0604 72.0767 89.4025 71.8994 89.6134 71.9328C89.8301 71.9671 90.1222 72.2345 90.1791 72.4531C90.4589 73.5271 90.6802 74.6169 90.9018 75.7053C90.9597 75.9897 90.6095 76.2673 90.283 76.2226C90.1737 76.2077 90.0517 76.1704 89.9677 76.1029C89.1315 75.4304 88.6857 74.532 88.4248 73.4198Z" fill="#2017CC"/>
<path d="M9.49209 59.6829C8.85117 59.8783 8.21603 60.0972 7.56747 60.2626C6.9535 60.4191 6.32777 60.5338 5.70282 60.6411C4.96253 60.7681 4.23116 60.6941 3.56368 60.345C3.3714 60.2444 3.27203 59.9645 3.13013 59.7667C3.31427 59.6427 3.49341 59.4198 3.68324 59.4101C5.30612 59.3276 6.93076 59.2704 8.55541 59.2399C8.85852 59.2342 9.16457 59.3811 9.46926 59.4577C9.4769 59.5328 9.48454 59.6079 9.49209 59.6829Z" fill="#2017CC"/>
<path d="M33.8006 9.93956C32.6956 9.9503 32.1014 9.38909 32.144 8.6368C32.1837 7.93386 32.8108 7.48129 33.627 7.61386C34.1371 7.69669 34.6444 7.82256 35.1371 7.97927C35.4869 8.09046 35.7792 8.3165 35.7904 8.74386C35.8024 9.20284 35.5193 9.50413 35.1434 9.63167C34.6261 9.80719 34.0743 9.87997 33.8006 9.93956Z" fill="#2017CC"/>
<path d="M22.8102 24.9753C22.6721 25.2893 22.577 25.6325 22.3882 25.9119C21.7489 26.858 19.7334 27.6065 18.6196 27.3446C18.1672 27.2382 17.8936 26.9043 17.9211 26.4726C17.9508 26.0046 18.2423 25.7742 18.672 25.7076C18.9931 25.6579 19.319 25.6265 19.6436 25.614C20.7067 25.5731 21.755 25.4745 22.6987 24.8953C22.7359 24.922 22.7731 24.9486 22.8102 24.9753Z" fill="#2017CC"/>
<path d="M66.1401 74.8316C66.2146 73.9086 66.4457 73.1181 67.0181 72.4628C67.2941 72.1469 67.6279 71.9678 68.0594 72.1524C68.5074 72.3441 68.5606 72.7175 68.4903 73.1341C68.3243 74.1169 67.9917 75.0383 67.3629 75.8177C67.209 76.0082 66.9015 76.2031 66.6915 76.1769C66.528 76.1566 66.3638 75.8124 66.2776 75.5828C66.1821 75.328 66.1748 75.0398 66.1401 74.8316Z" fill="#2017CC"/>
<path d="M31.6923 26.1267C30.6571 26.1299 30.4925 26.0414 30.3087 25.4182C30.1953 25.034 30.2623 24.685 30.6332 24.4801C31.6395 23.924 32.7083 23.9141 33.7605 24.2716C34.3421 24.4692 34.3516 25.2138 33.807 25.5684C33.1264 26.0113 32.3481 26.1092 31.6923 26.1267Z" fill="#2017CC"/>
<path d="M53.8108 40.4061C53.8083 39.6044 54.6336 38.6603 55.4282 38.5622C55.5225 38.5506 55.6238 38.5549 55.7162 38.5764C56.3178 38.7164 56.9126 40.3742 56.4572 40.7779C56.0715 41.1198 55.5733 41.4087 55.0781 41.5331C54.3103 41.7261 53.8133 41.2243 53.8108 40.4061Z" fill="#2017CC"/>
<path d="M39.9103 77.7243C40.0141 77.7109 40.1586 77.6859 40.3042 77.6749C40.7058 77.6444 40.9936 77.8282 41.0538 78.2211C41.1801 79.0462 41.2895 79.8764 41.3443 80.7086C41.3617 80.9725 41.1841 81.2494 41.0957 81.5204C40.8453 81.3915 40.5421 81.3152 40.354 81.1242C39.6864 80.4463 39.2664 79.6185 39.0526 78.6868C38.9166 78.0939 39.1079 77.528 39.9103 77.7243Z" fill="#2017CC"/>
<path d="M74.4303 73.8834C73.8199 72.6433 73.2364 71.3842 73.2718 69.9462C73.283 69.4919 73.6243 69.1803 74.1168 69.145C74.5388 69.1148 74.9863 69.4011 75.0229 69.8731C75.1236 71.1758 75.0771 72.4789 74.6856 73.7443C74.6715 73.7899 74.638 73.8293 74.6135 73.8717C74.5525 73.8755 74.4913 73.8794 74.4303 73.8834Z" fill="#2017CC"/>
<path d="M83.6946 82.4508C83.7008 81.9211 84.3574 81.3107 85.05 81.357C85.5437 81.39 85.8425 81.7542 85.8345 82.3003C85.8302 82.5915 85.8261 82.8838 85.8472 83.1738C85.9119 84.0577 85.182 84.8055 84.2968 84.7453C83.9562 84.7222 83.8147 84.4958 83.7922 84.1877C83.7537 83.6653 83.7322 83.1417 83.6946 82.4508Z" fill="#2017CC"/>
<path d="M45.2468 3.12398C44.8993 3.03002 44.539 2.99919 44.2556 2.83481C44.0304 2.70421 43.759 2.40745 43.763 2.18919C43.7676 1.94089 44.0072 1.56101 44.2303 1.48152C44.6722 1.32423 45.2034 1.20279 45.6426 1.30503C46.3412 1.46754 47.0013 1.81088 47.6617 2.11296C47.7906 2.17196 47.9373 2.4107 47.9115 2.53106C47.8853 2.65398 47.6669 2.7966 47.5152 2.82092C46.7617 2.94187 46.0025 3.02667 45.2468 3.12398Z" fill="#2017CC"/>
<path d="M53.3453 73.0121C53.2152 72.9747 53.072 72.9609 52.9572 72.8963C52.2635 72.5055 51.5711 72.1118 50.8883 71.7022C50.1743 71.2738 49.9316 70.8086 50.0916 70.0828C50.1419 69.8549 50.3122 69.5513 50.4988 69.485C50.6834 69.4194 51.0326 69.5399 51.1805 69.6995C51.8557 70.4281 52.5073 71.1821 53.119 71.9651C53.318 72.2198 53.3704 72.5901 53.4898 72.9076C53.4416 72.9424 53.3935 72.9773 53.3453 73.0121Z" fill="#2017CC"/>
<path d="M14.4351 4.25073C15.3145 4.34332 16.1178 4.58856 16.7536 5.2003C16.9015 5.34272 16.9256 5.61515 17.0066 5.82779C16.8049 5.8667 16.6048 5.92264 16.4013 5.94116C15.9345 5.98361 15.4658 6.00439 14.9985 6.04152C14.8371 6.05433 14.6781 6.09579 14.5169 6.11362C13.4518 6.23073 13.0875 5.75511 13.479 4.75275C13.6551 4.30185 14.0638 4.2919 14.4351 4.25073Z" fill="#2017CC"/>
<path d="M16.9328 95.3511C16.5717 96.0664 16.2975 96.7284 15.9173 97.3216C15.6639 97.7169 15.0422 97.5714 14.8363 97.1307C14.5216 96.4567 14.7906 95.1526 15.3407 94.6582C15.6337 94.3947 15.9855 94.3394 16.2829 94.5516C16.5286 94.7269 16.6824 95.0323 16.9328 95.3511Z" fill="#2017CC"/>
<path d="M69.2527 44.0807C69.4309 43.6184 69.5351 43.2021 69.7435 42.8478C69.9653 42.4702 70.3813 42.4678 70.7541 42.5896C71.128 42.7119 71.2911 43.0405 71.2335 43.4111C71.1483 43.9596 71.0365 44.5093 70.8713 45.0381C70.6894 45.62 70.174 45.7357 69.7978 45.2549C69.5417 44.9278 69.4328 44.4844 69.2527 44.0807Z" fill="#2017CC"/>
<path d="M31.9865 16.7463C32.7692 16.7825 33.2563 16.931 33.5971 17.3918C33.7651 17.619 33.8117 17.892 33.5256 18.0199C32.7065 18.3862 31.8743 18.7466 30.9543 18.3256C30.3262 18.0382 30.2561 17.5606 30.8504 17.2015C31.2566 16.9561 31.7408 16.8411 31.9865 16.7463Z" fill="#2017CC"/>
<path d="M55.6429 28.5039C55.6819 28.5083 55.7468 28.513 55.8108 28.5231C56.1846 28.5825 56.5996 28.6323 56.7041 29.0693C56.8063 29.4971 56.4113 29.6497 56.1312 29.8211C55.6745 30.1005 55.205 30.3616 54.7246 30.5971C54.5768 30.6695 54.2995 30.7111 54.216 30.629C54.0619 30.4771 53.9184 30.2196 53.9271 30.0127C53.9559 29.3334 54.9272 28.4998 55.6429 28.5039Z" fill="#2017CC"/>
<path d="M26.9816 13.027C26.9836 12.1885 27.1847 12.0165 27.9761 12.1673C28.2963 12.2282 28.6193 12.2892 28.9286 12.3891C29.4325 12.5517 29.5539 13.0051 29.1876 13.3813C28.7281 13.853 28.1514 14.0742 27.4976 13.9812C26.9147 13.8984 26.9191 13.4524 26.9816 13.027Z" fill="#2017CC"/>
<path d="M72.4648 82.4117C72.4282 82.7181 72.4078 83.0276 72.35 83.3299C72.3009 83.5865 72.141 83.6785 71.8822 83.5609C71.1848 83.2438 70.7645 81.9719 71.147 81.3203C71.3975 80.8936 71.742 80.8384 72.0253 81.2482C72.2561 81.582 72.3779 81.9919 72.5479 82.3681C72.5201 82.3826 72.4924 82.3971 72.4648 82.4117Z" fill="#2017CC"/>
<path d="M73.9924 21.0712C74.1754 20.5804 74.323 19.9326 74.6406 19.3842C75.3047 18.2375 76.61 17.9557 77.7371 18.6432C79.4413 19.6828 80.0274 22.5287 77.7577 23.9056C76.1317 24.892 74.8531 24.4124 74.2925 22.5839C74.1596 22.1506 74.1124 21.6909 73.9924 21.0712Z" fill="#2017CC"/>
</svg>
