<svg width="101" height="99" viewBox="0 0 101 99" fill="none" xmlns="http://www.w3.org/2000/svg">
<path d="M87.0727 0.778163C86.7834 1.09432 86.5354 1.4658 86.1981 1.71761C84.049 3.32188 81.8863 4.90843 79.7147 6.4821C78.8959 7.0755 78.038 7.61498 77.2049 8.18923C77.0128 8.32167 76.8232 8.47549 76.6796 8.65677C76.4851 8.9024 76.5019 9.15015 76.7897 9.34593C77.5149 9.83921 78.2347 10.3405 78.9593 10.8347C79.1122 10.9391 79.2711 11.0375 79.4365 11.1203C80.1134 11.4594 80.2706 11.342 80.2674 10.5841C80.2655 10.1313 80.2893 9.66735 80.387 9.22747C80.6087 8.22976 81.2862 7.76141 82.2908 7.94836C83.0667 8.09266 83.8204 8.35328 84.589 8.54176C84.9297 8.62536 85.2829 8.70308 85.6304 8.70308C86.0544 8.70298 86.1503 8.47245 86.0656 8.05902C85.9451 7.47049 85.8247 6.87162 85.8092 6.27437C85.7847 5.33493 86.8572 4.30236 88.0499 5.01401C88.5134 5.29055 88.9654 5.58714 89.4355 5.85152C90.0781 6.21286 90.2663 6.08438 90.3006 5.363C90.3236 4.87772 90.3721 4.38221 90.4992 3.91578C90.7382 3.03795 91.3263 2.7298 92.2068 2.98587C92.6588 3.11729 93.0922 3.31165 93.5369 3.46912C94.3304 3.75001 94.5872 3.57551 94.5162 2.74267C94.4638 2.12861 94.5295 1.59834 94.9439 1.08996C95.3688 0.568914 96.0693 0.756174 96.1962 1.32809C96.3146 1.86221 96.3293 2.42885 96.3174 2.97959C96.307 3.46567 96.2107 3.95196 96.128 4.43399C95.9865 5.25802 95.4783 5.63142 94.6466 5.48632C94.1846 5.40576 93.7378 5.24008 93.2829 5.11747C92.9905 5.03864 92.6995 4.94126 92.4013 4.90164C92.0908 4.86039 91.9074 4.98696 91.8871 5.35327C91.8537 5.95781 91.8119 6.56904 91.6886 7.1597C91.4872 8.12387 91.0191 8.35957 90.1032 7.98079C89.5123 7.73638 88.9494 7.42489 88.3724 7.14663C88.1175 7.02372 87.8588 6.90871 87.4971 6.74181C87.5967 7.44698 87.6748 8.0578 87.7708 8.66589C87.9504 9.80445 87.5684 10.3473 86.4114 10.3033C85.4449 10.2666 84.475 10.0774 83.5264 9.86667C82.0819 9.54575 81.7022 9.83282 81.6272 11.3163C81.5918 12.0179 81.8167 12.5671 82.2841 13.0467C83.0729 13.8563 83.8647 14.6632 84.6662 15.4602C84.7445 15.5381 84.9613 15.6049 85.0052 15.5629C85.1003 15.4721 85.1617 15.3104 85.1722 15.1727C85.2249 14.4841 85.2424 13.7927 85.3034 13.1051C85.3253 12.8585 85.4126 12.6106 85.5075 12.3788C85.8357 11.5777 86.4199 11.261 87.251 11.5261C87.8557 11.7188 88.4237 12.0295 89.002 12.3005C89.3679 12.4721 89.7117 12.6949 90.0852 12.8456C90.5827 13.0463 90.7365 12.8985 90.7874 12.3641C90.8444 11.764 90.9618 11.1693 91.0634 10.5741C91.0857 10.4434 91.1462 10.3176 91.2001 10.1944C91.9729 8.42827 93.2473 8.21831 94.5671 9.62023C94.7708 9.83657 95.0631 9.96932 95.3144 10.1408C95.4124 9.86859 95.539 9.6028 95.6023 9.32282C95.732 8.74868 95.7738 8.14991 95.9494 7.59198C96.2386 6.67341 96.9433 6.44197 97.7879 6.90242C98.079 7.06111 98.3888 7.19416 98.7032 7.29974C99.2453 7.48184 99.5268 7.89091 99.3963 8.36261C99.2635 8.84241 98.7543 9.08631 98.2169 8.92753C98.1845 8.918 98.1513 8.91081 98.1196 8.89916C97.201 8.56263 97.1056 8.61553 96.8293 9.59277C96.6964 10.0626 96.5878 10.5433 96.4083 10.9953C96.1049 11.7596 95.5778 11.9809 94.8256 11.6339C94.3715 11.4243 93.9547 11.1243 93.5437 10.8332C93.1181 10.5317 92.8149 10.5473 92.5576 11.0063C92.4144 11.262 92.3451 11.5717 92.2985 11.8659C92.2328 12.2818 92.2306 12.7073 92.1806 13.1263C92.0669 14.0795 91.5725 14.5719 90.6254 14.4529C89.7489 14.3429 88.886 14.0753 88.0371 13.8125C87.2925 13.5821 87.0503 13.683 86.9687 14.467C86.9217 14.9187 86.9546 15.3783 86.927 15.8328C86.9118 16.0817 86.9078 16.3643 86.7886 16.5668C86.5624 16.9508 86.6009 17.3182 86.8547 17.6004C87.2424 18.0313 87.6746 18.4414 88.152 18.7664C88.5087 19.0092 88.6695 18.8459 88.7192 18.4155C88.7845 17.8511 88.8263 17.2654 89.0155 16.7381C89.2938 15.9628 89.9359 15.6674 90.728 15.908C91.2027 16.0522 91.6548 16.2959 92.088 16.5455C92.4953 16.7802 92.8479 17.11 93.2546 17.3461C93.8114 17.6694 94.089 17.5379 94.2343 16.9109C94.3789 16.287 94.4737 15.6511 94.6325 15.0312C94.7487 14.5777 94.8821 14.1147 95.0988 13.7039C95.4305 13.0754 96.0482 12.9561 96.6501 13.3376C96.8637 13.4729 97.0664 13.6256 97.2779 13.7644C97.6395 14.0017 97.913 13.9424 98.0655 13.5155C98.1392 13.3093 98.2014 13.0988 98.2786 12.894C98.4499 12.4397 98.8725 12.2899 99.1778 12.6559C99.4627 12.9973 99.7463 13.4605 99.7607 13.8794C99.7846 14.5741 99.6482 15.2905 99.4757 15.9716C99.2879 16.7134 98.5388 16.8856 97.9782 16.3643C97.7315 16.135 97.519 15.8693 97.2829 15.6281C96.7492 15.0826 96.3611 15.1187 96.0553 15.8282C95.7635 16.5054 95.5463 17.2203 95.3563 17.9346C95.0718 19.0042 94.4903 19.3765 93.4498 18.999C92.8193 18.7703 92.2309 18.4267 91.621 18.1398C91.0684 17.8797 90.7547 17.994 90.6752 18.5914C90.5668 19.4069 90.5133 20.2362 90.5213 21.0587C90.5277 21.7139 90.9538 22.1663 91.4878 22.5187C91.8372 22.7492 92.067 22.6227 92.2107 22.2921C92.3033 22.079 92.3411 21.8409 92.3933 21.6118C92.4568 21.3327 92.4818 21.0419 92.572 20.7725C92.978 19.5621 93.72 19.2839 94.7866 19.9713C95.381 20.3544 95.92 20.8223 96.5027 21.2248C97.2217 21.7214 97.5623 21.5633 97.6907 20.7052C97.7803 20.1065 97.8029 19.4882 97.9727 18.9132C98.3023 17.7972 99.1641 17.5599 100.004 18.3628C100.354 18.6978 100.63 19.1605 100.806 19.6166C101.061 20.2775 100.682 20.699 99.9849 20.5287C99.5448 20.4212 99.4024 20.5756 99.2997 20.9313C99.2016 21.2714 99.1014 21.6113 98.9863 21.9459C98.6011 23.0656 97.8782 23.4165 96.7832 22.9985C96.2958 22.8124 95.8323 22.5638 95.3445 22.3787C94.583 22.0898 94.0701 22.295 93.8424 23.074C93.6455 23.7475 93.51 24.4591 93.4885 25.1583C93.465 25.9243 94.1769 26.2301 94.695 26.6028C95.1115 26.9025 95.4904 26.6079 95.8415 26.3576C96.9547 25.564 98.0768 24.7827 99.1826 23.9791C99.4949 23.7521 99.7636 23.7548 100.054 23.982C100.133 24.0444 100.215 24.1039 100.295 24.1663C101.23 24.8999 101.244 25.3933 100.284 26.0883C99.781 26.4521 99.2184 26.7345 98.6753 27.0404C97.9858 27.4289 97.2802 27.7893 96.597 28.1886C95.851 28.6245 95.1553 28.6369 94.4913 28.0567C93.6717 27.3407 92.7671 26.6994 92.1959 25.7317C92.0768 25.5299 91.919 25.3481 91.7618 25.1722C91.2863 24.6406 91.0123 24.6368 90.5171 25.1321C88.7024 26.9475 86.8948 28.7701 85.0626 30.5677C84.7632 30.8615 84.754 31.1062 84.8366 31.4869C85.1289 32.8343 85.4594 34.1837 85.6029 35.5506C85.8118 37.5416 84.9679 39.1358 83.2894 40.1854C82.0944 40.9326 80.7907 41.5061 79.5335 42.1535C79.3842 42.2305 79.2279 42.3034 79.0663 42.3456C78.3136 42.5417 77.922 42.9713 77.7408 43.7806C77.441 45.1191 76.5858 46.1666 75.5613 47.0585C74.5871 47.9065 73.509 48.6001 72.2975 49.0578C71.0311 49.536 70.1388 49.2755 69.2917 48.2229C68.9955 47.8549 68.731 47.4599 68.4185 47.107C67.9702 46.6009 67.676 46.5756 67.0966 46.9237C66.3086 47.3972 65.4858 47.7838 64.5485 47.8269C63.0266 47.8967 61.9744 47.0499 61.8042 45.5307C61.7265 44.8368 61.7963 44.1204 61.856 43.419C61.8999 42.9031 61.8047 42.6851 61.2736 42.6379C60.8397 42.5994 60.3983 42.6358 59.9607 42.6516C58.5958 42.7009 58.1478 42.2169 57.83 40.8027C57.7029 40.2371 57.7877 39.6258 57.7539 39.0366C57.7203 38.4512 57.5671 38.3612 57.0748 38.6902C54.9159 40.1325 52.7689 41.5926 50.508 43.1201C50.7659 43.183 50.8963 43.2248 51.03 43.2456C52.2765 43.4392 52.948 44.0457 53.125 45.2937C53.5373 48.2001 53.9667 51.1061 54.2789 54.0241C54.7295 58.2359 55.1102 62.4558 55.4681 66.6766C55.7576 70.0911 55.9592 73.5128 56.2183 76.9299C56.5362 81.121 56.8638 85.3114 57.2063 89.5005C57.3671 91.4684 57.5993 93.4308 57.7404 95.3999C57.7802 95.9562 57.6865 96.5498 57.5231 97.0864C57.295 97.8353 56.7502 98.1643 55.9684 98.1075C44.211 97.2533 32.4392 97.8217 20.6741 97.7462C16.469 97.7193 12.265 97.6886 8.07625 97.2586C6.88581 97.1364 5.69577 97.0062 4.5105 96.8433C4.33449 96.819 4.1227 96.6237 4.04012 96.453C3.91913 96.2028 3.86147 95.9059 3.84313 95.6246C3.65273 92.7121 3.41845 89.8008 3.31145 86.8849C3.21001 84.1189 3.28307 81.3468 3.21376 78.579C3.04596 71.8775 2.84471 65.1767 2.6461 58.476C2.58764 56.5022 2.51691 54.5281 2.402 52.557C2.36005 51.8378 2.18981 51.1236 2.04855 50.4131C1.89929 49.6621 1.9991 49.2161 2.41152 49.0151C2.84958 48.8015 3.567 48.9968 3.92876 49.5227C4.1373 49.8258 4.25291 50.2187 4.32101 50.5878C4.4798 51.4488 4.53583 52.3306 4.72441 53.1838C4.93629 54.1427 5.3553 54.3654 6.31399 54.1554C7.61468 53.8707 8.9027 53.5071 10.2158 53.3053C11.4789 53.1111 12.7659 53.0551 14.0449 52.9818C17.3984 52.7898 20.7525 52.6044 24.1079 52.4488C27.1596 52.3073 30.2135 52.2163 33.2658 52.0875C34.6136 52.0306 35.9594 51.879 37.3068 51.8688C40.6661 51.8434 44.0259 51.8766 47.3856 51.881C48.2974 51.8823 49.2094 51.8504 50.1209 51.8628C50.5098 51.8681 50.6935 51.732 50.6653 51.3396C50.5817 50.1798 50.5158 49.0183 50.4072 47.8608C50.3349 47.0904 50.2013 46.3259 50.0864 45.4951C49.8722 45.4951 49.6593 45.4859 49.4475 45.4965C45.1643 45.71 40.8811 45.9254 36.5981 46.1412C32.8715 46.3291 29.1455 46.5313 25.4183 46.7034C20.3752 46.9364 15.3321 47.1707 10.2872 47.3571C7.48711 47.4606 4.68357 47.4795 1.88136 47.5056C1.45597 47.5095 1.01153 47.3913 0.609954 47.2395C0.398374 47.1594 0.260361 46.8847 0.0891113 46.6979C0.289849 46.5659 0.476399 46.3557 0.694059 46.3161C1.43986 46.1808 2.19488 46.0905 2.94929 46.0091C9.5649 45.2955 16.2018 44.8766 22.8467 44.5581C30.0986 44.2107 37.3489 43.8335 44.5999 43.4683C44.6979 43.4634 44.7952 43.4456 44.8656 43.437C44.726 39.901 45.936 36.8829 48.116 34.1886C50.7054 30.9883 53.7788 28.3573 57.3281 26.2863C57.9724 25.9103 58.1957 25.4171 58.0807 24.7372C57.8637 23.4549 57.8656 22.1845 58.217 20.9257C58.55 19.7333 59.1954 18.8667 60.2849 18.139C61.871 17.0795 63.4541 17.1274 65.1222 17.5769C66.1442 17.8523 67.1373 18.2434 68.1284 18.6218C68.5684 18.7898 68.8786 18.7451 69.2022 18.3861C70.7993 16.6146 72.4929 14.943 74.4378 13.5483C75.0129 13.1359 75.628 12.7796 76.2146 12.3825C76.6834 12.0652 76.7085 11.7731 76.2672 11.4193C75.9003 11.1251 75.4863 10.8897 75.0944 10.6263C74.3738 10.1419 74.0829 9.42344 74.4812 8.65556C74.8235 7.99548 75.266 7.32467 75.8281 6.85449C77.002 5.87249 78.2539 4.97439 79.5298 4.12605C80.9898 3.15529 82.4772 2.21433 84.0189 1.38291C84.7882 0.967957 85.7028 0.819304 86.5569 0.568103C86.6845 0.530611 86.841 0.591916 86.9842 0.60742C87.0138 0.664469 87.0433 0.721316 87.0727 0.778163ZM5.30585 71.5653C5.2868 71.5661 5.26775 71.5669 5.2488 71.5677C5.2488 72.6141 5.22468 73.6613 5.25984 74.7066C5.27555 75.1731 5.3863 75.6415 5.49939 76.0977C5.58329 76.4363 5.80511 76.5832 6.19098 76.4695C6.60947 76.3462 7.04398 76.263 7.47738 76.2078C8.3928 76.091 8.93726 75.6478 9.21875 74.7187C10.1492 71.6477 11.4788 68.7592 13.4472 66.1998C14.8483 64.3778 16.4177 62.7324 18.5611 61.7702C20.9925 60.6785 23.2295 61.0103 25.2339 62.7779C25.8289 63.3026 26.3952 63.8596 26.9775 64.3988C28.5257 65.8327 30.0598 67.2826 31.6319 68.6899C32.3114 69.2982 32.5755 69.2429 33.008 68.4752C33.9026 66.8872 35.246 65.8177 36.8088 64.9389C37.8451 64.356 38.8177 64.3863 39.764 64.998C40.5538 65.5086 41.3209 66.0737 42.0194 66.7023C43.4741 68.0114 44.8785 69.3765 46.2983 70.7241C46.4683 70.8855 46.657 71.0598 46.7442 71.2671C46.8396 71.4941 46.9242 71.8155 46.8295 72.0026C46.7613 72.1374 46.3575 72.2176 46.163 72.1502C45.6771 71.9819 45.1593 71.7953 44.7709 71.4747C43.1195 70.1114 41.5118 68.6951 39.8846 67.3024C39.5907 67.0508 39.3001 66.7855 38.9718 66.5858C38.3829 66.2276 37.903 66.278 37.398 66.7366C37.0494 67.0532 36.7094 67.3882 36.4172 67.7559C35.882 68.4294 35.4051 69.1492 34.8681 69.8211C33.3634 71.7036 32.1863 71.891 30.3338 70.3622C28.9974 69.2593 27.7881 67.9992 26.5521 66.779C25.3725 65.6144 24.1813 64.4814 22.7271 63.6446C21.5823 62.9858 20.4914 62.9294 19.2709 63.4709C17.1551 64.4096 15.5935 65.9441 14.2891 67.7931C12.7254 70.0094 11.6071 72.4709 10.404 74.8852C10.0481 75.5995 10.1367 75.7395 10.9501 75.6907C14.9943 75.448 19.0362 75.1626 23.0822 74.955C28.7639 74.6636 34.4475 74.4001 40.1325 74.1782C43.3882 74.0511 46.6484 74.0447 49.9057 73.9502C50.6417 73.9288 51.3863 73.8211 52.104 73.6542C52.8416 73.4826 53.0917 73.0758 53.083 72.3263C53.0803 72.091 53.06 71.8533 53.0202 71.6215C52.8062 70.3751 52.5294 69.1369 52.3754 67.8833C52.0774 65.4555 51.8264 63.0214 51.5943 60.5863C51.378 58.319 51.2079 56.0472 51.0259 53.7768C50.9829 53.2405 50.785 53.0495 50.2477 53.1084C49.7791 53.1598 49.3133 53.2649 48.8442 53.2788C47.3423 53.3232 45.8391 53.3245 44.3368 53.3636C39.8646 53.4802 35.3908 53.5612 30.9211 53.7414C25.6758 53.9529 20.4335 54.2435 15.1909 54.5203C12.0557 54.6859 8.92196 54.8804 5.789 55.0848C4.92352 55.1413 4.90052 55.2154 4.92221 56.0776C5.05171 61.24 5.17827 66.4026 5.30585 71.5653ZM5.58046 95.7953C5.89276 95.7953 6.14436 95.7958 6.39597 95.7952C13.6727 95.7794 20.9497 95.7226 28.2262 95.7607C33.8811 95.7903 39.5356 95.9285 45.1898 96.0373C48.1767 96.0947 51.1623 96.2274 54.1492 96.2577C55.7692 96.2741 56.0746 95.7945 55.8629 94.1899C55.4151 90.7968 55.0182 87.3971 54.5903 84.0013C54.2318 81.1567 53.8725 78.312 53.4851 75.4711C53.3509 74.4868 53.2361 74.4392 52.2211 74.4963C46.323 74.8275 40.4227 75.1231 34.5274 75.498C31.0586 75.7186 27.5979 76.0669 24.1332 76.3514C23.0436 76.4409 21.9523 76.51 20.8618 76.5883C20.5314 76.612 20.1973 76.6123 19.871 76.6624C18.9586 76.8029 18.0538 77.0043 17.1375 77.1021C16.5528 77.1645 15.9988 76.9314 15.3486 77.0335C14.5754 77.1549 13.7608 77.2228 12.9622 77.3034C10.797 77.5219 8.62769 77.6996 6.46072 77.9016C5.61177 77.9807 5.36361 78.2656 5.33908 79.1364C5.31061 80.1473 5.25113 81.1584 5.25913 82.169C5.28548 85.5102 5.32287 88.8514 5.38448 92.1919C5.40596 93.3692 5.50993 94.5451 5.58046 95.7953ZM59.6006 23.125C59.6733 24.0877 59.6898 24.9018 59.8066 25.7012C59.9498 26.6816 60.1129 27.668 60.3857 28.618C60.6545 29.5542 61.2585 30.2888 62.1736 30.7106C62.6689 30.939 62.9507 30.7878 62.9326 30.2534C62.9036 29.3947 62.8199 28.5377 62.7485 27.6808C62.6437 26.4216 62.5173 25.1639 62.4248 23.9038C62.3827 23.3315 62.687 22.927 63.206 22.7245C63.7334 22.5188 64.1932 22.6928 64.5915 23.077C65.489 23.9426 66.4044 24.7901 67.2885 25.6692C67.7532 26.1311 68.1877 26.6278 68.5962 27.1404C68.8082 27.4064 68.9311 27.7473 68.6519 28.0665C68.3951 28.3599 67.8685 28.4134 67.5 28.2016C66.8567 27.8319 66.2233 27.443 65.5663 27.099C64.9747 26.7891 64.8641 26.8953 64.8319 27.5735C64.7848 28.5642 64.7681 29.5654 64.6034 30.5393C64.3877 31.8147 63.2823 32.5106 62.0085 32.2777C60.576 32.0159 59.6382 31.1237 59.0596 29.8392C58.7767 29.2113 58.6093 28.5323 58.3432 27.8958C58.1139 27.3474 57.923 27.3306 57.5073 27.7452C56.2636 28.9852 55.0149 30.2202 53.7791 31.468C51.8162 33.4499 49.9342 35.5021 48.4152 37.8562C47.6023 39.116 47.005 40.4672 46.7995 41.9665C46.7235 42.5209 46.8972 42.695 47.4487 42.5691C47.8036 42.4881 48.1621 42.3472 48.4704 42.1553C49.0852 41.7727 49.7002 41.3771 50.256 40.9159C53.0986 38.5569 56.2727 36.6884 59.4001 34.7583C60.6407 33.9926 61.9929 33.3868 63.343 32.8253C64.8446 32.201 66.4264 31.826 68.0759 31.9067C69.1254 31.9581 69.6803 32.4474 69.9071 33.4663C69.984 33.8119 70.0318 34.1642 70.1151 34.508C70.2093 34.8975 70.4115 35.1157 70.8675 35.1864C71.5094 35.2861 72.1516 35.4727 72.7532 35.7205C73.4188 35.9947 73.6748 36.573 73.6055 37.2901C73.5795 37.5586 73.5447 37.8283 73.5473 38.0972C73.5512 38.4945 73.735 38.7183 74.1709 38.7157C74.4896 38.7138 74.8145 38.7424 75.1264 38.8072C76.2123 39.0325 77.2072 39.3835 77.6445 40.5665C77.7993 40.985 78.1404 41.0674 78.5649 40.8039C79.6104 40.1552 80.6631 39.5122 81.6636 38.798C82.8054 37.9829 83.1437 36.8366 82.7971 35.4866C82.7093 35.1443 82.5966 34.8083 82.4987 34.4685C82.2609 33.6431 81.9664 32.8285 81.803 31.9886C81.5897 30.8918 81.8442 29.9898 82.8565 29.2634C85.0527 27.6873 87.1173 25.947 88.8786 23.8694C89.3532 23.3096 89.4005 22.7468 89.0423 22.2096C88.646 21.6152 88.173 21.0386 87.6245 20.5865C86.689 19.8152 85.6467 19.175 84.6911 18.4262C84.005 17.8887 83.3408 17.307 82.7481 16.6694C81.3205 15.1338 79.9168 13.5839 78.0643 12.5279C77.6887 12.3138 77.446 12.3412 77.1432 12.6555C74.7771 15.1117 72.4058 17.5632 70.0059 19.9863C69.7199 20.275 69.2579 20.5312 68.8684 20.5451C68.123 20.5716 67.3553 20.4823 66.6255 20.3157C65.3622 20.0274 64.1338 19.58 62.8667 19.315C61.2036 18.9672 60.1998 19.6545 59.8291 21.3189C59.6872 21.9565 59.6616 22.6199 59.6006 23.125ZM59.7757 38.6864C59.5355 40.1667 60.3464 40.4968 61.543 40.3241C61.6427 40.3097 61.7415 40.2873 61.8396 40.2641C64.5631 39.6193 66.6025 38.0499 68.0191 35.6578C68.1951 35.3606 68.3268 35.0133 68.3818 34.6736C68.4749 34.0994 68.106 33.7327 67.5258 33.769C67.1901 33.79 66.8543 33.8346 66.5228 33.893C64.7292 34.2095 63.113 35.0294 61.4331 35.6741C60.343 36.0925 59.8604 36.8762 59.7781 37.9787C59.7607 38.2134 59.7757 38.4505 59.7757 38.6864ZM64.5067 43.5624C64.5067 43.8486 64.4865 44.1366 64.5109 44.4208C64.5647 45.0488 64.9019 45.2759 65.5151 45.1023C65.724 45.0431 65.9476 44.9786 66.1188 44.8538C66.8664 44.3089 67.6279 43.7763 68.3268 43.1726C69.3199 42.3149 70.1633 41.3147 70.5574 40.0364C70.7428 39.435 70.86 38.785 70.8521 38.159C70.8439 37.5078 70.371 37.2332 69.7979 37.5278C69.2367 37.8164 68.5759 38.1402 68.2656 38.6393C67.667 39.6019 66.8288 40.2303 65.9396 40.8425C64.9863 41.4988 64.2306 42.257 64.5067 43.5624ZM75.6361 43.0376C75.6345 42.498 75.564 41.9723 75.0516 41.6645C74.5332 41.3532 73.9933 41.0771 73.4562 40.7985C73.1831 40.657 72.8929 40.6592 72.7856 40.9928C72.4736 41.963 71.7508 42.637 71.1353 43.3934C70.7219 43.9015 70.3004 44.4158 69.9777 44.9815C69.6287 45.5933 69.7577 46.0405 70.2594 46.5289C70.7396 46.9965 71.3386 47.1009 71.8981 46.8278C72.8003 46.3875 73.6948 45.9017 74.5072 45.3165C75.2442 44.7858 75.6321 43.9827 75.6361 43.0376Z" fill="#2017CC"/>
<path d="M93.1334 55.447C92.9487 55.9262 92.7951 56.4255 92.5673 56.8881C92.3222 57.3859 92.0284 57.8637 91.7163 58.3234C91.4752 58.6784 91.5512 58.9358 91.8885 59.1162C92.4521 59.4178 93.0265 59.7019 93.6098 59.9637C94.7779 60.4877 95.9594 60.9823 97.1252 61.5112C97.3807 61.6271 97.617 61.8118 97.8222 62.0069C98.219 62.3841 98.1118 62.881 97.5732 62.9942C97.1934 63.0739 96.7483 63.0723 96.3838 62.9517C95.4425 62.6401 94.5271 62.2485 93.606 61.8773C92.7786 61.5438 91.9704 61.1554 91.1256 60.8766C90.8622 60.7896 90.4305 60.8857 90.21 61.0639C89.7702 61.4193 89.3699 61.8528 89.0478 62.3192C88.0125 63.8183 87.0304 65.3541 86.0038 66.8594C85.7695 67.2029 85.4649 67.5119 85.1455 67.7807C84.7136 68.1438 84.3539 68.0663 84.0441 67.597C83.7364 67.1307 83.7417 66.6076 83.9661 66.1427C84.3452 65.3571 84.7644 64.5844 85.2392 63.8533C85.8269 62.9484 86.4887 62.0917 87.1177 61.2136C87.1569 61.1589 87.1888 61.099 87.2238 61.0412C87.9188 59.8951 87.8036 59.4875 86.5486 58.9886C85.4371 58.5465 84.2945 58.1837 83.1777 57.7543C82.4871 57.4888 81.8085 57.1855 81.1458 56.8564C80.8613 56.7152 80.4654 56.5247 80.6059 56.1142C80.7502 55.6927 81.1516 55.6881 81.5481 55.7487C83.493 56.0461 85.3929 56.5205 87.1498 57.4147C88.3557 58.0284 89.3406 57.8569 90.2446 56.8951C90.73 56.3786 91.234 55.8793 91.7325 55.3751C91.8746 55.2314 92.0062 55.0555 92.18 54.971C92.3769 54.8753 92.649 54.7787 92.8258 54.8463C92.9675 54.9008 93.0162 55.1994 93.1334 55.447Z" fill="#2017CC"/>
<path d="M81.8538 48.8186C81.9979 48.6113 82.1004 48.3475 82.2929 48.2063C83.298 47.4694 84.3066 46.7339 85.3514 46.0557C86.4104 45.3682 87.5267 44.7689 88.5851 44.0805C88.7893 43.9478 88.9706 43.5652 88.9385 43.3283C88.8699 42.821 88.6723 42.3271 88.4954 41.8394C88.2833 41.2545 88.0155 40.6894 87.8171 40.1003C87.7345 39.8552 87.6858 39.5386 87.7726 39.3125C87.8709 39.0566 88.1043 38.7948 88.3475 38.677C88.4674 38.619 88.8108 38.8309 88.9327 39.005C89.279 39.4998 89.5599 40.0402 89.8734 40.5584C90.1693 41.0476 90.4502 41.5484 90.7822 42.0123C91.0517 42.389 91.4142 42.4229 91.8565 42.2286C93.5981 41.4632 95.3413 40.698 97.1114 40.003C97.6038 39.8098 98.1963 39.7842 98.7338 39.8194C99.209 39.8505 99.3085 40.2249 98.9589 40.5662C98.6864 40.8323 98.353 41.0487 98.0183 41.2362C96.3273 42.184 94.6259 43.1131 92.9305 44.0532C92.2658 44.4218 92.2437 44.5325 92.6462 45.1872C93.2906 46.2354 93.9805 47.2598 94.5578 48.3439C94.9073 49.0003 95.136 49.7375 95.3055 50.4649C95.372 50.7503 95.1288 51.1079 95.0265 51.4326C94.7196 51.3167 94.332 51.2806 94.1218 51.0687C93.6277 50.5706 93.1735 50.0183 92.7846 49.4337C92.0852 48.3827 91.4466 47.2913 90.7806 46.218C90.4707 45.7184 90.0739 45.6179 89.4734 45.9492C88.3679 46.5592 87.2779 47.1974 86.1822 47.8249C85.3198 48.3188 84.4642 48.8248 83.5928 49.3025C83.3461 49.4378 83.0604 49.5159 82.7833 49.5792C82.1841 49.7159 81.9155 49.4834 81.8538 48.8186Z" fill="#2017CC"/>
<path d="M17.4609 18.3449C18.5105 16.5796 19.8247 15.2348 21.3066 14.0416C23.6565 12.1491 26.328 10.7618 28.8825 9.18667C32.5714 6.91209 36.198 4.53678 39.8577 2.21457C40.1049 2.05771 40.398 1.92557 40.6838 1.88727C41.193 1.81908 41.5548 2.17627 41.3908 2.65171C41.2349 3.10416 40.9756 3.61872 40.6035 3.88441C33.277 9.11614 25.4294 13.5197 17.7598 18.2067C17.7053 18.2399 17.6437 18.261 17.4609 18.3449Z" fill="#2017CC"/>
<path d="M31.067 16.6668C30.4088 16.6625 30.2165 16.3934 30.5108 15.968C30.8631 15.4588 31.2549 14.9562 31.7139 14.5444C35.5423 11.1104 39.751 8.24164 44.4445 6.11308C44.9314 5.89227 45.4628 5.75983 45.984 5.62851C46.2389 5.56437 46.5341 5.53822 46.7813 5.6049C46.9762 5.65739 47.1656 5.85509 47.272 6.03789C47.3061 6.09646 47.0956 6.35769 46.9493 6.45223C43.1104 8.93343 39.2623 11.4005 35.4225 13.8804C34.133 14.7132 32.864 15.5774 31.5798 16.4185C31.3896 16.5431 31.1674 16.6191 31.067 16.6668Z" fill="#2017CC"/>
<path d="M89.353 77.6184C90.5343 77.5984 90.6584 77.6778 90.9003 78.3842C91.0913 78.942 90.8921 79.3345 90.3095 79.3258C89.5755 79.3148 88.8355 79.2146 88.1131 79.0749C87.5719 78.9703 87.0509 78.7521 86.5272 78.5668C85.889 78.3408 85.565 78.4429 85.3652 79.0983C85.155 79.7878 85.0444 80.5081 84.8985 81.2167C84.7593 81.893 84.6355 82.5725 84.4937 83.2483C84.4596 83.4111 84.3925 83.5698 84.3216 83.7216C84.1495 84.0893 83.9197 84.4014 83.4574 84.3804C82.9856 84.359 82.5296 84.0016 82.4795 83.5022C82.4263 82.9737 82.4299 82.4202 82.5272 81.8997C82.747 80.7251 83.079 79.5712 83.2908 78.3954C83.4693 77.4048 83.2636 77.1659 82.285 76.8654C81.7873 76.7126 81.2861 76.5606 80.8096 76.3547C80.6403 76.2815 80.3994 75.991 80.4364 75.903C80.5141 75.7182 80.7353 75.5234 80.9324 75.4752C81.2505 75.3976 81.5981 75.4112 81.9305 75.4308C82.266 75.4505 82.5971 75.5334 82.9319 75.5731C83.9918 75.6991 84.1102 75.617 84.5133 74.6191C84.6738 74.2216 84.7917 73.7079 85.3703 73.7833C85.9533 73.8593 85.9852 74.3759 86.0427 74.8306C86.0635 74.9964 86.0593 75.1676 86.0469 75.3349C85.9847 76.1735 86.1628 76.5087 86.9547 76.8043C87.8457 77.1368 88.756 77.4176 89.353 77.6184Z" fill="#2017CC"/>
<path d="M91.9119 73.1649C92.2097 73.2324 92.6674 73.3448 93.1288 73.4387C94.0558 73.6275 94.3066 73.4469 94.4966 72.5362C94.5609 72.2276 94.663 71.914 94.8141 71.6392C95.0995 71.1207 95.5221 71.0777 95.8293 71.5733C96.0705 71.9627 96.1955 72.4308 96.3327 72.876C96.4313 73.1959 96.4589 73.5371 96.529 73.8665C96.6596 74.4815 96.9869 74.9147 97.5852 75.186C97.9907 75.3698 98.3786 75.6465 98.6896 75.9645C98.8826 76.1619 99.0815 76.6098 98.9853 76.7746C98.8361 77.0305 98.4428 77.1513 98.1407 77.3055C98.0659 77.3438 97.9423 77.2992 97.8443 77.2782C97.0935 77.1166 96.8226 77.4048 96.8752 78.19C96.9176 78.8227 96.903 79.467 96.83 80.0965C96.7814 80.5168 96.6851 81.0534 96.1757 81.1345C95.6579 81.217 95.4717 80.7045 95.2371 80.3424C94.7681 79.6186 94.7342 78.7859 94.6412 77.9665C94.586 77.4811 94.4844 76.9999 94.4495 76.5135C94.3993 75.8127 93.9986 75.4096 93.3879 75.1761C92.9953 75.0262 92.5867 74.9192 92.1897 74.7801C91.9045 74.6803 91.5858 74.6116 91.3571 74.433C91.1349 74.2595 90.8554 73.9525 90.872 73.7239C90.9049 73.2738 91.3135 73.1387 91.9119 73.1649Z" fill="#2017CC"/>
<path d="M63.9291 11.1624C63.5856 11.0518 63.2752 10.9726 62.9805 10.854C59.3533 9.39525 56.2044 7.19272 53.2986 4.61353C52.6805 4.06493 52.0504 3.52929 51.4476 2.96447C51.3097 2.83527 51.2619 2.61011 51.1726 2.42903C51.3844 2.41059 51.6169 2.32557 51.8048 2.38394C53.4197 2.88594 54.8339 3.77289 56.1717 4.77739C58.3435 6.40821 60.5494 7.98168 62.9228 9.31449C63.4106 9.58839 63.815 10.0223 64.2238 10.4178C64.328 10.5187 64.3625 10.7741 64.3154 10.9223C64.2801 11.0333 64.0621 11.0859 63.9291 11.1624Z" fill="#2017CC"/>
<path d="M8.63719 28.0273C10.8407 28.19 12.775 28.2678 14.5841 28.9827C15.369 29.2929 16.0734 29.8101 16.8056 30.2477C16.9294 30.3217 17.0413 30.4548 17.1016 30.5868C17.1872 30.7738 17.3199 31.0407 17.2475 31.1705C17.1725 31.305 16.8661 31.3943 16.6801 31.3679C16.0315 31.2761 15.3956 31.0948 14.7471 31.0031C12.4962 30.6849 10.2376 30.4178 7.99191 30.0668C7.41615 29.9769 6.86339 29.6787 6.32917 29.417C6.15366 29.331 5.94168 29.028 5.97643 28.8775C6.02041 28.6876 6.2784 28.4559 6.48167 28.4106C7.2828 28.2316 8.09851 28.1187 8.63719 28.0273Z" fill="#2017CC"/>
<path d="M73.4114 85.3761C73.5827 85.4903 73.9368 85.6278 74.1466 85.8837C74.9044 86.8075 75.7119 87.7128 76.3177 88.7336C77.1749 90.1783 77.8827 91.7131 78.6239 93.2244C78.783 93.5489 78.8484 93.9333 78.8898 94.2977C78.932 94.6697 78.7129 94.8145 78.3898 94.6244C78.0449 94.4215 77.6662 94.202 77.4353 93.891C75.9987 91.955 74.5733 90.0091 73.2054 88.0244C72.8532 87.5136 72.6648 86.8662 72.5039 86.2546C72.3602 85.7085 72.7081 85.3585 73.4114 85.3761Z" fill="#2017CC"/>
<path d="M67.1934 90.0547C66.6175 90.2294 66.1519 90.0627 65.8149 89.6939C65.3406 89.175 64.8917 88.6186 64.519 88.0236C63.5888 86.5385 62.6895 85.0331 61.8191 83.5121C61.5933 83.1173 61.4596 82.6443 61.3924 82.1912C61.3171 81.6836 61.7085 81.4663 62.1376 81.3163C62.5552 81.1702 62.7587 81.4121 62.9644 81.7052C64.5156 83.9157 65.587 86.3745 66.6621 88.8317C66.8356 89.2282 67.0071 89.6256 67.1934 90.0547Z" fill="#2017CC"/>
<path d="M16.3136 38.4633C15.8447 38.5056 15.371 38.6125 14.9076 38.579C12.9592 38.4382 11.01 38.2891 9.06874 38.074C8.08654 37.9651 7.11741 37.7242 6.14949 37.5105C5.87843 37.4506 5.59399 37.3194 5.38798 37.1385C5.22373 36.9943 5.05694 36.699 5.09848 36.5184C5.13841 36.3451 5.44179 36.119 5.63452 36.114C6.42319 36.0937 7.22076 36.092 8.00253 36.1871C10.4456 36.4842 12.8573 36.9527 15.2049 37.7071C15.5996 37.8339 15.9677 38.0438 16.3481 38.2152C16.3366 38.2979 16.3252 38.3806 16.3136 38.4633Z" fill="#2017CC"/>
<path d="M44.5043 13.8383C43.781 13.8509 43.5245 13.4552 43.9014 12.9571C44.3338 12.3855 44.8384 11.851 45.3847 11.3864C46.5181 10.4231 47.7573 9.60798 49.1658 9.09221C49.476 8.97862 49.8187 8.91001 50.1471 8.90748C50.3276 8.90606 50.6107 9.04793 50.6648 9.19334C50.7313 9.37178 50.6588 9.65287 50.5504 9.83112C50.4449 10.0046 50.2012 10.0874 50.0483 10.2401C49.7852 10.5027 49.545 10.7885 49.296 11.0654C49.2516 11.115 49.22 11.1804 49.1677 11.218C47.9669 12.0824 46.8292 13.0499 45.417 13.5748C45.0875 13.6973 44.7401 13.7713 44.5043 13.8383Z" fill="#2017CC"/>
<path d="M72.4779 52.7579C72.9821 52.8485 73.3416 52.8753 73.6755 52.9822C74.1174 53.1238 74.3893 52.9596 74.5986 52.5973C74.7335 52.3637 74.8328 52.0983 75.0102 51.9038C75.1477 51.7531 75.4415 51.5623 75.5587 51.6174C75.7458 51.7052 75.9242 51.9694 75.9593 52.183C76.0034 52.4523 75.9023 52.7463 75.8591 53.0289C75.802 53.4024 75.9413 53.604 76.3111 53.7518C76.6748 53.8971 77.0147 54.1402 77.3089 54.4032C77.4356 54.5164 77.5193 54.8472 77.4442 54.9713C77.3597 55.1112 77.0774 55.1418 76.8744 55.1942C76.8046 55.2122 76.7158 55.1476 76.6339 55.1295C75.7325 54.9313 75.2198 55.201 74.8919 56.0719C74.7496 56.4497 74.6664 56.8497 74.5228 57.2269C74.3692 57.6305 74.0595 57.7177 73.803 57.3779C73.613 57.1261 73.5127 56.7474 73.5143 56.4259C73.5161 56.0482 73.6816 55.6733 73.7575 55.2935C73.851 54.8253 73.6631 54.5084 73.2086 54.3504C72.9223 54.2509 72.6329 54.157 72.3549 54.0377C72.0279 53.8972 71.6908 53.6599 71.8414 53.289C71.9427 53.0397 72.3028 52.8952 72.4779 52.7579Z" fill="#2017CC"/>
<path d="M27.8897 38.6021C25.9509 38.4086 23.9807 38.0022 22.1324 37.1363C21.8593 37.0083 21.6708 36.6998 21.4431 36.4747C21.7166 36.3111 21.9822 36.026 22.2652 36.0075C22.9938 35.9597 23.7423 35.9543 24.4603 36.0711C25.5177 36.2431 26.5593 36.5212 27.5994 36.7866C27.8851 36.8596 28.1553 37.0268 28.4078 37.1891C28.7705 37.4221 29.0091 37.7339 28.8562 38.2066C28.7069 38.6683 28.3156 38.574 27.8897 38.6021Z" fill="#2017CC"/>
<path d="M65.738 7.41047C65.7508 7.96435 65.5209 8.16144 65.1381 8.07592C64.7657 7.99272 64.3905 7.86059 64.057 7.67647C62.6443 6.89652 61.406 5.89071 60.3592 4.66146C60.123 4.38401 59.9288 4.05712 59.7821 3.72354C59.7168 3.57519 59.7524 3.26623 59.8586 3.1877C59.9946 3.08707 60.3038 3.05921 60.4423 3.14868C61.6541 3.93137 62.8667 4.71709 64.0315 5.56685C64.5696 5.95951 65.0117 6.48765 65.4775 6.97343C65.6181 7.12036 65.6922 7.33103 65.738 7.41047Z" fill="#2017CC"/>
<path d="M73.8436 62.1632C73.8349 61.4269 74.6118 60.667 75.319 60.6939C75.4634 60.6994 75.6156 60.6076 75.7577 60.5456C76.4268 60.254 76.9548 60.0998 77.0948 61.0281C77.1383 61.3162 77.2795 61.6077 77.4405 61.8559C77.723 62.2913 77.6507 62.6862 77.3897 63.0771C77.129 63.4674 76.7887 63.5599 76.3368 63.3803C76.1746 63.3157 75.9348 63.3648 75.7576 63.4328C74.7951 63.8023 73.8556 63.1875 73.8436 62.1632Z" fill="#2017CC"/>
<path d="M27.7697 21.5071C26.9158 21.3729 26.2812 21.2988 25.6607 21.1606C25.4635 21.1166 25.3044 20.9019 25.1279 20.7653C25.2612 20.6042 25.3618 20.3772 25.5328 20.2923C26.9203 19.6038 28.3745 19.4069 29.89 19.7849C29.9863 19.8089 30.1059 19.8389 30.1613 19.9085C30.3421 20.1364 30.6209 20.3828 30.6233 20.6243C30.6251 20.8015 30.2754 21.0912 30.0414 21.1418C29.2271 21.3182 28.3951 21.4122 27.7697 21.5071Z" fill="#2017CC"/>
<path d="M43.8709 47.6348C44.1871 47.3467 44.5326 47.4304 44.8584 47.5765C45.3951 47.8172 45.89 47.867 46.3446 47.4082C46.4232 47.3289 46.5504 47.2525 46.6549 47.2527C46.9249 47.253 47.1948 47.2969 47.4648 47.3233C47.3807 47.5566 47.3031 47.7926 47.2086 48.0216C47.178 48.0957 47.102 48.1506 47.0485 48.2158C46.6559 48.6947 46.6735 48.854 47.1701 49.2443C47.3556 49.39 47.5916 49.4955 47.724 49.6777C47.8532 49.8558 47.8793 50.1085 47.9507 50.3285C47.7188 50.336 47.4524 50.42 47.2629 50.3341C46.9311 50.1836 46.6345 49.944 46.3452 49.714C45.9609 49.4087 45.631 49.4696 45.2523 49.7447C44.9616 49.9559 44.6205 50.1154 44.279 50.2301C44.1434 50.2756 43.8786 50.1848 43.7995 50.0692C43.7391 49.9808 43.8374 49.7241 43.9358 49.5968C44.7446 48.55 44.7497 48.5539 43.8709 47.6348Z" fill="#2017CC"/>
<path d="M36.8636 25.1065C36.2124 24.9844 35.5836 24.8807 34.9636 24.7392C34.8234 24.7071 34.6076 24.5355 34.6142 24.4412C34.6245 24.2936 34.7635 24.0961 34.9019 24.0257C36.1305 23.4002 37.4242 23.2348 38.7715 23.551C38.8673 23.5735 38.9801 23.6098 39.0412 23.6786C39.2101 23.8689 39.4558 24.0715 39.4736 24.2857C39.4845 24.4163 39.1504 24.6578 38.9372 24.71C38.2544 24.8774 37.5556 24.9794 36.8636 25.1065Z" fill="#2017CC"/>
<path d="M41.8316 20.8004C44.1029 19.8491 48.364 19.5879 49.2224 20.4522C48.9284 20.5649 48.6888 20.7164 48.4358 20.7438C47.0446 20.8937 45.6523 21.0584 44.2559 21.1262C43.4463 21.1655 42.6282 21.0324 41.814 20.9769C41.8198 20.918 41.8257 20.8592 41.8316 20.8004Z" fill="#2017CC"/>
<path d="M10.9065 50.537C10.9104 49.7694 11.4156 49.3165 12.2599 49.3236C13.0789 49.3305 13.723 49.88 13.7105 50.561C13.6988 51.191 12.9636 51.7416 12.1274 51.7468C11.3415 51.7516 10.9027 51.3167 10.9065 50.537Z" fill="#2017CC"/>
<path d="M93.0977 85.2039C93.0424 84.2068 93.1057 84.1463 94.1938 84.2889C94.4728 84.3255 94.8531 84.2258 94.9249 84.651C95.0035 85.1154 95.0827 85.5962 94.5549 85.8925C94.1165 86.1386 93.6911 86.4089 93.2451 86.6394C93.1379 86.6947 92.937 86.6841 92.8395 86.6167C92.6806 86.5068 92.5162 86.3448 92.4537 86.1693C92.3633 85.9154 92.2745 85.5979 92.3575 85.3706C92.4017 85.2495 92.8089 85.2611 93.0977 85.2039Z" fill="#2017CC"/>
<path d="M43.3044 26.0215C43.4668 26.0394 43.75 26.0251 43.9955 26.1144C44.1534 26.1719 44.3266 26.3667 44.3608 26.5279C44.3884 26.6577 44.2567 26.9049 44.1289 26.9709C43.1776 27.4622 42.1506 27.648 41.0936 27.518C40.5577 27.4522 40.4689 27.0402 40.8539 26.6442C41.3451 26.1387 42.0245 26.1848 42.6416 26.0557C42.821 26.0183 43.0115 26.0347 43.3044 26.0215Z" fill="#2017CC"/>
<path d="M9.21415 50.3535C9.18486 50.4564 9.14393 50.6908 9.05273 50.9036C8.7919 51.5123 8.30622 51.8319 7.86837 51.7094C7.36546 51.5687 6.95406 50.9915 6.99388 50.4826C7.0415 49.8744 7.54016 49.3704 8.13619 49.3281C8.9062 49.2732 9.23573 49.546 9.21415 50.3535Z" fill="#2017CC"/>
<path d="M68.9566 6.35278C67.9691 6.08588 67.2251 5.54548 66.758 4.67788C66.6534 4.48373 66.6529 4.06675 66.782 3.95174C66.9866 3.76954 67.3706 3.63143 67.6266 3.69274C68.5025 3.90259 69.235 5.37585 68.9566 6.35278Z" fill="#2017CC"/>
<path d="M54.6149 10.7886C54.9169 10.9649 55.2194 11.0392 55.2969 11.2135C55.3881 11.4186 55.3647 11.7567 55.25 11.956C54.8906 12.5808 54.3093 12.9556 53.6155 13.1364C53.2809 13.2237 53.0765 13.1113 53.0359 12.7194C52.9913 12.2891 52.8306 11.8281 53.2685 11.5308C53.6839 11.2488 54.1496 11.0409 54.6149 10.7886Z" fill="#2017CC"/>
<path d="M66.8808 14.1645C66.0404 14.8407 65.2166 15.102 64.2852 14.9646C63.8589 14.9017 63.649 14.5764 63.6243 14.1822C63.5993 13.7834 63.9512 13.695 64.2476 13.6558C65.1328 13.5386 65.9547 13.7723 66.8808 14.1645Z" fill="#2017CC"/>
<path d="M28.2045 27.1123C28.4543 27.1468 28.7084 27.1635 28.952 27.2233C29.0683 27.2518 29.252 27.3643 29.2504 27.4353C29.2475 27.5601 29.1556 27.7262 29.0491 27.7985C28.3747 28.2565 27.6184 28.4841 26.8057 28.4369C26.6374 28.4271 26.4039 28.2307 26.3444 28.0677C26.2953 27.9333 26.4095 27.6619 26.5378 27.554C27.0148 27.1528 27.5905 27.0506 28.2045 27.1123Z" fill="#2017CC"/>
<path d="M17.1099 50.2226C17.123 50.6972 16.6289 51.1576 16.1039 51.1597C15.6348 51.1616 15.3093 50.8024 15.2823 50.2529C15.2553 49.7015 15.6532 49.2431 16.1718 49.2283C16.6663 49.2143 17.0946 49.6682 17.1099 50.2226Z" fill="#2017CC"/>
<path d="M38.9945 59.3596C38.9852 59.208 38.9721 59.0565 38.9673 58.9047C38.9194 57.3761 39.7487 56.4247 41.278 56.3475C43.1169 56.2546 44.7349 56.8565 46.0915 58.0971C46.7952 58.7406 47.256 59.5422 47.3104 60.5242C47.4163 62.4352 46.024 63.9059 44.105 63.9262C43.0873 63.937 42.0744 63.919 41.1463 63.4201C39.7118 62.6488 38.9552 61.465 38.9753 59.8153C38.9771 59.6635 38.9755 59.5116 38.9755 59.3599C38.9819 59.3596 38.9882 59.3596 38.9945 59.3596ZM43.0861 61.9647C43.3527 61.9407 43.5721 61.9311 43.7883 61.8997C44.761 61.7583 45.1159 61.127 44.5404 60.3419C44.0536 59.6777 43.4054 59.1176 42.7689 58.5821C42.3429 58.2237 41.7923 57.9538 41.2424 58.3576C40.6883 58.7645 40.7992 59.3588 40.9239 59.9314C40.9275 59.9478 40.9295 59.9647 40.9338 59.9809C41.2535 61.1515 42.1877 61.9926 43.0861 61.9647Z" fill="#2017CC"/>
<path d="M48.1924 89.7956C45.7341 90.1093 43.2785 90.447 40.8159 90.7222C40.0704 90.8055 39.2965 90.786 38.5517 90.6896C37.4254 90.5435 36.6761 89.842 36.3718 88.7623C36.1631 88.0215 36.0269 87.2455 35.9777 86.4776C35.8869 85.0633 35.8823 83.6434 35.8457 82.2258C35.84 82.0067 35.8452 81.7863 35.8618 81.5677C35.9987 79.7625 36.7871 78.9666 38.5875 78.8079C39.8819 78.6937 41.1748 78.51 42.4709 78.4844C43.5067 78.4639 44.55 78.6053 45.582 78.7374C45.9311 78.7821 46.2477 79.0416 46.5937 79.1602C46.9221 79.2728 47.2786 79.4219 47.6071 79.3905C48.2281 79.3312 48.6562 79.5937 48.8938 80.0874C49.2864 80.9027 49.6677 81.7379 49.919 82.6037C50.4618 84.4734 50.7404 86.3942 50.7363 88.3465C50.7332 89.7742 50.5431 89.9452 49.118 89.9154C48.8143 89.909 48.5104 89.9145 48.2066 89.9145C48.2019 89.8749 48.1972 89.8352 48.1924 89.7956ZM38.2227 85.1839C38.2705 85.1863 38.3183 85.1885 38.3661 85.1908C38.3661 85.8153 38.3503 86.4403 38.3712 87.064C38.3874 87.5477 38.4072 88.0383 38.5031 88.51C38.5985 88.9789 38.9432 89.2135 39.4382 89.175C40.1113 89.1226 40.784 89.0665 41.4567 89.0106C43.2376 88.8625 45.0174 88.6991 46.7999 88.5737C47.3359 88.536 47.8792 88.62 48.419 88.6178C49.2278 88.6147 49.4707 88.3458 49.3296 87.5561C49.2351 87.0281 49.0503 86.5166 48.9181 85.9947C48.6077 84.7697 48.3647 83.5238 47.9856 82.3207C47.2778 80.074 46.3281 79.5347 43.99 79.8919C42.506 80.1186 41.0202 80.3348 39.5327 80.5373C38.7965 80.6375 38.5851 80.7297 38.4996 81.4582C38.3545 82.6938 38.3097 83.9413 38.2227 85.1839Z" fill="#2017CC"/>
<path d="M30.436 82.1531C30.3448 82.3385 30.2888 82.6505 30.1375 82.7071C29.9703 82.7696 29.6863 82.6403 29.5072 82.5166C29.3211 82.3881 29.1633 82.1851 29.0572 81.9813C28.8295 81.5438 28.5141 81.5623 28.1809 81.7921C27.8773 82.0013 27.6084 82.2614 27.3282 82.5038C27.1242 82.6803 26.9335 82.8729 26.7249 83.0437C25.709 83.8762 24.9465 83.7701 24.171 82.6941C24.0134 82.4754 23.8743 82.2403 23.696 82.0401C23.3947 81.7016 23.1528 81.7287 22.8718 82.0864C22.487 82.5763 22.1353 83.1008 21.6975 83.5385C20.6311 84.6043 19.6882 84.5787 18.6428 83.5007C18.2791 83.1256 17.953 82.7139 17.5905 82.3373C17.0227 81.7476 16.6975 81.7526 16.1981 82.4072C15.8208 82.9019 15.5211 83.4552 15.1563 83.9603C14.9316 84.2715 14.6799 84.5805 14.38 84.8128C14.2355 84.9248 13.8871 84.9488 13.7474 84.8492C13.5596 84.7153 13.3409 84.3912 13.3829 84.2043C13.8006 82.3454 14.6124 80.7389 16.4417 79.8709C17.121 79.5486 17.5136 79.6203 18.0155 80.1897C18.3373 80.5549 18.5977 80.9738 18.8919 81.3639C19.0641 81.5923 19.2291 81.831 19.4308 82.0314C19.9345 82.5321 20.3891 82.4779 20.831 81.9253C21.2939 81.3464 21.7742 80.7807 22.2656 80.2258C22.4308 80.0393 22.6421 79.8861 22.8525 79.7486C23.471 79.3446 23.9033 79.4295 24.3107 80.0399C24.535 80.3759 24.7102 80.7449 24.9381 81.078C25.3365 81.6598 25.7597 81.6926 26.2767 81.2166C26.8222 80.7144 27.347 80.1846 27.9316 79.7326C28.2076 79.5192 28.6084 79.3458 28.9414 79.3636C29.2384 79.3794 29.676 79.62 29.7786 79.8724C30.0678 80.5828 30.2162 81.3502 30.436 82.1531Z" fill="#2017CC"/>
<path d="M22.1932 88.539C20.1373 88.5789 18.0816 88.625 16.0255 88.6477C15.8477 88.6496 15.6684 88.4964 15.4897 88.4153C15.6294 88.2667 15.7476 88.0218 15.912 87.9854C16.8465 87.779 17.7855 87.5427 18.7351 87.4647C20.9688 87.2812 23.2088 87.1684 25.4476 87.0543C26.2673 87.0125 27.0915 87.0333 27.9129 87.0561C28.1925 87.0639 28.5136 87.0983 28.7349 87.2436C28.938 87.377 29.0324 87.6761 29.1746 87.9022C28.9697 88.0166 28.7695 88.2194 28.5591 88.2307C27.3812 88.2939 26.2005 88.3033 25.0212 88.3458C24.0778 88.3799 23.1351 88.4351 22.1921 88.4809C22.1925 88.5003 22.1929 88.5196 22.1932 88.539Z" fill="#2017CC"/>
<path d="M25.2849 91.0799C24.7695 91.2008 24.2594 91.356 23.7379 91.4365C21.7021 91.7509 19.6609 92.0252 17.5939 91.8061C17.4034 91.7859 17.2261 91.6415 17.0427 91.5549C17.2006 91.4198 17.3419 91.1986 17.5193 91.1641C18.3935 90.9946 19.274 90.7891 20.1584 90.7559C21.7051 90.6976 23.2563 90.7523 24.8055 90.7705C24.965 90.7724 25.1237 90.8479 25.2828 90.8892C25.2834 90.9529 25.2841 91.0164 25.2849 91.0799Z" fill="#2017CC"/>
<path d="M74.348 28.8376C74.4505 28.6664 74.6101 28.3334 74.8304 28.0472C75.1487 27.6336 75.5321 27.2698 75.85 26.8557C76.3394 26.2183 76.3279 25.8145 75.8668 25.1602C75.4199 24.5261 74.9863 23.8822 74.5235 23.2599C74.2667 22.9145 74.3582 22.6027 74.6006 22.3507C74.8678 22.0733 75.1467 22.2931 75.3533 22.4832C75.7623 22.8592 76.1383 23.2709 76.5356 23.6601C76.8001 23.9195 77.0705 24.174 77.3516 24.4151C77.6241 24.6486 77.9054 24.6657 78.2307 24.4677C78.5588 24.268 78.9111 24.0705 79.2787 23.988C79.4869 23.9411 79.7911 24.0736 79.9735 24.2218C80.2046 24.4096 80.1193 24.6694 79.9259 24.8853C79.8254 24.9976 79.746 25.1298 79.663 25.2567C79.1815 25.9919 79.1937 26.214 79.6945 26.9402C80.0523 27.4592 80.5262 27.9206 80.4519 28.6477C80.3926 29.2278 80.1401 29.4075 79.6751 29.0686C79.2992 28.7946 78.9734 28.4418 78.6629 28.0906C78.31 27.6913 77.9927 27.6213 77.6008 27.9913C77.3216 28.2547 77.1002 28.5805 76.8609 28.8847C76.6109 29.2027 76.3932 29.5493 76.1191 29.844C75.8572 30.1257 75.5487 30.418 75.109 30.2403C74.6704 30.063 74.3096 29.457 74.348 28.8376Z" fill="#2017CC"/>
<path d="M44.5862 87.1594C43.833 86.8959 43.0735 86.6484 42.331 86.3577C42.1439 86.2845 41.9521 86.0984 41.8719 85.9161C41.8088 85.7725 41.8694 85.5264 41.9619 85.3811C42.0146 85.2983 42.2728 85.2607 42.3849 85.3144C43.5098 85.8539 44.5783 85.8939 45.6044 85.0731C45.8485 84.8779 46.0298 84.9964 46.1047 85.3085C46.3646 86.3922 45.8282 87.0233 44.6338 87.0225C44.6178 87.0682 44.602 87.1138 44.5862 87.1594Z" fill="#2017CC"/>
<path d="M44.0303 82.5275C44.035 81.6517 44.564 81.2997 45.3075 81.7504C45.6895 81.982 46.013 82.3564 46.2726 82.7292C46.4858 83.0353 46.3396 83.3528 45.9716 83.4918C45.7383 83.58 45.4928 83.66 45.2468 83.6854C44.4584 83.7664 44.026 83.3435 44.0303 82.5275Z" fill="#2017CC"/>
<path d="M40.4166 82.7427C40.4229 82.259 40.651 82.0456 41.1453 82.0611C41.6618 82.0773 42.0483 82.3996 42.0531 82.8182C42.0583 83.2683 41.6845 83.6028 41.1822 83.5977C40.6813 83.5925 40.4095 83.289 40.4166 82.7427Z" fill="#2017CC"/>
</svg>
