<svg width="150" height="150" viewBox="0 0 150 150" fill="none" xmlns="http://www.w3.org/2000/svg">
<path fill-rule="evenodd" clip-rule="evenodd" d="M72.2828 0.228743C100.861 -1.99525 129.01 12.262 143.661 31.5065C156.593 48.4917 147.037 68.9981 138.874 87.6943C132.081 103.251 120.1 115.805 102.765 125.167C79.6511 137.65 53.5003 156.73 27.9235 147.616C2.22866 138.46 2.59361 110.593 0.295455 88.6538C-1.49828 71.5297 4.98361 55.8883 16.7954 41.3794C31.1851 23.704 45.5494 2.30918 72.2828 0.228743Z" fill="#2017CC"/>
<path d="M88.9175 20.1394C89.1389 20.2405 89.375 20.4509 89.5788 20.4228C90.27 20.3277 90.6735 20.738 91.0409 21.1846C91.7807 22.0841 92.0812 23.1748 92.2398 24.3026C92.3166 24.8481 92.0116 25.1503 91.4643 25.0683C91.0635 25.0081 90.6179 24.9135 90.3011 24.6831C89.1686 23.8593 88.4017 22.7509 88.0118 21.3894C87.8568 20.8489 87.972 20.4225 88.4809 20.1394C88.6264 20.1394 88.772 20.1394 88.9175 20.1394Z" fill="#FFCCD5"/>
<path d="M68.3929 129.304C67.6756 127.768 67.1925 126.166 67.1958 124.459C67.1967 124.01 67.3768 123.538 67.571 123.122C67.6756 122.898 67.9763 122.655 68.2041 122.639C68.3597 122.628 68.6333 122.968 68.6957 123.195C68.9076 123.965 69.138 124.748 69.1969 125.539C69.29 126.789 69.25 128.048 69.2663 129.304C68.9752 129.304 68.6841 129.304 68.3929 129.304Z" fill="#FFCCD5"/>
<path d="M20.1392 126.122C20.3433 125.661 20.4772 125.148 20.7714 124.755C21.0597 124.37 21.4863 124.067 21.9051 123.817C22.0383 123.738 22.4357 123.884 22.5401 124.042C22.6448 124.2 22.6256 124.576 22.5029 124.728C22.0232 125.321 21.4921 125.873 20.957 126.418C20.7387 126.641 20.4632 126.815 20.1392 126.561C20.1392 126.415 20.1392 126.268 20.1392 126.122Z" fill="#FFCCD5"/>
<path d="M128.766 33.1358C128.78 35.5083 128.038 37.686 126.848 39.6769C125.69 41.6146 124.369 43.4558 123.076 45.3088C122.733 45.8008 122.719 46.1489 123.081 46.6173C123.515 47.1772 123.882 47.7903 124.261 48.3914C124.91 49.4223 125.582 50.4411 126.177 51.5029C126.883 52.7611 127.156 54.1426 126.975 55.5759C126.612 58.4294 124.778 60.1022 121.934 60.4597C120.473 60.6433 119.075 60.4353 117.655 60.2442C117.529 60.2272 117.403 60.2045 117.277 60.1947C115.944 60.0922 115.809 60.1902 115.306 61.4183C114.504 63.3774 113.528 65.2296 111.866 66.6104C109.61 68.4842 107.027 68.5181 104.74 66.6825C103.15 65.4065 101.97 63.7952 101.138 61.9343C100.741 61.0459 100.215 60.8009 99.1971 61.0644C97.2175 61.5771 95.2102 61.8999 93.1585 61.8239C91.5156 61.7632 89.9255 61.4272 88.572 60.4497C86.6019 59.0268 85.9055 57.0061 86.1352 54.6354C86.3952 51.9518 87.5448 49.5959 88.8806 47.3161C89.1664 46.8285 89.472 46.3517 89.788 45.8832C90.1252 45.3834 90.1364 44.8745 89.7934 44.403C89.4625 43.9483 89.0608 43.546 88.6969 43.1148C87.2279 41.374 85.9657 39.5138 85.3857 37.2648C85.1087 36.1902 84.9989 35.1035 85.2521 34.0107C85.7912 31.6838 87.4145 30.5549 89.6165 30.124C91.818 29.6932 94.0023 30.0025 96.1709 30.4039C97.9175 30.7271 97.5984 30.7684 98.1449 29.2775C98.9586 27.0575 99.8871 24.8957 101.469 23.0977C102.564 21.8534 103.866 20.9976 105.617 21.2469C106.737 21.4063 107.715 21.9484 108.635 22.5824C110.176 23.644 111.348 25.0564 112.365 26.6114C112.534 26.871 112.708 27.1293 112.857 27.4005C113.079 27.8026 113.378 27.869 113.817 27.7683C115.675 27.3423 117.532 26.9029 119.406 26.5646C120.806 26.3119 122.229 26.3231 123.641 26.5869C126.83 27.1827 128.636 29.2736 128.765 32.5326C128.773 32.7334 128.766 32.9347 128.766 33.1358ZM114.86 47.074C114.84 47.0721 114.821 47.0703 114.802 47.0684C114.724 45.7395 114.663 44.4093 114.565 43.0819C114.497 42.1583 114.366 41.208 113.511 40.6616C110.875 38.9773 108.214 37.3316 105.559 35.6771C104.841 35.2294 104.085 35.2645 103.383 35.6759C102.806 36.0137 102.27 36.4301 101.744 36.8468C101.016 37.4229 100.361 38.1055 99.5883 38.6072C98.7484 39.1525 98.3704 39.8939 98.3143 40.8291C98.2773 41.4458 98.3488 42.0688 98.3678 42.6891C98.3967 43.6356 98.4897 44.586 98.4363 45.5279C98.2973 47.972 99.1173 49.894 101.273 51.1504C101.698 51.3976 102.126 51.6378 102.56 51.8685C103.956 52.611 105.358 53.3405 106.751 54.089C107.617 54.554 108.507 54.6067 109.368 54.1676C110.076 53.8064 110.743 53.3549 111.396 52.897C112.171 52.3539 112.876 51.7035 113.678 51.209C114.265 50.8474 114.612 50.3767 114.689 49.7432C114.796 48.8595 114.807 47.9642 114.86 47.074ZM121.798 28.5029C119.259 28.576 117.152 29.0932 115.083 29.8272C114.601 29.998 114.443 30.2849 114.518 30.7176C114.633 31.3801 114.738 32.0565 114.963 32.6849C115.611 34.4906 116.191 36.3042 116.458 38.2176C116.69 39.8717 117.491 41.2392 118.793 42.3005C119.428 42.8186 120.062 43.3398 120.671 43.8885C121.076 44.2535 121.389 44.2165 121.719 43.8024C122.48 42.847 123.292 41.9304 124.014 40.9469C125.46 38.9773 126.611 36.8592 127.083 34.4173C127.63 31.5857 126.264 29.3313 123.572 28.7345C122.884 28.582 122.17 28.5494 121.798 28.5029ZM87.5673 55.0986C87.5197 57.1802 88.4989 58.639 90.4648 59.305C91.1126 59.5245 91.8109 59.7412 92.4794 59.7215C94.07 59.6748 95.659 59.5101 97.2434 59.3421C97.7957 59.2835 98.349 59.1205 98.8713 58.9234C99.4035 58.7224 99.4778 58.4179 99.3118 57.8728C99.0994 57.1758 98.9077 56.472 98.7263 55.7662C98.4992 54.8829 98.3241 53.9851 98.067 53.1112C97.7852 52.1537 97.3217 51.2848 96.5495 50.6212C95.6672 49.8631 94.7821 49.1081 93.8887 48.3632C93.3303 47.8977 92.7666 47.4365 92.1818 47.0055C91.7899 46.7168 91.4145 46.7385 91.1146 47.193C90.4027 48.2723 89.6107 49.3044 88.9734 50.4257C88.1571 51.8619 87.6087 53.4114 87.5673 55.0986ZM91.2859 31.2763C90.407 31.4602 89.3937 31.5848 88.4392 31.8932C87.16 32.3064 86.0427 33.9428 86.6292 35.6887C87.3648 37.8784 88.4508 39.8679 89.9414 41.6209C90.3466 42.0974 90.8691 42.4868 91.3868 42.8445C91.5381 42.949 91.9457 42.8978 92.0878 42.7617C93.0621 41.8297 94.0021 40.8612 94.9432 39.8946C95.9214 38.8898 96.5847 37.7063 96.8071 36.3107C96.9648 35.3209 97.0508 34.3195 97.1782 33.3246C97.2908 32.4461 97.1439 32.166 96.2855 32.0216C94.6752 31.7505 93.0554 31.5365 91.2859 31.2763ZM107.64 66.3233C109.307 66.197 110.584 65.436 111.381 64.0773C112.14 62.7834 112.681 61.3599 113.305 59.9875C113.475 59.6142 113.253 59.3999 112.929 59.272C111.916 58.8722 110.906 58.4662 109.887 58.084C108.607 57.6044 107.361 57.7132 106.14 58.3206C105.116 58.8304 104.083 59.3234 103.046 59.8063C102.166 60.2162 102.07 60.4161 102.397 61.3494C102.457 61.5211 102.521 61.6939 102.607 61.8538C103.494 63.5157 104.729 64.8562 106.346 65.8164C106.739 66.0503 107.207 66.1578 107.64 66.3233ZM103.283 32.4809C104.67 32.4034 105.665 31.7582 106.689 31.1616C107.817 30.5044 108.981 29.9098 110.1 29.2386C110.305 29.1154 110.499 28.7418 110.472 28.5101C110.428 28.1281 110.266 27.7181 110.037 27.4073C109.411 26.559 108.776 25.7056 108.05 24.9461C106.485 23.3102 103.878 23.38 102.367 25.0685C101.983 25.4985 101.61 25.9799 101.384 26.504C100.866 27.7057 100.419 28.9403 99.9873 30.1771C99.6777 31.064 99.8902 31.4487 100.779 31.7464C101.432 31.9652 102.094 32.1566 102.754 32.3528C102.975 32.4189 103.204 32.4621 103.283 32.4809ZM119.37 57.8557C120.472 57.9231 121.551 57.8354 122.589 57.435C123.945 56.9119 124.781 55.8925 124.673 54.6072C124.583 53.5527 124.395 52.4588 123.991 51.4924C123.584 50.5197 122.878 49.6663 122.256 48.795C122.03 48.4787 121.694 48.2107 121.354 48.0197C121.169 47.9157 120.782 47.9185 120.634 48.0462C119.876 48.699 119.133 49.3757 118.45 50.1056C117.57 51.0453 117.118 52.1712 117.178 53.4941C117.199 53.943 117.1 54.4005 117.028 54.8497C116.944 55.3714 116.805 55.8848 116.734 56.4078C116.628 57.1985 116.85 57.5344 117.639 57.6851C118.206 57.7935 118.792 57.8024 119.37 57.8557ZM106.476 33.7708C106.616 33.904 106.659 33.9638 106.717 33.9985C108.843 35.2608 110.968 36.523 113.1 37.7736C113.204 37.8345 113.409 37.8442 113.493 37.7798C113.575 37.7173 113.607 37.5191 113.581 37.3972C113.279 35.9525 112.989 34.5041 112.632 33.0725C112.507 32.5707 112.243 32.0916 111.978 31.6411C111.769 31.2868 111.438 31.1264 110.999 31.3431C110.087 31.7933 109.149 32.1924 108.248 32.6637C107.648 32.9777 107.094 33.3805 106.476 33.7708ZM100.145 53.2496C99.6317 53.2897 99.5671 53.534 99.6538 53.8688C99.8726 54.7141 100.066 55.5674 100.327 56.3996C100.477 56.8793 100.691 57.3563 100.971 57.7692C101.092 57.9462 101.496 58.0863 101.7 58.0206C102.542 57.7494 103.364 57.407 104.18 57.06C104.457 56.9422 104.736 56.7706 104.934 56.5503C105.025 56.4486 104.996 56.0553 104.895 55.9904C103.632 55.1721 102.352 54.3789 101.06 53.6064C100.756 53.4245 100.392 53.3433 100.145 53.2496ZM96.9085 46.5669C96.8751 46.568 96.8417 46.5691 96.8082 46.5702C96.7548 45.1933 96.7108 43.8159 96.6438 42.4396C96.6118 41.7829 96.259 41.5924 95.766 42.0251C94.9614 42.7312 94.2073 43.4995 93.4803 44.2868C93.3519 44.4259 93.3701 44.8345 93.4783 45.0309C93.6572 45.3558 93.9318 45.6504 94.2243 45.8845C94.8339 46.3725 95.477 46.8189 96.1165 47.268C96.2812 47.3837 96.4835 47.4455 96.6686 47.5321C96.7485 47.3198 96.8398 47.1109 96.9034 46.8937C96.933 46.793 96.9085 46.6763 96.9085 46.5669ZM114.435 54.5489C114.433 53.7992 114.104 53.5517 113.575 53.8795C112.901 54.2973 112.284 54.8109 111.654 55.2994C111.159 55.684 111.209 55.9937 111.816 56.1981C112.329 56.371 112.867 56.4665 113.384 56.6312C113.814 56.7687 114.063 56.6144 114.148 56.2035C114.27 55.6168 114.355 55.0227 114.435 54.5489ZM101.687 33.9309C101.074 33.6084 100.581 33.3336 100.074 33.0862C99.5604 32.8354 99.2255 32.9776 99.0919 33.538C98.974 34.0324 98.9096 34.5426 98.8617 35.0496C98.8398 35.2803 98.9149 35.5203 98.9461 35.7561C99.2131 35.7009 99.5387 35.7246 99.7364 35.5761C100.359 35.1084 100.933 34.5763 101.687 33.9309ZM117.421 45.9546C117.449 46.3614 117.449 46.7625 117.511 47.1535C117.576 47.5579 117.867 47.6884 118.182 47.4454C118.607 47.1176 119 46.7381 119.355 46.3346C119.454 46.2231 119.45 45.8833 119.352 45.7596C119.007 45.3202 118.624 44.9019 118.21 44.5273C117.827 44.1811 117.565 44.2951 117.486 44.8229C117.43 45.1971 117.44 45.5814 117.421 45.9546Z" fill="#FFCCD5"/>
<path d="M49.4568 97.3674C48.687 97.0515 48.0274 96.7013 47.325 96.5083C45.5739 96.0274 43.7898 95.6648 42.0458 95.161C41.1128 94.8915 40.1802 94.5229 39.3454 94.0309C38.0773 93.2837 37.8689 92.2471 38.575 90.958C39.3232 89.5917 40.4005 88.503 41.549 87.4832C44.533 84.8341 47.8919 82.7141 51.2459 80.5903C54.06 78.8083 56.9051 77.0751 59.7032 75.2681C60.9705 74.4498 62.1539 73.5008 63.3821 72.6206C63.7095 72.3859 64.0387 72.0165 64.4722 72.4591C65.0469 73.0458 65.0892 73.4077 64.6989 73.9844C63.3193 76.0217 61.8512 78.0072 60.6054 80.1244C59.6973 81.668 59.0935 83.3914 58.3398 85.0281C57.9609 85.8509 57.5844 86.6781 57.1452 87.4686C56.6866 88.2945 56.6939 88.5997 57.5396 89.0451C60.4186 90.5613 63.3153 92.0439 66.2101 93.5299C67.9245 94.4099 69.6515 95.2649 71.3659 96.145C72.3864 96.6691 72.5676 97.2981 71.986 98.2925C71.3777 99.3329 70.3923 99.9716 69.4516 100.664C63.2464 105.228 56.5163 108.926 49.8157 112.669C43.3042 116.306 36.7584 119.88 30.2247 123.477C30.0237 123.587 29.7944 123.691 29.5715 123.708C28.9429 123.756 28.5647 123.403 28.6712 122.785C28.7556 122.294 28.9252 121.78 29.1936 121.367C30.5733 119.241 31.9331 117.097 33.4183 115.047C36.9289 110.199 41.0425 105.878 45.2408 101.637C46.5997 100.265 47.9548 98.8889 49.4568 97.3674ZM69.83 98.1566C69.6216 98.0188 69.4831 97.9072 69.3282 97.8279C67.5973 96.9412 65.8639 96.0594 64.1311 95.1764C61.5089 93.8401 58.8754 92.5253 56.2724 91.152C55.6387 90.8177 55.071 90.3293 54.5351 89.8426C53.9293 89.2924 53.8285 88.5912 54.1985 87.8444C54.3037 87.6322 54.4122 87.4202 54.5386 87.2204C55.8917 85.083 56.8594 82.7599 57.7899 80.4189C57.8636 80.2336 57.9179 80.0377 57.9567 79.8418C58.0308 79.4686 57.8479 79.3356 57.5329 79.502C57.1494 79.7046 56.7663 79.9322 56.4391 80.2146C54.074 82.2561 51.4354 83.9153 48.9029 85.7242C46.475 87.4583 44.1087 89.2798 41.7318 91.0849C41.4959 91.2641 41.3753 91.5967 41.2012 91.858C41.4475 91.9842 41.6821 92.1464 41.9418 92.2311C44.6355 93.1102 47.3289 93.9912 50.0327 94.8381C50.8389 95.0906 51.679 95.2326 52.5009 95.4359C52.8858 95.5311 53.2819 95.614 53.6377 95.7793C53.7778 95.8445 53.9363 96.1596 53.89 96.2913C53.6456 96.9877 53.5576 97.8079 52.6757 98.085C52.4931 98.1424 52.3332 98.2914 52.1788 98.4178C50.6981 99.6283 49.2227 100.845 47.7398 102.053C47.5748 102.187 47.36 102.26 47.1911 102.39C46.977 102.556 46.7586 102.729 46.5913 102.939C46.3246 103.273 46.1438 103.685 45.8469 103.984C44.9365 104.901 43.9584 105.75 43.0638 106.682C42.3717 107.403 41.7731 108.213 41.1198 108.972C39.0868 111.335 37.0043 113.656 35.0315 116.068C34.2168 117.065 33.6325 118.251 32.9434 119.351C32.9961 119.395 33.0486 119.438 33.1012 119.481C45.4324 112.573 57.9958 106.068 69.83 98.1566Z" fill="#FFCCD5"/>
<path d="M29.6664 60.1251C31.2246 60.389 32.9044 60.5945 34.5411 60.9836C35.3655 61.1796 36.1209 61.6907 36.8875 62.0975C37.1175 62.2197 37.3109 62.4493 37.462 62.6705C37.5614 62.8158 37.6238 63.0582 37.5711 63.2114C37.5366 63.3115 37.2564 63.3968 37.1035 63.3735C36.2609 63.245 35.4277 63.0502 34.5836 62.9354C32.5484 62.6589 30.5041 62.4468 28.4745 62.1358C27.9066 62.0488 27.3425 61.7671 26.8404 61.4669C26.3565 61.1775 26.4134 60.7616 26.9632 60.6182C27.7994 60.4003 28.6662 60.3007 29.6664 60.1251Z" fill="#FFCCD5"/>
<path d="M82.5879 116.791C82.7548 116.905 83.1113 117.051 83.3286 117.314C84.0351 118.168 84.793 119.005 85.3426 119.958C86.2312 121.499 86.9926 123.117 87.7534 124.728C87.9058 125.051 87.8161 125.489 87.838 125.874C87.4777 125.711 87.0188 125.639 86.7751 125.37C86.0072 124.521 85.2729 123.632 84.6131 122.696C83.7119 121.418 82.8699 120.096 82.0507 118.763C81.8308 118.406 81.733 117.947 81.6745 117.521C81.6103 117.053 81.9345 116.774 82.5879 116.791Z" fill="#FFCCD5"/>
<path d="M52.8099 118.296C52.4925 119.277 52.2387 120.284 51.843 121.232C51.2617 122.624 50.5831 123.976 49.9374 125.341C49.7054 125.831 49.166 125.884 48.9391 125.391C48.7439 124.967 48.5826 124.433 48.6608 123.993C49.0247 121.944 49.5923 119.948 50.5833 118.101C50.7451 117.799 50.9461 117.507 51.1796 117.259C51.7567 116.645 52.3558 116.798 52.5931 117.606C52.6538 117.812 52.6646 118.034 52.6983 118.248C52.7355 118.264 52.7727 118.28 52.8099 118.296Z" fill="#FFCCD5"/>
<path d="M76.5952 121.34C76.0376 121.504 75.5822 121.352 75.2482 121.005C74.7844 120.524 74.3399 120.006 73.9813 119.443C73.032 117.953 72.1254 116.436 71.2209 114.918C71.0284 114.595 70.8702 114.234 70.7802 113.87C70.6587 113.379 70.816 112.988 71.3273 112.764C71.8426 112.539 72.1244 112.758 72.4111 113.168C73.9023 115.304 74.9702 117.662 76.0242 120.028C76.2149 120.456 76.3984 120.888 76.5952 121.34Z" fill="#FFCCD5"/>
<path d="M26.4492 111.736C26.5286 111.545 26.6108 111.172 26.8161 110.89C27.4143 110.067 28.0298 109.252 28.6991 108.488C29.3578 107.735 30.0661 107.021 30.8006 106.343C31.208 105.967 31.6885 105.646 32.1856 105.403C32.4434 105.277 32.8375 105.291 33.1209 105.388C33.7774 105.611 33.7739 105.896 33.2967 106.379C32.3777 107.309 31.4829 108.266 30.6211 109.25C29.6118 110.402 28.644 111.591 27.2841 112.358C26.8015 112.63 26.4621 112.442 26.4492 111.736Z" fill="#FFCCD5"/>
<path d="M31.7474 95.2363C31.8565 95.2975 32.0783 95.3483 32.1316 95.4723C32.1875 95.6023 32.1382 95.8593 32.0364 95.9619C31.6535 96.3476 31.2762 96.7731 30.8144 97.0397C28.8483 98.175 26.8504 99.2547 24.87 100.365C24.4669 100.591 24.1704 100.433 23.902 100.154C23.6051 99.8452 23.6639 99.4749 23.9202 99.2156C24.377 98.7536 24.8557 98.2928 25.3943 97.937C27.1047 96.8071 28.9706 96 30.9299 95.4114C31.1722 95.3387 31.4259 95.304 31.7474 95.2363Z" fill="#FFCCD5"/>
<path d="M91.9344 68.8367C91.8205 69.1054 91.6708 69.6205 91.4016 70.0617C90.657 71.2824 89.6378 72.2347 88.3983 72.9448C88.288 73.008 88.177 73.073 88.0594 73.1194C87.6652 73.2749 87.2365 73.4524 86.8854 73.1001C86.5324 72.7459 86.6948 72.2956 86.8737 71.9208C87.7289 70.1279 89.015 68.6712 90.4941 67.3797C90.6155 67.2737 90.9049 67.2658 91.0738 67.3282C91.6555 67.5433 91.958 68.0192 91.9344 68.8367Z" fill="#FFCCD5"/>
<path d="M42.7258 77.9924C42.4581 78.1219 42.2031 78.3017 41.9209 78.3728C39.2085 79.057 36.4457 79.3034 33.6553 79.2988C33.2454 79.2981 33.0135 79.0283 33.0003 78.7048C32.9909 78.475 33.1886 78.0976 33.3833 78.0236C34.1071 77.7481 34.8557 77.4933 35.6172 77.3718C37.6661 77.0447 39.7273 76.8105 41.7737 77.4125C42.0927 77.5064 42.3982 77.6473 42.71 77.7664C42.7153 77.8418 42.7206 77.917 42.7258 77.9924Z" fill="#FFCCD5"/>
<path d="M103.984 79.1037C104.193 78.4949 104.351 77.8611 104.629 77.2861C104.82 76.8906 105.209 76.6305 105.708 76.6962C106.202 76.7611 106.52 77.0859 106.613 77.5307C106.795 78.399 106.938 79.2804 107.02 80.1636C107.082 80.8434 107.037 81.5347 107.013 82.2201C107.007 82.3934 106.909 82.5673 106.837 82.7337C106.467 83.5857 105.915 83.6669 105.332 82.9327C104.682 82.1135 104.381 81.1413 104.206 80.1257C104.151 79.8034 104.131 79.4748 104.095 79.149C104.058 79.1339 104.021 79.1188 103.984 79.1037Z" fill="#FFCCD5"/>
<path d="M40.0538 35.7323C39.518 35.5897 38.9437 35.5266 38.455 35.2871C37.5775 34.8571 37.5791 33.8879 38.4308 33.4003C38.7218 33.2337 39.0721 33.1011 39.4014 33.0858C40.7746 33.022 42.1503 32.987 43.5249 32.9915C43.8907 32.9927 44.2703 33.1368 44.6174 33.2796C44.9594 33.4202 45.0125 33.7207 44.7523 33.9827C44.5124 34.2243 44.2349 34.4474 43.9363 34.6075C42.734 35.2524 41.4441 35.5905 40.0538 35.7323Z" fill="#FFCCD5"/>
<path d="M60.3306 121.716C60.544 120.479 60.7322 119.237 60.99 118.009C61.0493 117.727 61.3043 117.438 61.5465 117.255C61.9459 116.953 62.4057 117.047 62.5897 117.514C62.7912 118.025 62.9742 118.612 62.9231 119.142C62.7764 120.665 62.5239 122.179 62.2754 123.69C62.2087 124.096 62.0189 124.483 61.8657 124.872C61.7173 125.248 61.4242 125.239 61.2622 124.946C60.9779 124.43 60.7213 123.881 60.5702 123.315C60.4359 122.811 60.4605 122.265 60.4149 121.738C60.3867 121.731 60.3586 121.723 60.3306 121.716Z" fill="#FFCCD5"/>
<path d="M36.5773 70.4409C36.1679 70.4828 35.7527 70.5913 35.3501 70.5555C32.8526 70.3337 30.3556 70.1006 27.8641 69.8202C27.2801 69.7545 26.695 69.5436 26.1562 69.2977C25.9173 69.1886 25.7927 68.8267 25.6162 68.5795C25.8645 68.4413 26.1226 68.1688 26.3593 68.1866C27.9324 68.3049 29.5147 68.4033 31.067 68.6685C32.602 68.9307 34.1081 69.3694 35.6197 69.759C35.9705 69.8494 36.292 70.0543 36.6269 70.2064C36.6104 70.2846 36.5939 70.3628 36.5773 70.4409Z" fill="#FFCCD5"/>
<path d="M76.0001 28.0175C77.9353 28.1773 79.6015 28.6852 81.1243 29.6431C81.2162 29.7009 81.3207 29.7588 81.3801 29.8442C81.5089 30.0294 81.7464 30.2892 81.6939 30.4148C81.618 30.5965 81.3337 30.7745 81.1217 30.797C80.6803 30.8439 80.2264 30.8083 79.7808 30.7699C78.6775 30.6749 77.5721 30.5881 76.4754 30.4394C75.943 30.3672 75.3951 30.2307 74.9185 29.9931C74.6474 29.8579 74.3355 29.4507 74.3501 29.1833C74.3674 28.8706 74.659 28.4768 74.9435 28.3003C75.2779 28.0933 75.7322 28.0817 76.0001 28.0175Z" fill="#FFCCD5"/>
<path d="M118.561 85.3053C118.588 85.8662 118.188 86.15 117.739 85.8301C117.277 85.5005 116.79 85.1025 116.526 84.6178C115.984 83.6235 115.696 82.5211 115.67 81.3709C115.665 81.1542 115.686 80.932 115.731 80.7201C115.838 80.225 116.026 79.6255 116.544 79.6197C116.951 79.6151 117.441 79.9775 117.75 80.3114C118.025 80.6091 118.202 81.0796 118.251 81.4941C118.399 82.7593 118.464 84.0342 118.561 85.3053Z" fill="#FFCCD5"/>
<path d="M39.9709 43.4253C40.0136 43.7458 40.1009 44.006 40.065 44.2476C40.0313 44.4744 39.9228 44.7943 39.7517 44.8794C38.3379 45.5826 36.9122 46.281 35.2991 46.3817C34.7793 46.4142 34.154 46.4726 33.9449 45.846C33.7478 45.255 34.2089 44.8522 34.6264 44.5292C35.8524 43.581 37.2898 43.3443 38.789 43.359C39.1674 43.3628 39.5455 43.4004 39.9709 43.4253Z" fill="#FFCCD5"/>
<path d="M48.137 70.6773C46.1239 70.3961 44.2309 70.006 42.4477 69.1915C42.149 69.055 41.9311 68.74 41.6758 68.5076C41.9659 68.3515 42.2498 68.0785 42.5475 68.0622C43.2989 68.021 44.0675 68.0257 44.8092 68.1411C45.7716 68.2909 46.7186 68.5504 47.6637 68.7963C47.9551 68.8721 48.2301 69.0382 48.4918 69.1976C48.8596 69.4217 49.1524 69.7673 48.9189 70.1865C48.7872 70.4227 48.4059 70.5183 48.137 70.6773Z" fill="#FFCCD5"/>
<path d="M75.748 87.219C75.3517 87.0444 75.0456 86.9708 74.8131 86.7974C73.1346 85.546 71.8508 83.9581 70.918 82.0817C70.854 81.9529 70.7729 81.7965 70.7939 81.6687C70.8354 81.418 70.8778 81.1022 71.044 80.9574C71.1845 80.835 71.5393 80.834 71.7298 80.9254C72.0313 81.0701 72.3115 81.304 72.537 81.5574C73.9081 83.0993 74.8756 84.8911 75.6765 86.7812C75.7102 86.8606 75.7067 86.9556 75.748 87.219Z" fill="#FFCCD5"/>
<path d="M63.823 57.1557C62.8062 57.1678 62.3092 56.6141 62.4948 55.724C62.6896 54.7906 63.2346 54.0848 64.1478 53.7876C64.707 53.6056 65.3149 53.5564 65.9059 53.4994C66.2446 53.4667 66.5021 53.6473 66.5307 54.0337C66.641 55.5202 65.8439 56.6604 64.41 57.0547C64.1847 57.1167 63.9476 57.1349 63.823 57.1557Z" fill="#FFCCD5"/>
<path d="M109.529 94.378C109.755 93.5467 109.923 92.8047 110.173 92.0915C110.248 91.8764 110.545 91.613 110.748 91.6063C110.944 91.6 111.257 91.8583 111.331 92.0674C111.604 92.8353 112.054 93.669 111.946 94.4048C111.851 95.0458 112.002 95.5572 112.06 96.132C112.116 96.6846 112.186 97.4208 111.554 97.6043C110.988 97.7686 110.554 97.1756 110.333 96.6995C109.988 95.9552 109.786 95.1439 109.529 94.378Z" fill="#FFCCD5"/>
<path d="M85.2221 112.047C84.8378 111.981 84.4342 111.969 84.0727 111.838C82.6326 111.319 81.3785 110.491 80.3347 109.369C80.0586 109.072 79.8435 108.686 79.7074 108.303C79.6443 108.126 79.7774 107.789 79.9326 107.647C80.0858 107.507 80.4346 107.406 80.6027 107.487C82.6168 108.457 84.1966 109.905 85.2916 111.861C85.2685 111.923 85.2452 111.985 85.2221 112.047Z" fill="#FFCCD5"/>
<path d="M59.4345 66.2191C59.0248 66.8694 58.3668 67.1146 57.6476 67.1649C56.2714 67.2613 55.0283 66.8738 53.9563 65.9812C53.8867 65.9233 53.7994 65.8646 53.7676 65.7868C53.6307 65.4525 53.3491 65.069 53.4227 64.7815C53.5404 64.3215 54.0439 64.1622 54.4998 64.2569C55.0981 64.381 55.6976 64.5473 56.261 64.7816C57.3145 65.2198 58.3425 65.7202 59.4345 66.2191Z" fill="#FFCCD5"/>
<path d="M88.603 101.068C88.3097 100.925 88.0572 100.833 87.8382 100.69C86.1217 99.5661 84.5933 98.2261 83.329 96.602C83.135 96.3528 83.0824 95.9925 82.9644 95.6837C83.2947 95.7006 83.6672 95.6251 83.9467 95.7535C84.5311 96.0218 85.1352 96.3208 85.6073 96.746C86.5224 97.5701 87.3845 98.4609 88.2018 99.3835C88.5757 99.8055 88.806 100.366 88.603 101.068Z" fill="#FFCCD5"/>
<path d="M51.6931 25.5187C51.3445 25.8663 50.8899 25.9537 50.4882 25.7783C49.2966 25.258 48.1155 24.7054 46.9706 24.0898C46.5343 23.8553 46.4133 23.3396 46.5271 22.8299C46.6393 22.3276 47.0552 22.0281 47.545 22.1705C49.3225 22.6874 50.7651 23.6613 51.6559 25.3457C51.6795 25.3903 51.6787 25.4478 51.6931 25.5187Z" fill="#FFCCD5"/>
<path d="M77.8014 43.7043C77.4305 44.0265 77.1002 44.4213 76.6813 44.6573C75.4201 45.368 73.9944 45.4877 72.594 45.6546C72.1488 45.7077 71.7505 45.2517 71.6899 44.7258C71.6387 44.2815 71.7853 43.8795 72.2342 43.7743C73.6782 43.436 75.1225 43.0382 76.628 43.18C77.0041 43.2154 77.3683 43.3788 77.7381 43.4834C77.7591 43.5571 77.7803 43.6307 77.8014 43.7043Z" fill="#FFCCD5"/>
<path d="M97.3859 112.512C96.0455 111.231 94.7312 110.002 93.4538 108.736C93.125 108.41 92.8722 107.985 92.665 107.566C92.573 107.38 92.5913 106.989 92.7196 106.878C92.9031 106.719 93.2473 106.651 93.4974 106.693C93.7647 106.739 94.034 106.922 94.248 107.109C95.6455 108.326 96.6859 109.808 97.361 111.536C97.4928 111.873 97.7283 112.286 97.3859 112.512Z" fill="#FFCCD5"/>
<path d="M70.093 38.4956C69.2974 38.5317 68.5085 38.4811 67.8388 38.0208C67.5565 37.8267 67.2395 37.4559 67.2311 37.157C67.224 36.9023 67.5884 36.5522 67.8711 36.3883C69.3999 35.502 70.9071 36.1574 71.8017 37.0427C72.007 37.2459 72.2075 37.6534 72.1374 37.8823C72.0669 38.112 71.6753 38.3158 71.3889 38.3874C70.9737 38.4911 70.5265 38.4658 70.093 38.4956Z" fill="#FFCCD5"/>
<path d="M126.175 71.7365C125.66 71.5121 125.237 71.4051 124.904 71.1687C123.806 70.3879 123.205 69.2536 122.846 67.9841C122.712 67.5121 123.008 67.1487 123.588 66.9596C124.208 66.7579 124.798 66.8969 124.967 67.3473C125.362 68.4002 125.737 69.4622 126.078 70.5339C126.178 70.8485 126.138 71.2083 126.175 71.7365Z" fill="#FFCCD5"/>
<path d="M91.7217 85.8303C91.8834 84.5786 92.3576 83.4619 93.3188 82.5934C93.4851 82.4431 93.725 82.3266 93.945 82.2951C94.3242 82.241 94.6893 82.3851 94.6415 82.834C94.5771 83.4393 94.5248 84.094 94.257 84.6192C93.7549 85.6035 93.1057 86.5125 92.5052 87.4448C92.448 87.5336 92.2768 87.6346 92.205 87.6072C92.095 87.5653 91.971 87.4272 91.9483 87.3111C91.8545 86.83 91.7966 86.3418 91.7217 85.8303Z" fill="#FFCCD5"/>
<path d="M127.518 114.584C127.358 115.042 127.239 115.521 127.025 115.953C126.831 116.344 126.474 116.455 126.055 116.239C125.028 115.709 124.355 113.712 124.861 112.682C125.277 111.836 125.928 111.736 126.587 112.418C127.078 112.926 127.436 113.828 127.518 114.584Z" fill="#FFCCD5"/>
<path d="M123.425 85.2218C123.639 85.3569 124.089 85.5392 124.4 85.858C125.146 86.6215 125.493 87.6116 125.699 88.6397C125.814 89.2121 125.409 89.5096 124.861 89.2369C123.706 88.6614 122.835 87.756 122.241 86.6205C121.826 85.8281 122.266 85.2294 123.425 85.2218Z" fill="#FFCCD5"/>
<path d="M118.637 101.923C118.809 101.515 118.943 101.035 119.204 100.64C119.345 100.427 119.726 100.23 119.961 100.267C120.203 100.305 120.528 100.603 120.591 100.847C120.903 102.043 121.15 103.257 121.396 104.469C121.461 104.786 121.071 105.095 120.707 105.046C120.585 105.029 120.449 104.987 120.356 104.912C119.424 104.163 118.928 103.162 118.637 101.923Z" fill="#FFCCD5"/>
<path d="M30.7122 86.6214C29.9983 86.839 29.2908 87.0828 28.5683 87.267C27.8844 87.4414 27.1874 87.5692 26.4913 87.6886C25.6666 87.8302 24.852 87.7478 24.1084 87.3588C23.8943 87.2468 23.7836 86.935 23.6255 86.7147C23.8306 86.5766 24.0302 86.3282 24.2416 86.3174C26.0494 86.2255 27.8591 86.1619 29.6688 86.1279C30.0065 86.1215 30.3474 86.2852 30.6868 86.3704C30.6953 86.4542 30.7038 86.5378 30.7122 86.6214Z" fill="#FFCCD5"/>
<path d="M57.7906 31.2112C56.5597 31.2231 55.8979 30.598 55.9452 29.76C55.9895 28.977 56.688 28.4728 57.5972 28.6205C58.1654 28.7128 58.7305 28.853 59.2794 29.0275C59.669 29.1514 59.9946 29.4032 60.007 29.8793C60.0205 30.3905 59.7051 30.7261 59.2863 30.8682C58.7102 31.0637 58.0955 31.1448 57.7906 31.2112Z" fill="#FFCCD5"/>
<path d="M45.5478 47.9598C45.394 48.3096 45.288 48.6918 45.0778 49.0031C44.3656 50.057 42.1205 50.8907 40.8798 50.599C40.3758 50.4805 40.0711 50.1085 40.1017 49.6277C40.1348 49.1063 40.4596 48.8497 40.9381 48.7755C41.2959 48.7201 41.6588 48.6851 42.0205 48.6712C43.2047 48.6257 44.3724 48.5158 45.4236 47.8706C45.4651 47.9003 45.5065 47.9301 45.5478 47.9598Z" fill="#FFCCD5"/>
<path d="M93.8145 103.496C93.8974 102.468 94.1548 101.587 94.7925 100.857C95.0999 100.505 95.4717 100.306 95.9523 100.511C96.4514 100.725 96.5107 101.141 96.4323 101.605C96.2474 102.7 95.877 103.726 95.1765 104.594C95.0051 104.807 94.6626 105.024 94.4286 104.994C94.2465 104.972 94.0636 104.588 93.9676 104.333C93.8612 104.049 93.8531 103.728 93.8145 103.496Z" fill="#FFCCD5"/>
<path d="M55.4419 49.2423C54.2886 49.2459 54.1054 49.1473 53.9006 48.4531C53.7743 48.0251 53.8489 47.6364 54.2621 47.4081C55.383 46.7887 56.5736 46.7777 57.7457 47.176C58.3934 47.396 58.404 48.2255 57.7974 48.6204C57.0393 49.1138 56.1723 49.2229 55.4419 49.2423Z" fill="#FFCCD5"/>
<path d="M80.0801 65.1484C80.0774 64.2553 80.9966 63.2037 81.8817 63.0944C81.9867 63.0815 82.0996 63.0863 82.2026 63.1102C82.8727 63.2662 83.5352 65.1128 83.028 65.5625C82.5983 65.9433 82.0434 66.2652 81.4918 66.4038C80.6365 66.6187 80.0829 66.0597 80.0801 65.1484Z" fill="#FFCCD5"/>
<path d="M64.5963 106.718C64.7119 106.703 64.8729 106.675 65.0352 106.663C65.4824 106.629 65.803 106.834 65.87 107.272C66.0108 108.191 66.1327 109.115 66.1937 110.042C66.213 110.336 66.0152 110.645 65.9168 110.947C65.6379 110.803 65.3001 110.718 65.0906 110.505C64.3469 109.75 63.8791 108.828 63.6409 107.79C63.4894 107.13 63.7025 106.499 64.5963 106.718Z" fill="#FFCCD5"/>
<path d="M103.049 102.44C102.369 101.058 101.719 99.6559 101.759 98.0541C101.771 97.548 102.151 97.2009 102.7 97.1616C103.17 97.1279 103.668 97.4469 103.709 97.9726C103.821 99.4238 103.769 100.875 103.333 102.285C103.318 102.336 103.28 102.38 103.253 102.427C103.185 102.431 103.117 102.435 103.049 102.44Z" fill="#FFCCD5"/>
<path d="M113.369 111.983C113.376 111.393 114.107 110.713 114.879 110.765C115.428 110.802 115.761 111.207 115.752 111.816C115.748 112.14 115.743 112.466 115.767 112.789C115.839 113.773 115.026 114.606 114.039 114.539C113.66 114.513 113.502 114.261 113.477 113.918C113.434 113.336 113.411 112.753 113.369 111.983Z" fill="#FFCCD5"/>
<path d="M70.5401 23.6189C70.153 23.5143 69.7517 23.4799 69.436 23.2968C69.1852 23.1514 68.8828 22.8208 68.8873 22.5777C68.8924 22.3011 69.1593 21.8779 69.4079 21.7894C69.9001 21.6142 70.4918 21.4789 70.981 21.5928C71.7592 21.7738 72.4945 22.1563 73.2301 22.4927C73.3737 22.5585 73.5371 22.8244 73.5084 22.9585C73.4792 23.0954 73.2359 23.2543 73.0669 23.2814C72.2276 23.4161 71.3819 23.5106 70.5401 23.6189Z" fill="#FFCCD5"/>
<path d="M79.5617 101.469C79.4168 101.428 79.2572 101.412 79.1294 101.34C78.3566 100.905 77.5854 100.466 76.8248 100.01C76.0294 99.5328 75.759 99.0147 75.9373 98.2062C75.9933 97.9523 76.183 97.6142 76.3909 97.5403C76.5965 97.4673 76.9855 97.6015 77.1502 97.7792C77.9024 98.5909 78.6282 99.4307 79.3096 100.303C79.5313 100.587 79.5896 100.999 79.7227 101.353C79.669 101.392 79.6154 101.43 79.5617 101.469Z" fill="#FFCCD5"/>
<path d="M36.2189 24.8744C37.1985 24.9775 38.0934 25.2507 38.8015 25.9321C38.9664 26.0908 38.9931 26.3942 39.0834 26.6311C38.8587 26.6745 38.6358 26.7368 38.4091 26.7574C37.8891 26.8047 37.3671 26.8278 36.8465 26.8692C36.6667 26.8835 36.4896 26.9296 36.3101 26.9495C35.1237 27.08 34.7178 26.5501 35.1539 25.4336C35.3501 24.9313 35.8053 24.9202 36.2189 24.8744Z" fill="#FFCCD5"/>
<path d="M39.0006 126.353C38.5984 127.15 38.293 127.887 37.8694 128.548C37.5871 128.988 36.8947 128.826 36.6653 128.335C36.3147 127.585 36.6143 126.132 37.2271 125.581C37.5535 125.288 37.9454 125.226 38.2767 125.462C38.5504 125.658 38.7217 125.998 39.0006 126.353Z" fill="#FFCCD5"/>
<path d="M97.2812 69.2416C97.4798 68.7266 97.5959 68.263 97.8279 67.8682C98.0751 67.4477 98.5384 67.445 98.9538 67.5807C99.3702 67.7168 99.5519 68.083 99.4877 68.4958C99.3928 69.1067 99.2683 69.7191 99.0842 70.3082C98.8816 70.9563 98.3075 71.0851 97.8884 70.5496C97.6032 70.1853 97.4819 69.6913 97.2812 69.2416Z" fill="#FFCCD5"/>
<path d="M55.7696 38.7932C56.6415 38.8335 57.1842 38.9989 57.5638 39.5122C57.7509 39.7653 57.8028 40.0694 57.4841 40.2119C56.5717 40.6199 55.6446 41.0214 54.6199 40.5524C53.9203 40.2322 53.8421 39.7002 54.5042 39.3002C54.9566 39.0269 55.496 38.8988 55.7696 38.7932Z" fill="#FFCCD5"/>
<path d="M82.1211 51.8904C82.1646 51.8952 82.2369 51.9005 82.3081 51.9118C82.7245 51.9779 83.1868 52.0334 83.3032 52.5202C83.417 52.9967 82.9771 53.1667 82.665 53.3576C82.1563 53.6688 81.6333 53.9597 81.0982 54.222C80.9335 54.3027 80.6247 54.3491 80.5317 54.2576C80.36 54.0884 80.2002 53.8015 80.2099 53.5711C80.242 52.8144 81.3239 51.8858 82.1211 51.8904Z" fill="#FFCCD5"/>
<path d="M50.1945 34.6506C50.1968 33.7166 50.4208 33.5249 51.3023 33.6929C51.6589 33.7608 52.0187 33.8287 52.3632 33.94C52.9246 34.1211 53.0598 34.6262 52.6518 35.0452C52.14 35.5706 51.4976 35.817 50.7692 35.7135C50.1199 35.6212 50.1248 35.1244 50.1945 34.6506Z" fill="#FFCCD5"/>
<path d="M100.859 111.939C100.818 112.281 100.796 112.626 100.731 112.962C100.677 113.248 100.499 113.351 100.21 113.22C99.4334 112.866 98.9652 111.45 99.3913 110.724C99.6703 110.248 100.054 110.187 100.37 110.643C100.627 111.015 100.762 111.472 100.952 111.891C100.921 111.907 100.89 111.923 100.859 111.939Z" fill="#FFCCD5"/>
<path d="M102.561 43.6109C102.765 43.0641 102.929 42.3425 103.283 41.7316C104.023 40.4543 105.477 40.1404 106.732 40.9062C108.631 42.0643 109.283 45.2344 106.755 46.7681C104.944 47.8669 103.52 47.3327 102.895 45.2959C102.747 44.8132 102.695 44.3011 102.561 43.6109Z" fill="#FFCCD5"/>
</svg>
