<svg width="94" height="98" viewBox="0 0 94 98" fill="none" xmlns="http://www.w3.org/2000/svg">
<path d="M93.9999 32.1442C93.7376 33.0134 93.1155 33.574 92.3041 33.8494C91.2904 34.1935 90.2353 34.416 89.1975 34.6882C89.1194 34.7087 89.0351 34.7043 88.9545 34.7169C87.704 34.9135 87.4157 35.2566 87.5489 36.5169C88.3589 44.1764 88.5123 51.8638 88.5943 59.5571C88.6342 63.2959 88.8103 67.0332 88.9132 70.7714C88.92 71.0216 88.9064 71.339 88.764 71.5097C88.5892 71.7191 88.2746 71.9072 88.0097 71.9228C87.6447 71.9445 87.5939 71.5721 87.5597 71.2757C87.4174 70.0434 87.2551 68.8128 87.1477 67.5774C86.8564 64.2275 86.5821 60.8761 86.3178 57.5239C86.2473 56.6292 86.2283 55.7298 86.2007 54.8322C86.1535 53.2989 86.1231 51.7652 86.074 50.232C86.062 49.8584 86.0186 49.4844 85.9654 49.114C85.8928 48.6093 85.6261 48.305 85.0877 48.2174C84.4469 48.1132 84.1324 48.2833 84.1257 48.9538C84.1188 49.6507 84.1876 50.3553 84.2962 51.0451C84.6773 53.4664 84.6157 55.8825 84.4022 58.3171C84.1941 60.6896 84.1052 63.0741 84.0226 65.4554C83.965 67.117 84.0146 68.7822 83.9971 70.4456C83.9927 70.866 83.988 71.3129 83.8451 71.6961C83.7499 71.9513 83.4096 72.1152 83.1791 72.3199C83.0089 72.1204 82.7548 71.946 82.6864 71.7163C82.5482 71.2519 82.4566 70.7592 82.4427 70.2754C82.4092 69.1172 82.421 67.9573 82.4343 66.7983C82.46 64.5634 82.4728 62.3279 82.5437 60.0942C82.5816 58.9048 82.7823 57.7203 82.8147 56.5309C82.8543 55.0805 82.7602 53.6266 82.7885 52.1756C82.8106 51.0386 82.9128 49.9017 83.0181 48.7683C83.0539 48.3841 83.0424 48.1885 82.5713 48.2126C81.9702 48.2434 81.3628 48.1567 80.7626 48.1934C80.063 48.2361 79.8939 48.486 79.9582 49.1672C80.2421 52.1754 80.4939 55.1843 80.3803 58.2122C80.2659 61.2635 80.1652 64.3154 80.0843 67.3677C80.0598 68.2944 80.1376 69.2234 80.1386 70.1514C80.1396 70.9809 80.1258 71.8123 80.0649 72.6389C80.0395 72.984 79.8565 73.3108 79.4249 73.3231C78.9756 73.3358 78.83 72.9972 78.7866 72.6514C78.5528 70.792 78.2503 68.9346 78.15 67.0669C78.039 64.9989 78.131 62.9206 78.1157 60.8468C78.0951 58.0543 78.0306 55.2619 78.0382 52.4696C78.0413 51.3134 78.1714 50.1567 78.2652 49.002C78.3106 48.4435 78.1878 48.2059 77.6448 48.1777C77.0278 48.1458 76.4059 48.1819 75.7881 48.2205C75.6851 48.2269 75.5714 48.384 75.5023 48.496C75.4571 48.5694 75.4782 48.6867 75.4776 48.7845C75.4392 55.3328 75.3968 61.8811 75.3684 68.4294C75.3633 69.6368 75.4228 70.8444 75.4358 72.0521C75.4385 72.3084 75.4333 72.6034 75.3123 72.8109C75.2005 73.0026 74.9284 73.1007 74.7269 73.2401C74.6166 73.0583 74.4328 72.8857 74.4086 72.693C74.2886 71.7378 74.1986 70.7783 74.1201 69.8186C73.6444 64.0044 73.5775 58.1739 73.4588 52.3465C73.4342 51.1423 73.5757 49.9342 73.656 48.729C73.6917 48.1919 73.6432 48.1304 73.1245 48.1162C72.6357 48.1029 72.1478 48.0382 71.6592 48.0332C71.0024 48.0264 70.8242 48.2588 70.9027 48.9068C71.1779 51.1785 71.2791 53.4502 71.2044 55.7458C71.1371 57.8133 71.3429 59.8888 71.4021 61.9616C71.4678 64.2629 71.5105 66.5648 71.5469 68.8667C71.5539 69.3054 71.5049 69.748 71.4433 70.1834C71.4063 70.4445 71.2947 70.6949 71.1838 71.0574C70.6376 70.58 70.4518 70.0414 70.3808 69.4899C70.283 68.7312 70.2879 67.9599 70.2272 67.1957C69.9395 63.5837 69.5896 59.9757 69.3747 56.3595C69.2636 54.4911 69.3999 52.6087 69.3996 50.7327C69.3995 50.0005 69.347 49.2671 69.2878 48.5367C69.2561 48.1458 69.0191 47.9576 68.6035 47.92C67.1277 47.7864 67.1343 47.7744 67.1357 49.2489C67.1404 54.2792 67.1227 59.3097 67.1525 64.3399C67.1632 66.1351 67.3099 67.9291 67.3457 69.7245C67.3648 70.6851 67.2843 71.648 67.2376 72.6092C67.2301 72.7651 67.1649 72.918 66.9993 73.0972C66.9183 72.8476 66.809 72.6033 66.7603 72.3475C66.2436 69.6316 65.9745 66.8957 65.9698 64.1256C65.9615 59.1937 65.9471 54.2605 65.8281 49.3305C65.7031 44.1556 65.4345 38.9845 65.2609 33.8105C65.0313 26.972 64.7339 20.1333 64.6694 13.2928C64.6431 10.5046 64.8515 7.67983 65.4836 4.92759C65.6968 3.99885 66.0126 3.10617 66.6518 2.37126C67.6691 1.20203 68.604 1.27945 69.1514 2.71544C69.7059 4.16986 70.0542 5.70395 70.4698 7.20952C70.6903 8.00832 70.8619 8.82055 71.0556 9.62679C71.1091 9.63159 71.1627 9.63649 71.2162 9.6413C71.3609 9.05408 71.523 8.47049 71.6466 7.87886C71.8864 6.7304 72.0385 5.55911 72.3505 4.43152C72.6641 3.29776 73.2197 2.28287 74.4007 1.77709C75.0668 1.49181 75.4201 1.55355 75.9228 2.09304C76.8741 3.11391 77.2719 4.37997 77.5371 5.70709C77.7473 6.75843 77.9643 7.8085 78.1783 8.85906C78.2345 8.86396 78.2907 8.86876 78.3469 8.87366C78.5988 8.15699 78.8492 7.43982 79.1029 6.72374C79.5051 5.58782 79.8631 4.43318 80.3274 3.32304C80.7227 2.37773 81.3786 1.5955 82.2349 1.00789C83.0177 0.470652 83.7258 0.569436 84.091 1.43801C84.4965 2.40253 84.7993 3.4375 84.9635 4.47101C85.4159 7.31781 85.3916 10.1978 85.385 13.0725C85.3797 15.3753 85.3558 17.6781 85.3643 19.9808C85.3683 21.0579 85.4377 22.1346 85.4628 23.2118C85.4899 24.3742 85.9715 25.2981 86.926 25.9472C87.5036 26.34 88.1253 26.668 88.7294 27.0213C89.7554 27.6215 90.8143 28.1722 91.8018 28.83C92.8043 29.4976 93.605 30.3754 93.9999 31.5562C93.9999 31.7522 93.9999 31.9482 93.9999 32.1442ZM82.8983 2.84852C82.8239 2.82089 82.7496 2.79325 82.6752 2.76562C82.3835 3.07481 82.0056 3.3396 81.8183 3.70269C81.4469 4.4224 81.1087 5.17553 80.884 5.9516C80.1135 8.6119 79.7711 11.3481 79.592 14.1043C79.5253 15.1296 79.5364 16.1598 79.5005 17.1873C79.4789 17.8099 79.1267 18.2655 78.6373 18.3404C78.1219 18.4192 77.6644 18.1232 77.4385 17.5409C77.3566 17.3296 77.2942 17.1046 77.2639 16.8803C76.9565 14.6009 76.6745 12.3181 76.351 10.041C76.0874 8.1858 75.7868 6.33556 75.478 4.48718C75.4229 4.15653 75.2778 3.83048 75.1217 3.52943C74.8404 2.9867 74.5197 2.98827 74.2003 3.52149C74.0757 3.72945 73.9754 3.95739 73.8984 4.18779C73.1686 6.36976 72.8497 8.63444 72.7471 10.9134C72.6622 12.802 72.8248 14.7004 72.8008 16.5935C72.7911 17.3649 72.6287 18.147 72.4313 18.8967C72.3605 19.1656 71.9985 19.5081 71.7403 19.5347C71.4876 19.5607 71.0802 19.2891 70.9484 19.0388C70.6566 18.4846 70.3963 17.8774 70.2993 17.264C70.0346 15.5896 69.8988 13.895 69.6422 12.219C69.3189 10.1084 68.9387 8.00607 68.5575 5.90475C68.4182 5.13663 68.2277 4.37546 68.0136 3.62459C67.9497 3.40026 67.7264 3.22141 67.5761 3.02179C67.4033 3.21945 67.1834 3.3935 67.0697 3.62067C66.9184 3.9229 66.7967 4.25972 66.7542 4.59351C66.4507 6.9704 66.0664 9.34328 65.9049 11.7308C65.5705 16.6775 65.91 21.6201 66.1911 26.5612C66.4357 30.864 66.6307 35.1695 66.8477 39.4739C66.8756 40.028 66.9065 40.5819 66.9313 41.136C66.9488 41.5272 67.1531 41.6879 67.5358 41.6592C68.0567 41.6201 68.5783 41.5613 69.0998 41.5606C72.7564 41.5556 76.4132 41.5559 80.0698 41.5739C80.721 41.5771 81.3718 41.6688 82.0226 41.723C82.8845 41.7948 83.745 41.8964 84.6085 41.9353C85.2842 41.9658 85.531 41.7169 85.5778 41.0512C85.6052 40.6609 85.5988 40.2682 85.6024 39.8765C85.6164 38.3582 85.613 36.8396 85.6467 35.3219C85.6678 34.3735 86.1135 33.619 86.9122 33.1247C87.3778 32.8366 87.892 32.5808 88.4191 32.4483C89.4133 32.1984 90.4339 32.0549 91.4404 31.8516C91.6809 31.803 91.9091 31.6932 92.1431 31.6114C92.1545 31.5566 92.1658 31.502 92.1771 31.4472C91.9034 31.2359 91.6483 30.9933 91.3531 30.8184C89.5152 29.729 87.6761 28.6412 85.8216 27.5804C84.6546 26.9129 83.9876 25.9025 83.6566 24.6359C83.5331 24.1632 83.4025 23.69 83.3199 23.2094C82.7463 19.8675 83.1917 16.4955 83.0545 13.1385C82.9606 10.8434 83.1814 8.53703 83.1812 6.2357C83.1812 5.10664 82.9984 3.97758 82.8983 2.84852ZM75.1843 43.203C75.1842 43.2057 75.1841 43.2085 75.184 43.2113C72.7384 43.1139 70.2925 43.0249 67.8477 42.9115C67.3851 42.89 67.0937 43.0403 67.0762 43.502C67.0477 44.2507 67.042 45.0029 67.083 45.7506C67.1088 46.2188 67.3457 46.3336 67.8193 46.2909C68.8087 46.202 69.805 46.0348 70.79 46.0807C74.2761 46.2434 77.7589 46.4805 81.2427 46.6932C82.5269 46.7717 83.8103 46.8624 85.0942 46.9447C85.3831 46.9632 85.7225 46.9493 85.746 46.5952C85.7955 45.8499 85.7988 45.0988 85.7677 44.3522C85.7522 43.9807 85.5109 43.7349 85.1019 43.6949C84.5506 43.641 84.0023 43.5339 83.4502 43.5112C80.6955 43.3974 77.9398 43.3037 75.1843 43.203Z" fill="#2017CC"/>
<path d="M40.8999 62.6548C41.1146 67.2876 39.4342 71.3876 37.3106 75.3539C36.0326 77.7408 34.6571 80.0761 33.4037 82.4754C32.7342 83.7573 32.2138 85.1188 31.6568 86.4571C31.0664 87.8757 30.4756 89.29 29.4743 90.4834C29.3172 90.6708 29.1559 90.8577 28.9753 91.0214C28.7781 91.2004 28.5641 91.3625 28.3002 91.0928C28.241 91.0323 28.1096 90.9894 28.0303 91.0102C27.443 91.1642 27.0184 90.8218 26.6009 90.5257C24.1515 88.7891 21.6989 87.0563 19.275 85.2846C16.0725 82.944 12.8685 80.604 9.71641 78.1966C7.36818 76.4031 5.29292 74.3291 3.77697 71.7516C2.76071 70.0238 2.15113 68.1524 1.88432 66.1823C1.47686 63.1744 2.67073 60.7994 5.04131 59.0354C7.86405 56.935 11.0344 56.2843 14.498 57.0165C15.5182 57.2322 16.3901 57.6915 17.2412 58.2478C17.9231 58.6934 18.605 59.1462 19.3229 59.5278C19.893 59.8308 20.0149 59.738 20.3902 59.2117C23.4239 54.9582 27.5201 52.6781 32.782 52.7382C37.1342 52.7879 40.241 55.6545 40.7846 59.9671C40.8417 60.4199 40.8768 60.8764 40.8962 61.3324C40.9146 61.7726 40.8999 62.214 40.8999 62.6548ZM38.4091 62.7751C38.3503 61.9304 38.3407 61.0789 38.2239 60.2424C37.8507 57.5696 36.1794 55.7255 33.7007 55.2116C32.3939 54.9408 31.0957 55.0492 29.8259 55.4221C26.276 56.4652 23.6534 58.789 21.3993 61.5997C20.8715 62.2576 20.2647 62.2552 19.7849 61.5588C19.6392 61.3474 19.4088 61.153 19.1738 61.052C18.3522 60.6992 17.471 60.4666 16.6865 60.0491C15.0537 59.1802 13.3765 58.8461 11.54 59.1821C9.73788 59.5119 8.00579 59.9867 6.52159 61.1104C5.03955 62.2324 4.25892 63.7102 4.41321 65.5956C4.47682 66.3727 4.58199 67.1568 4.77333 67.9111C5.42172 70.4671 6.90592 72.544 8.66497 74.4426C11.0317 76.9971 13.8173 79.0531 16.6258 81.082C19.483 83.1462 22.3333 85.2201 25.1723 87.3092C25.8416 87.8016 26.4435 88.3846 27.095 88.9025C27.531 89.249 27.7534 89.1919 28.0332 88.71C28.1721 88.4707 28.3023 88.2237 28.4094 87.9688C30.2315 83.6327 32.4324 79.4864 34.6636 75.3515C36.7788 71.432 38.5383 67.3863 38.4091 62.7751Z" fill="#2017CC"/>
<path d="M26.9111 48.418C23.8151 48.4333 20.8223 49.0884 17.8658 49.9258C14.3697 50.916 10.8932 51.9764 7.39032 52.9411C6.62421 53.152 5.77527 53.1799 4.97651 53.123C4.12767 53.0626 3.77137 52.5235 3.6364 51.6903C3.21453 49.0849 2.74414 46.4876 2.32285 43.8821C2.2117 43.1949 2.20964 42.4899 2.15798 41.7932C2.12309 41.3224 2.12858 40.8443 2.04438 40.3826C1.94783 39.8529 1.68308 39.4253 1.14388 39.1847C0.906872 39.0789 0.6581 38.8672 0.545183 38.639C0.125858 37.7919 0.0655769 36.8741 0.288276 35.9711C0.458828 35.2793 1.12183 34.9918 1.91245 35.2268C2.91469 35.5247 3.65561 36.1041 3.8096 37.2258C3.879 37.7309 4.17246 38.0652 4.59395 38.3442C6.45591 39.5765 8.31876 40.8086 10.1516 42.0831C11.1274 42.7618 11.2967 42.7298 11.4399 41.5472C11.668 39.6635 11.9496 37.7974 12.8083 36.0715C12.988 35.7105 12.7673 35.4508 12.5333 35.2072C11.9286 34.5779 11.7694 33.8534 12.1125 33.0475C12.385 32.4073 12.9651 32.0988 13.658 32.2042C14.1699 32.282 14.7086 32.3048 15.1819 32.4892C16.1476 32.8656 16.2974 33.6174 15.6405 34.4237C15.5067 34.5878 15.3291 34.7422 15.2676 34.9321C15.2052 35.1248 15.1819 35.4046 15.2787 35.5622C15.8397 36.4762 16.4391 37.3667 17.03 38.2622C17.4072 38.8339 17.7659 39.4204 18.1807 39.9638C18.6666 40.6004 18.9495 40.5594 19.3063 39.8519C19.6805 39.1096 20.0181 38.3477 20.419 37.6204C21.0531 36.4701 21.851 35.4403 22.8281 34.5541C23.5142 33.9318 23.4614 33.7679 23.0091 32.9784C22.7347 32.4992 22.616 31.8759 22.607 31.3144C22.5967 30.6742 23.088 30.318 23.7526 30.2871C24.927 30.2324 26.622 31.3534 27.0088 32.457C27.2124 33.0377 27.0644 33.5784 26.6422 33.9908C26.2544 34.3696 26.1528 34.8068 26.252 35.2829C26.6171 37.0354 26.9616 38.7947 27.4111 40.5261C27.9022 42.4177 28.522 44.2757 29.0384 46.1613C29.1636 46.6188 29.1562 47.1318 29.1139 47.6108C29.0667 48.1463 28.7221 48.4032 28.1847 48.4256C27.973 48.4344 27.7604 48.4198 27.5482 48.4182C27.3356 48.4167 27.1234 48.418 26.9111 48.418ZM23.6176 36.3499C23.2088 36.9505 22.8014 37.4994 22.446 38.0802C21.4608 39.6903 20.801 41.4448 20.2089 43.2277C20.0092 43.8292 19.5787 44.0578 18.9914 43.8253C18.6488 43.6896 18.327 43.4804 18.0268 43.2617C16.9329 42.4645 16.3055 41.3347 15.7799 40.1198C15.4771 39.4195 15.1139 38.7391 14.7137 38.0893C14.4365 37.6391 14.232 37.6972 14.0027 38.1675C13.5728 39.0491 13.6031 40.0024 13.519 40.9428C13.4277 41.9638 13.3678 42.9984 13.145 43.9936C12.9217 44.9908 12.224 45.2813 11.3181 44.8107C10.2346 44.2478 9.1774 43.628 8.14379 42.9773C7.09489 42.3169 6.0953 41.5784 5.05748 40.8996C4.87546 40.7805 4.55797 40.6827 4.40036 40.764C4.24108 40.8459 4.14757 41.1568 4.12453 41.3778C4.09111 41.6983 4.12845 42.0303 4.16756 42.3535C4.51582 45.2361 4.87016 48.1179 5.22499 50.9997C5.3036 51.638 5.47739 51.7583 6.10589 51.5686C7.97873 51.0031 9.85216 50.4392 11.7177 49.8502C14.9376 48.8337 18.1552 47.811 21.5044 47.2924C22.6968 47.1078 23.9 46.9855 25.0854 46.7651C26.0345 46.5885 26.1693 46.2996 25.8778 45.4003C25.0844 42.9511 24.1641 40.5337 24.2657 37.8865C24.2861 37.3587 24.1475 36.8132 23.6176 36.3499Z" fill="#2017CC"/>
<path d="M51.0317 23.679C50.9815 23.9461 50.971 24.1628 50.898 24.3561C50.7498 24.7489 50.4643 25.0294 50.0326 25.048C49.6208 25.0657 49.3525 24.7722 49.2397 24.4235C49.0603 23.8692 48.941 23.2936 48.8249 22.7211C48.6164 21.6925 48.3902 21.4819 47.3348 21.5717C46.5569 21.638 45.7874 21.798 45.0115 21.8949C44.6904 21.935 44.3524 21.9704 44.0412 21.9099C43.8527 21.8734 43.6376 21.6766 43.5597 21.4973C43.5227 21.4123 43.75 21.1106 43.9069 21.06C44.7718 20.7807 45.6511 20.5459 46.5274 20.3028C46.7151 20.2507 46.911 20.2285 47.1026 20.1894C47.8655 20.0339 47.9512 19.9023 47.796 19.1227C47.7229 18.7553 47.6289 18.3909 47.5772 18.0206C47.4977 17.452 47.7363 17.2729 48.2813 17.4172C48.7754 17.548 49.0402 17.8794 49.2286 18.3213C49.8074 19.6792 49.8071 19.7101 51.506 19.5469C51.9583 19.5035 52.4162 19.4714 52.8689 19.4922C53.2738 19.511 53.5921 19.7124 53.6351 20.1677C53.6823 20.667 53.3493 20.8788 52.9395 20.9594C52.445 21.0566 51.9389 21.0942 51.4383 21.1613C50.7759 21.2501 50.5863 21.498 50.7082 22.1522C50.8063 22.6788 50.9295 23.2009 51.0317 23.679Z" fill="#2017CC"/>
<path d="M55.0217 0.995142C54.9409 1.49259 54.8505 1.98867 54.7821 2.48778C54.7211 2.9328 54.8895 3.16545 55.3756 3.24767C56.2646 3.3981 57.0343 3.83783 57.6614 4.48139C57.8111 4.63516 57.9283 4.97718 57.8588 5.15299C57.7423 5.44767 57.4318 5.40985 57.1402 5.29656C56.533 5.06067 55.9213 4.83076 55.2981 4.6427C54.6128 4.43592 54.3309 4.59076 54.1176 5.27323C53.9039 5.95698 53.7328 6.65386 53.5346 7.3426C53.3683 7.92031 52.9471 8.20931 52.4151 8.12572C51.9134 8.04693 51.5935 7.64709 51.6781 7.03665C51.7806 6.29724 51.9657 5.56802 52.1383 4.83998C52.2972 4.16975 52.1592 3.9274 51.4944 3.72875C51.1253 3.6185 50.7524 3.49728 50.4145 3.31823C50.2837 3.24885 50.245 3.00591 50.1643 2.84205C50.3191 2.77541 50.4734 2.65409 50.6287 2.65281C51.0182 2.64958 51.4085 2.6973 51.7979 2.73062C52.5595 2.79579 52.8315 2.60793 53.1952 1.933C53.4712 1.42105 53.8095 0.937322 54.1679 0.478192C54.2992 0.309926 54.5678 0.248872 54.7737 0.138916C54.8481 0.357554 54.9267 0.574918 54.9942 0.795614C55.0124 0.855296 54.9969 0.925268 54.9969 0.990536C55.0054 0.991908 55.0135 0.993476 55.0217 0.995142Z" fill="#2017CC"/>
<path d="M33.9347 6.2746C33.8852 6.745 33.843 7.21638 33.7843 7.6856C33.7109 8.27105 33.8486 8.5283 34.4022 8.74322C34.6753 8.84925 34.9636 8.9157 35.2371 9.02085C35.4483 9.10209 35.6945 9.17197 35.8379 9.32739C35.9795 9.48106 36.1206 9.77692 36.061 9.9345C36.0005 10.0947 35.6875 10.2635 35.4977 10.25C35.0639 10.2191 34.6258 10.1143 34.212 9.97371C33.7968 9.83268 33.5539 9.97508 33.376 10.3241C33.0946 10.876 32.8311 11.4375 32.5362 11.982C32.3664 12.2954 32.1741 12.6036 31.9472 12.8771C31.7278 13.1415 31.4685 13.113 31.2451 12.8401C30.8158 12.3154 30.7279 11.7243 30.9177 11.0892C31.0389 10.6835 31.1974 10.2891 31.3235 9.88462C31.4672 9.42363 31.3407 9.16579 30.8769 9.01899C30.583 8.92599 30.2718 8.88875 29.9698 8.81966C29.7477 8.76889 29.4973 8.75488 29.316 8.63738C29.1185 8.50939 28.986 8.28085 28.8252 8.09612C29.0339 8.00871 29.2402 7.85543 29.4518 7.84779C29.8712 7.8326 30.2966 7.87582 30.7138 7.93452C31.4893 8.0436 31.8382 7.84514 32.1728 7.10789C32.4276 6.54664 32.6889 5.98432 33.0047 5.45688C33.1188 5.26627 33.3999 5.17562 33.6049 5.03931C33.7009 5.25432 33.8272 5.46178 33.8836 5.68669C33.9299 5.87084 33.8931 6.07585 33.8931 6.27166C33.907 6.27273 33.9209 6.27362 33.9347 6.2746Z" fill="#2017CC"/>
<path d="M17.5972 23.5012C17.4508 23.4227 17.2937 23.3385 17.1367 23.2542C17.2392 23.1076 17.3098 22.9067 17.4501 22.8243C17.9262 22.5446 18.4191 22.29 18.9202 22.0571C19.6334 21.7254 19.7262 21.5572 19.4709 20.8107C19.3447 20.4415 19.1472 20.0937 19.0503 19.7186C18.9936 19.4988 18.9918 19.0999 19.1058 19.0372C19.3065 18.9269 19.6277 18.9656 19.8738 19.0325C20.0408 19.0779 20.1818 19.2647 20.3058 19.4123C20.473 19.6113 20.6181 19.8298 20.7635 20.0462C21.5109 21.1589 21.8871 21.0576 22.7301 20.6372C23.1687 20.4183 23.7297 20.3977 24.2372 20.3884C24.4279 20.3849 24.735 20.6365 24.7868 20.8268C24.8397 21.0217 24.7121 21.394 24.5457 21.4953C24.0967 21.7687 23.5995 21.9871 23.0946 22.1372C22.5406 22.302 22.3737 22.5069 22.6218 23.0423C22.84 23.5135 23.1644 23.9373 23.3636 24.4148C23.4668 24.6622 23.5224 25.0963 23.3843 25.242C23.1163 25.5246 22.6761 25.5925 22.3107 25.3303C22.077 25.1625 21.8702 24.9428 21.6932 24.714C21.5152 24.4838 21.3853 24.2158 21.2411 23.9607C20.6138 22.8517 20.3817 22.7662 19.1687 23.1261C18.6709 23.2735 18.1577 23.3691 17.5972 23.5012Z" fill="#2017CC"/>
<path d="M10.0999 91.594C10.2599 90.3215 10.4094 89.0474 10.5892 87.7777C10.6244 87.5289 10.7523 87.2824 10.8806 87.0596C11.1292 86.6278 11.5785 86.4678 12.0557 86.5984C12.5202 86.7256 12.6554 87.0878 12.6445 87.5002C12.6061 88.9625 12.5842 90.4271 12.4759 91.8849C12.4064 92.8211 12.2103 93.7492 12.0429 94.676C11.9727 95.0644 11.7513 95.3963 11.3223 95.4368C10.879 95.4786 10.6414 95.1419 10.4967 94.7914C10.3691 94.4824 10.2775 94.1393 10.2619 93.8068C10.2276 93.0752 10.2512 92.3409 10.2512 91.6076C10.2008 91.6031 10.1503 91.5985 10.0999 91.594Z" fill="#2017CC"/>
<path d="M45.8291 67.1284C47.5768 67.4743 49.2771 68.0034 50.705 69.175C50.8948 69.3308 51.046 69.5796 51.1238 69.8155C51.2395 70.1664 50.9227 70.5271 50.6183 70.4196C48.8283 69.7869 46.946 69.709 45.0891 69.475C44.6854 69.4241 44.2836 69.3517 43.8854 69.2677C43.6103 69.2097 43.4592 69.0314 43.5195 68.7332C43.7243 67.7198 43.8418 67.499 44.7856 67.3211C45.1211 67.2578 45.4571 67.197 45.8291 67.1284Z" fill="#2017CC"/>
<path d="M0.904541 88.0841C1.01011 87.7613 1.08196 87.4223 1.22722 87.1184C1.85699 85.8013 2.76288 84.7016 3.92626 83.8191C4.11926 83.6728 4.33745 83.5517 4.55907 83.4528C4.91184 83.2955 5.27765 83.1962 5.60072 83.5246C5.90115 83.83 6.00367 84.4198 5.75157 84.7934C5.23276 85.5622 4.68591 86.3133 4.12338 87.051C3.66887 87.6471 3.16936 88.2089 2.70015 88.794C2.47725 89.0721 2.27004 89.3347 1.84974 89.1756C1.22359 88.9384 0.936299 88.6037 0.904541 88.0841Z" fill="#2017CC"/>
<path d="M22.1514 97.8896C20.6676 96.4634 19.5891 94.9942 19.9147 92.9333C19.9863 92.4802 20.2484 92.0122 20.5446 91.6508C20.9529 91.1525 21.5837 91.1949 21.9738 91.7092C22.4226 92.3009 22.6675 92.9556 22.5689 93.7467C22.4444 94.7455 22.4362 95.7584 22.3564 96.7635C22.3296 97.0997 22.2373 97.4307 22.1514 97.8896Z" fill="#2017CC"/>
<path d="M36.5101 85.4376C36.701 85.5093 37.101 85.6088 37.4509 85.7999C38.7399 86.5042 39.6735 87.5899 40.508 88.7665C40.765 89.1289 40.5228 89.4266 40.2218 89.5566C39.962 89.6689 39.5908 89.7218 39.3398 89.6221C38.2007 89.17 37.1195 88.5922 36.2511 87.7063C35.9391 87.388 35.6632 87.0009 35.4814 86.5956C35.163 85.8863 35.5347 85.3977 36.5101 85.4376Z" fill="#2017CC"/>
<path d="M40.834 75.675C41.2713 75.8186 41.6435 75.8727 41.9412 76.0508C43.0316 76.7032 44.1125 77.3745 45.1608 78.0919C45.402 78.257 45.4987 78.6333 45.6619 78.9124C45.3065 79.033 44.9053 79.3244 44.6038 79.2437C43.4753 78.9414 42.3586 78.5672 41.2815 78.1149C40.8442 77.9313 40.4976 77.5001 40.1514 77.1413C39.8743 76.8542 39.9324 76.4776 40.157 76.1957C40.3326 75.9754 40.6133 75.8389 40.834 75.675Z" fill="#2017CC"/>
<path d="M23.1755 3.23684C22.4463 3.01424 21.705 2.82418 20.9904 2.56149C19.8934 2.15815 18.8072 1.72196 17.7343 1.25843C17.514 1.16326 17.3722 0.886255 17.1943 0.692962C17.4325 0.577104 17.667 0.45213 17.9111 0.350681C17.994 0.316276 18.1066 0.320589 18.1972 0.342447C19.8723 0.746676 21.5468 1.15414 23.2195 1.56798C23.3914 1.61052 23.5757 1.66746 23.7126 1.77205C23.9276 1.93643 24.2812 2.16119 24.267 2.33517C24.2336 2.74597 23.9506 3.0757 23.486 3.15323C23.3901 3.16921 23.2919 3.17176 23.1948 3.18048C23.1883 3.1994 23.1819 3.21812 23.1755 3.23684Z" fill="#2017CC"/>
</svg>
