<svg width="150" height="150" viewBox="0 0 150 150" fill="none" xmlns="http://www.w3.org/2000/svg">
<path fill-rule="evenodd" clip-rule="evenodd" d="M64.7998 1.45436C86.5155 -0.830178 110.129 -2.61113 125.959 13.9987C144.135 33.0699 154.223 62.1367 148.305 89.0714C142.461 115.666 120.482 132.994 97.5561 143.257C76.6188 152.63 52.976 152.672 33.2005 140.598C14.6398 129.266 4.0843 107.325 0.756336 84.1552C-2.2905 62.943 4.03857 41.8048 16.6678 25.4963C28.7194 9.93387 46.3635 3.3939 64.7998 1.45436Z" fill="#2017CC"/>
<path d="M115.447 20.3878C115.125 20.7416 114.848 21.1573 114.472 21.439C112.076 23.2342 109.665 25.0095 107.244 26.7704C106.331 27.4344 105.375 28.0381 104.446 28.6806C104.232 28.8288 104.02 29.001 103.86 29.2038C103.643 29.4787 103.662 29.7559 103.983 29.9749C104.791 30.5269 105.594 31.0878 106.402 31.6408C106.572 31.7576 106.749 31.8678 106.934 31.9605C107.688 32.3399 107.864 32.2086 107.86 31.3604C107.858 30.8538 107.885 30.3346 107.994 29.8424C108.241 28.726 108.996 28.2019 110.116 28.4111C110.981 28.5726 111.821 28.8642 112.678 29.0751C113.058 29.1687 113.452 29.2556 113.839 29.2556C114.312 29.2555 114.419 28.9975 114.325 28.5349C114.19 27.8764 114.056 27.2063 114.039 26.538C114.011 25.4867 115.207 24.3313 116.537 25.1276C117.054 25.4371 117.558 25.769 118.082 26.0648C118.798 26.4691 119.008 26.3254 119.046 25.5181C119.072 24.9751 119.126 24.4207 119.268 23.8988C119.534 22.9165 120.19 22.5717 121.172 22.8582C121.675 23.0053 122.159 23.2227 122.654 23.3989C123.539 23.7133 123.825 23.518 123.746 22.5861C123.688 21.8989 123.761 21.3056 124.223 20.7367C124.697 20.1537 125.478 20.3632 125.619 21.0032C125.751 21.6008 125.768 22.2349 125.754 22.8512C125.743 23.3951 125.636 23.9392 125.543 24.4786C125.385 25.4007 124.819 25.8185 123.892 25.6561C123.377 25.566 122.878 25.3806 122.371 25.2434C122.045 25.1552 121.721 25.0462 121.388 25.0019C121.042 24.9557 120.838 25.0974 120.815 25.5073C120.778 26.1837 120.731 26.8677 120.594 27.5286C120.369 28.6075 119.847 28.8712 118.826 28.4474C118.167 28.1739 117.54 27.8254 116.896 27.514C116.612 27.3765 116.324 27.2478 115.921 27.061C116.032 27.8501 116.119 28.5336 116.226 29.214C116.426 30.488 116 31.0954 114.71 31.0462C113.633 31.0052 112.551 30.7935 111.494 30.5576C109.883 30.1985 109.46 30.5198 109.376 32.1798C109.337 32.9649 109.588 33.5794 110.109 34.1161C110.988 35.0219 111.871 35.9248 112.764 36.8166C112.852 36.9038 113.093 36.9785 113.142 36.9316C113.248 36.83 113.317 36.649 113.329 36.4949C113.387 35.7245 113.407 34.9508 113.475 34.1814C113.499 33.9054 113.597 33.6281 113.702 33.3686C114.068 32.4723 114.72 32.1179 115.646 32.4145C116.32 32.6301 116.954 32.9778 117.598 33.2811C118.006 33.4731 118.39 33.7224 118.806 33.891C119.361 34.1156 119.532 33.9502 119.589 33.3522C119.653 32.6807 119.783 32.0152 119.897 31.3492C119.922 31.203 119.989 31.0622 120.049 30.9243C120.911 28.9481 122.332 28.7132 123.803 30.2819C124.03 30.524 124.356 30.6725 124.636 30.8644C124.745 30.5598 124.887 30.2624 124.957 29.9491C125.102 29.3066 125.148 28.6366 125.344 28.0123C125.667 26.9845 126.452 26.7255 127.394 27.2407C127.718 27.4183 128.064 27.5672 128.414 27.6853C129.019 27.8891 129.333 28.3468 129.187 28.8746C129.039 29.4115 128.471 29.6844 127.872 29.5068C127.836 29.4961 127.799 29.4881 127.764 29.475C126.74 29.0985 126.633 29.1577 126.325 30.2512C126.177 30.7769 126.056 31.3147 125.856 31.8206C125.517 32.6758 124.93 32.9235 124.091 32.5351C123.585 32.3006 123.12 31.9649 122.662 31.6391C122.188 31.3018 121.849 31.3193 121.563 31.8329C121.403 32.119 121.326 32.4655 121.274 32.7948C121.2 33.2601 121.198 33.7362 121.142 34.2051C121.016 35.2717 120.464 35.8227 119.408 35.6896C118.431 35.5664 117.469 35.267 116.523 34.9729C115.692 34.7151 115.422 34.828 115.332 35.7053C115.279 36.2108 115.316 36.725 115.285 37.2337C115.268 37.5121 115.264 37.8284 115.131 38.0549C114.878 38.4847 114.921 38.8957 115.204 39.2115C115.637 39.6937 116.118 40.1526 116.651 40.5162C117.048 40.7879 117.228 40.6052 117.283 40.1236C117.356 39.492 117.403 38.8366 117.613 38.2467C117.924 37.379 118.64 37.0485 119.523 37.3178C120.052 37.4791 120.556 37.7518 121.039 38.0311C121.493 38.2937 121.886 38.6628 122.34 38.927C122.96 39.2887 123.27 39.1415 123.432 38.44C123.593 37.7419 123.699 37.0302 123.876 36.3367C124.006 35.8291 124.154 35.3111 124.396 34.8514C124.766 34.1482 125.454 34.0146 126.125 34.4415C126.364 34.593 126.589 34.7637 126.825 34.9191C127.228 35.1846 127.533 35.1183 127.703 34.6406C127.786 34.4099 127.855 34.1744 127.941 33.9452C128.132 33.4368 128.603 33.2692 128.944 33.6787C129.261 34.0607 129.577 34.579 129.593 35.0478C129.62 35.8252 129.468 36.6268 129.276 37.3889C129.066 38.219 128.231 38.4116 127.606 37.8284C127.331 37.5718 127.094 37.2745 126.831 37.0045C126.236 36.3941 125.803 36.4345 125.462 37.2284C125.137 37.9862 124.895 38.7862 124.683 39.5854C124.366 40.7823 123.717 41.1989 122.557 40.7766C121.854 40.5206 121.198 40.1361 120.518 39.815C119.902 39.5241 119.552 39.652 119.464 40.3204C119.343 41.2329 119.283 42.1609 119.292 43.0813C119.299 43.8144 119.774 44.3206 120.37 44.7149C120.759 44.9729 121.016 44.8313 121.176 44.4614C121.279 44.223 121.321 43.9565 121.379 43.7001C121.45 43.3879 121.478 43.0624 121.579 42.7611C122.031 41.4066 122.859 41.0953 124.048 41.8645C124.71 42.2931 125.311 42.8167 125.961 43.2671C126.763 43.8228 127.142 43.6459 127.286 42.6857C127.385 42.0158 127.411 41.3239 127.6 40.6805C127.967 39.4317 128.928 39.1662 129.865 40.0646C130.255 40.4395 130.562 40.9572 130.759 41.4675C131.043 42.2072 130.62 42.6787 129.843 42.4883C129.353 42.3679 129.194 42.5406 129.079 42.9387C128.97 43.3193 128.858 43.6996 128.73 44.074C128.301 45.3269 127.495 45.7196 126.274 45.2518C125.73 45.0437 125.214 44.7654 124.67 44.5584C123.821 44.235 123.249 44.4647 122.995 45.3363C122.776 46.09 122.624 46.8862 122.6 47.6686C122.574 48.5258 123.368 48.868 123.946 49.285C124.41 49.6203 124.832 49.2907 125.224 49.0106C126.465 48.1226 127.716 47.2484 128.949 46.3491C129.297 46.0951 129.597 46.0982 129.92 46.3524C130.009 46.4222 130.1 46.4888 130.189 46.5586C131.232 47.3794 131.247 47.9315 130.176 48.7092C129.616 49.1163 128.989 49.4323 128.383 49.7746C127.614 50.2094 126.828 50.6127 126.066 51.0594C125.234 51.5472 124.459 51.561 123.718 50.9119C122.805 50.1107 121.796 49.3931 121.159 48.3102C121.027 48.0845 120.851 47.8809 120.675 47.6842C120.145 47.0893 119.84 47.0851 119.288 47.6393C117.264 49.6707 115.249 51.7101 113.206 53.7216C112.873 54.0503 112.862 54.3242 112.954 54.7502C113.28 56.2579 113.649 57.7679 113.809 59.2973C114.042 61.5252 113.101 63.3091 111.229 64.4836C109.897 65.3197 108.444 65.9614 107.042 66.6859C106.875 66.7719 106.701 66.8536 106.521 66.9007C105.682 67.1203 105.245 67.6009 105.043 68.5065C104.709 70.0043 103.756 71.1764 102.613 72.1744C101.527 73.1233 100.325 73.8995 98.9744 74.4115C97.5626 74.9467 96.5677 74.6552 95.6232 73.4773C95.293 73.0655 94.9982 72.6235 94.6497 72.2287C94.1499 71.6623 93.8219 71.6341 93.176 72.0236C92.2974 72.5534 91.38 72.986 90.335 73.0342C88.6382 73.1123 87.4651 72.1648 87.2754 70.4649C87.1888 69.6884 87.2666 68.8867 87.3331 68.1019C87.3821 67.5246 87.276 67.2807 86.6839 67.2279C86.2001 67.1848 85.708 67.2255 85.2201 67.2432C83.6983 67.2984 83.1988 66.7567 82.8445 65.1743C82.7029 64.5414 82.7974 63.8574 82.7597 63.1981C82.7222 62.5431 82.5515 62.4424 82.0025 62.8105C79.5956 64.4244 77.2019 66.0582 74.6812 67.7675C74.9687 67.8378 75.1141 67.8846 75.2631 67.9079C76.6529 68.1245 77.4015 68.8032 77.5989 70.1996C78.0586 73.4518 78.5373 76.7035 78.8854 79.9687C79.3877 84.6817 79.8122 89.4036 80.2112 94.1266C80.534 97.9473 80.7588 101.776 81.0477 105.6C81.4021 110.29 81.7673 114.978 82.1492 119.666C82.3285 121.868 82.5873 124.064 82.7447 126.267C82.7891 126.89 82.6845 127.554 82.5023 128.154C82.248 128.992 81.6407 129.361 80.7691 129.297C67.6606 128.341 54.5361 128.977 41.4191 128.893C36.7308 128.863 32.0437 128.828 27.3737 128.347C26.0464 128.21 24.7197 128.065 23.3982 127.882C23.202 127.855 22.9658 127.637 22.8738 127.446C22.7389 127.166 22.6746 126.834 22.6541 126.519C22.4419 123.26 22.1807 120.002 22.0614 116.739C21.9483 113.644 22.0297 110.542 21.9524 107.445C21.7654 99.9462 21.541 92.4483 21.3196 84.9503C21.2544 82.7416 21.1755 80.5327 21.0474 78.3271C21.0006 77.5223 20.8108 76.7231 20.6533 75.9281C20.4869 75.0878 20.5982 74.5887 21.058 74.3638C21.5464 74.1248 22.3463 74.3433 22.7496 74.9317C22.9821 75.271 23.111 75.7106 23.1869 76.1236C23.364 77.087 23.4264 78.0737 23.6367 79.0284C23.8729 80.1014 24.3401 80.3506 25.4089 80.1157C26.8591 79.7971 28.2951 79.3902 29.759 79.1644C31.1674 78.9471 32.6022 78.8844 34.0281 78.8024C37.767 78.5876 41.5065 78.3801 45.2474 78.206C48.6498 78.0477 52.0546 77.9458 55.4577 77.8017C56.9604 77.7381 58.4608 77.5684 59.963 77.557C63.7084 77.5285 67.4543 77.5657 71.2 77.5707C72.2165 77.5721 73.2334 77.5365 74.2496 77.5503C74.6832 77.5562 74.888 77.4039 74.8565 76.9649C74.7633 75.6671 74.6899 74.3674 74.5688 73.0722C74.4882 72.2101 74.3392 71.3546 74.2111 70.4251C73.9723 70.4251 73.7349 70.4147 73.4988 70.4265C68.7234 70.6654 63.9481 70.9065 59.1729 71.148C55.0181 71.3582 50.864 71.5844 46.7084 71.7771C41.0859 72.0378 35.4632 72.2999 29.8387 72.5085C26.7168 72.6243 23.5912 72.6455 20.4669 72.6747C19.9927 72.6791 19.4972 72.5468 19.0494 72.3769C18.8135 72.2873 18.6597 71.9799 18.4688 71.7708C18.6926 71.6232 18.9005 71.3879 19.1432 71.3437C19.9747 71.1922 20.8165 71.0912 21.6576 71.0002C29.0334 70.2017 36.4329 69.7329 43.8414 69.3766C51.9265 68.9878 60.01 68.5657 68.0942 68.1571C68.2034 68.1515 68.3119 68.1317 68.3904 68.122C68.2348 64.1653 69.5839 60.7882 72.0143 57.7733C74.9012 54.1922 78.3278 51.2482 82.285 48.9308C83.0033 48.5101 83.2522 47.9582 83.124 47.1974C82.8821 45.7625 82.8842 44.341 83.276 42.9324C83.6472 41.5982 84.3669 40.6285 85.5815 39.8142C87.3499 38.6287 89.1149 38.6822 90.9747 39.1852C92.1141 39.4934 93.2213 39.931 94.3263 40.3544C94.8168 40.5424 95.1626 40.4924 95.5235 40.0907C97.3041 38.1084 99.1923 36.2379 101.361 34.6773C102.002 34.2159 102.688 33.8172 103.342 33.3728C103.864 33.0177 103.892 32.6909 103.4 32.295C102.991 31.9658 102.53 31.7024 102.093 31.4077C101.289 30.8656 100.965 30.0617 101.409 29.2024C101.791 28.4638 102.284 27.7132 102.911 27.1871C104.22 26.0883 105.615 25.0833 107.038 24.134C108.666 23.0478 110.324 21.9949 112.043 21.0645C112.9 20.6002 113.92 20.4339 114.872 20.1528C115.015 20.1108 115.189 20.1794 115.349 20.1968C115.382 20.2606 115.415 20.3242 115.447 20.3878ZM24.2849 99.5969C24.2637 99.5978 24.2425 99.5987 24.2213 99.5996C24.2213 100.771 24.1944 101.942 24.2336 103.112C24.2512 103.634 24.3746 104.158 24.5007 104.669C24.5943 105.047 24.8416 105.212 25.2718 105.085C25.7384 104.947 26.2228 104.854 26.706 104.792C27.7266 104.661 28.3336 104.165 28.6475 103.125C29.6848 99.6892 31.1673 96.4569 33.3618 93.593C34.9239 91.5543 36.6737 89.7131 39.0633 88.6364C41.7741 87.4149 44.2682 87.7861 46.5028 89.764C47.1662 90.3512 47.7976 90.9744 48.4468 91.5778C50.1729 93.1823 51.8833 94.8047 53.6361 96.3794C54.3937 97.0601 54.6881 96.9983 55.1703 96.1391C56.1677 94.3622 57.6654 93.1655 59.4079 92.1821C60.5632 91.5299 61.6476 91.5638 62.7025 92.2482C63.5832 92.8196 64.4384 93.452 65.2171 94.1553C66.839 95.6202 68.4048 97.1477 69.9877 98.6556C70.1773 98.8363 70.3877 99.0313 70.4848 99.2633C70.5913 99.5173 70.6856 99.8769 70.58 100.086C70.5039 100.237 70.0537 100.327 69.8369 100.251C69.2952 100.063 68.7179 99.8543 68.2849 99.4955C66.4437 97.97 64.6513 96.3852 62.8371 94.8268C62.5094 94.5452 62.1853 94.2484 61.8194 94.025C61.1628 93.6242 60.6278 93.6806 60.0647 94.1937C59.6761 94.548 59.297 94.9228 58.9712 95.3343C58.3745 96.0879 57.8428 96.8934 57.2442 97.6453C55.5665 99.7516 54.2542 99.9614 52.1887 98.2506C50.6988 97.0165 49.3506 95.6065 47.9725 94.2411C46.6574 92.938 45.3294 91.6702 43.708 90.7338C42.4317 89.9967 41.2154 89.9336 39.8547 90.5395C37.4958 91.5899 35.7547 93.3069 34.3004 95.3759C32.5571 97.8559 31.3103 100.61 29.9689 103.312C29.572 104.111 29.6709 104.268 30.5778 104.213C35.0867 103.942 39.593 103.622 44.1039 103.39C50.4385 103.064 56.7752 102.769 63.1134 102.521C66.7432 102.378 70.3781 102.371 74.0096 102.266C74.8302 102.242 75.6604 102.121 76.4605 101.934C77.2829 101.742 77.5618 101.287 77.5521 100.448C77.549 100.185 77.5264 99.9192 77.482 99.6598C77.2434 98.2651 76.9348 96.8795 76.7632 95.4768C76.4309 92.7602 76.1511 90.0365 75.8923 87.3117C75.6512 84.7747 75.4615 82.2325 75.2586 79.692C75.2107 79.0919 74.99 78.8782 74.3909 78.9441C73.8685 79.0016 73.3492 79.1193 72.8262 79.1348C71.1517 79.1844 69.4757 79.1859 67.8009 79.2297C62.8147 79.3601 57.8269 79.4508 52.8436 79.6524C46.9955 79.889 41.1509 80.2142 35.3059 80.524C31.8104 80.7093 28.3166 80.9269 24.8236 81.1557C23.8587 81.2188 23.833 81.3017 23.8572 82.2665C24.0016 88.0432 24.1427 93.82 24.2849 99.5969ZM24.5911 126.71C24.9393 126.71 25.2198 126.71 25.5003 126.71C33.6132 126.692 41.7264 126.628 49.839 126.671C56.1437 126.704 62.4479 126.859 68.7519 126.98C72.082 127.045 75.4107 127.193 78.7408 127.227C80.547 127.245 80.8875 126.709 80.6513 124.913C80.1521 121.117 79.7096 117.312 79.2326 113.513C78.8329 110.329 78.4323 107.146 78.0004 103.967C77.8507 102.866 77.7228 102.813 76.5911 102.877C70.0153 103.247 63.437 103.578 56.8642 103.998C52.9969 104.244 49.1385 104.634 45.2757 104.952C44.0609 105.053 42.8442 105.13 41.6284 105.217C41.26 105.244 40.8875 105.244 40.5237 105.3C39.5065 105.458 38.4978 105.683 37.4761 105.792C36.8243 105.862 36.2066 105.601 35.4817 105.716C34.6197 105.852 33.7115 105.928 32.8211 106.018C30.407 106.262 27.9885 106.461 25.5725 106.687C24.626 106.776 24.3493 107.094 24.322 108.069C24.2902 109.2 24.2239 110.331 24.2328 111.462C24.2622 115.201 24.3039 118.94 24.3726 122.678C24.3965 123.995 24.5125 125.311 24.5911 126.71ZM84.8185 45.3933C84.8997 46.4706 84.9181 47.3816 85.0482 48.2761C85.2079 49.3731 85.3897 50.4769 85.6939 51.54C85.9936 52.5875 86.667 53.4095 87.6872 53.8815C88.2394 54.1371 88.5536 53.9679 88.5335 53.3699C88.5011 52.4091 88.4078 51.45 88.3282 50.4912C88.2114 49.0822 88.0704 47.6749 87.9673 46.2648C87.9204 45.6244 88.2596 45.1718 88.8383 44.9452C89.4262 44.7151 89.9389 44.9097 90.383 45.3397C91.3836 46.3083 92.4041 47.2566 93.3898 48.2403C93.9079 48.7572 94.3924 49.3129 94.8479 49.8865C95.0842 50.1842 95.2213 50.5656 94.9099 50.9228C94.6236 51.2512 94.0365 51.311 93.6257 51.074C92.9084 50.6603 92.2022 50.2251 91.4698 49.8402C90.8102 49.4934 90.6869 49.6123 90.651 50.3712C90.5984 51.4797 90.5798 52.6 90.3962 53.6898C90.1557 55.117 88.9234 55.8956 87.5032 55.635C85.906 55.3421 84.8605 54.3438 84.2154 52.9064C83.9001 52.2038 83.7134 51.444 83.4167 50.7318C83.1611 50.1182 82.9482 50.0994 82.4847 50.5632C81.0982 51.9509 79.706 53.3327 78.3281 54.729C76.1397 56.9467 74.0414 59.243 72.3479 61.8772C71.4416 63.287 70.7756 64.7989 70.5465 66.4766C70.4618 67.0969 70.6554 67.2917 71.2703 67.1509C71.666 67.0603 72.0657 66.9026 72.4095 66.6878C73.0949 66.2598 73.7805 65.8171 74.4002 65.301C77.5695 62.6613 81.1083 60.5706 84.5951 58.4108C85.9782 57.554 87.4858 56.8761 88.991 56.2478C90.6651 55.5492 92.4288 55.1296 94.2678 55.2199C95.4379 55.2774 96.0565 55.825 96.3093 56.9651C96.3951 57.3517 96.4484 57.746 96.5413 58.1307C96.6463 58.5666 96.8717 58.8107 97.3801 58.8898C98.0958 59.0014 98.8117 59.2101 99.4825 59.4875C100.225 59.7943 100.51 60.4414 100.433 61.2437C100.404 61.5442 100.365 61.8461 100.368 62.1469C100.372 62.5915 100.577 62.8419 101.063 62.839C101.418 62.8368 101.781 62.8689 102.128 62.9414C103.339 63.1936 104.448 63.5862 104.936 64.91C105.108 65.3783 105.489 65.4705 105.962 65.1757C107.128 64.4498 108.301 63.7303 109.417 62.9311C110.69 62.019 111.067 60.7363 110.681 59.2257C110.583 58.8427 110.457 58.4668 110.348 58.0865C110.083 57.1629 109.754 56.2514 109.572 55.3116C109.334 54.0843 109.618 53.075 110.747 52.2621C113.195 50.4985 115.497 48.5512 117.461 46.2264C117.99 45.5999 118.043 44.9702 117.643 44.3691C117.201 43.704 116.674 43.0588 116.063 42.5529C115.02 41.6898 113.858 40.9734 112.792 40.1356C112.027 39.5341 111.287 38.8832 110.626 38.1698C109.034 36.4514 107.469 34.7171 105.404 33.5355C104.985 33.2959 104.715 33.3266 104.377 33.6783C101.739 36.4267 99.0952 39.1699 96.4195 41.8813C96.1007 42.2043 95.5856 42.491 95.1513 42.5065C94.3203 42.5362 93.4644 42.4363 92.6506 42.2499C91.2422 41.9272 89.8727 41.4266 88.4599 41.1301C86.6058 40.741 85.4867 41.5099 85.0733 43.3724C84.9151 44.0859 84.8865 44.8282 84.8185 45.3933ZM85.0138 62.8062C84.746 64.4627 85.65 64.832 86.9842 64.6388C87.0953 64.6227 87.2055 64.5976 87.3148 64.5717C90.3513 63.8501 92.625 62.094 94.2044 59.4173C94.4006 59.0847 94.5475 58.6962 94.6088 58.316C94.7126 57.6735 94.3013 57.2632 93.6544 57.3038C93.2801 57.3272 92.9057 57.3771 92.5362 57.4426C90.5365 57.7967 88.7346 58.7141 86.8617 59.4356C85.6463 59.9037 85.1082 60.7807 85.0165 62.0143C84.997 62.2769 85.0138 62.5423 85.0138 62.8062ZM90.2884 68.2623C90.2884 68.5826 90.2659 68.9049 90.2931 69.2229C90.3531 69.9256 90.729 70.1797 91.4127 69.9855C91.6456 69.9192 91.895 69.847 92.0858 69.7074C92.9193 69.0976 93.7683 68.5017 94.5475 67.8262C95.6546 66.8664 96.595 65.7473 97.0344 64.3169C97.2412 63.6439 97.3718 62.9166 97.3629 62.216C97.3538 61.4874 96.8265 61.1801 96.1877 61.5098C95.5619 61.8327 94.8252 62.1951 94.4793 62.7535C93.8119 63.8307 92.8774 64.5338 91.886 65.2189C90.8232 65.9533 89.9806 66.8016 90.2884 68.2623ZM102.697 67.6751C102.695 67.0713 102.616 66.483 102.045 66.1387C101.467 65.7903 100.865 65.4814 100.266 65.1697C99.9618 65.0113 99.6383 65.0138 99.5186 65.387C99.1708 66.4727 98.3649 67.2269 97.6787 68.0733C97.2178 68.6418 96.7479 69.2172 96.3881 69.8503C95.999 70.5349 96.1428 71.0353 96.7022 71.5818C97.2375 72.105 97.9053 72.2219 98.5292 71.9162C99.535 71.4235 100.532 70.88 101.438 70.2251C102.26 69.6313 102.692 68.7326 102.697 67.6751Z" fill="#FFCCD5"/>
<path d="M122.204 81.5607C121.998 82.0969 121.827 82.6556 121.573 83.1732C121.3 83.7303 120.972 84.2649 120.624 84.7793C120.356 85.1765 120.44 85.4645 120.816 85.6665C121.445 86.0039 122.085 86.3219 122.735 86.6147C124.038 87.2012 125.355 87.7546 126.655 88.3464C126.94 88.4761 127.203 88.6828 127.432 88.9011C127.874 89.3231 127.755 89.8792 127.154 90.0058C126.731 90.095 126.234 90.0932 125.828 89.9583C124.779 89.6096 123.758 89.1714 122.731 88.7561C121.809 88.3829 120.908 87.9483 119.966 87.6362C119.672 87.539 119.191 87.6464 118.945 87.8459C118.455 88.2435 118.008 88.7286 117.649 89.2505C116.495 90.928 115.4 92.6465 114.255 94.3309C113.994 94.7152 113.654 95.0611 113.298 95.3618C112.817 95.7682 112.416 95.6814 112.07 95.1563C111.727 94.6345 111.733 94.0492 111.983 93.529C112.406 92.6499 112.874 91.7852 113.403 90.9671C114.058 89.9546 114.796 88.996 115.497 88.0134C115.541 87.9521 115.577 87.8851 115.616 87.8205C116.39 86.538 116.262 86.0819 114.863 85.5236C113.624 85.029 112.35 84.623 111.105 84.1426C110.335 83.8455 109.578 83.506 108.839 83.1378C108.522 82.9798 108.081 82.7666 108.237 82.3073C108.398 81.8357 108.846 81.8305 109.288 81.8983C111.456 82.2311 113.574 82.762 115.533 83.7625C116.877 84.4493 117.976 84.2573 118.983 83.1811C119.525 82.6031 120.087 82.0444 120.642 81.4802C120.801 81.3194 120.947 81.1226 121.141 81.028C121.361 80.921 121.664 80.8129 121.861 80.8886C122.019 80.9496 122.074 81.2836 122.204 81.5607Z" fill="#FFCCD5"/>
<path d="M109.628 74.1438C109.789 73.9119 109.903 73.6166 110.118 73.4587C111.239 72.6341 112.363 71.811 113.528 71.0521C114.709 70.2829 115.953 69.6122 117.133 68.842C117.361 68.6935 117.563 68.2654 117.527 68.0003C117.451 67.4326 117.231 66.8799 117.033 66.3342C116.797 65.6797 116.498 65.0474 116.277 64.3883C116.185 64.114 116.131 63.7597 116.227 63.5067C116.337 63.2204 116.597 62.9274 116.868 62.7956C117.002 62.7306 117.385 62.9679 117.521 63.1627C117.907 63.7163 118.22 64.321 118.57 64.9009C118.899 65.4482 119.213 66.0087 119.583 66.5278C119.883 66.9492 120.287 66.9872 120.781 66.7697C122.722 65.9133 124.666 65.057 126.639 64.2794C127.188 64.0632 127.849 64.0345 128.448 64.0739C128.978 64.1088 129.089 64.5276 128.699 64.9096C128.395 65.2074 128.024 65.4494 127.65 65.6593C125.765 66.7198 123.868 67.7595 121.978 68.8114C121.237 69.2239 121.212 69.3477 121.661 70.0803C122.379 71.2533 123.149 72.3995 123.792 73.6126C124.182 74.3472 124.437 75.1721 124.626 75.986C124.7 76.3054 124.429 76.7055 124.315 77.0688C123.973 76.9391 123.541 76.8987 123.306 76.6616C122.755 76.1042 122.249 75.4863 121.815 74.8321C121.036 73.6561 120.324 72.4348 119.581 71.2338C119.235 70.6748 118.793 70.5623 118.124 70.933C116.891 71.6156 115.676 72.3297 114.454 73.0319C113.493 73.5845 112.539 74.1508 111.567 74.6853C111.292 74.8367 110.974 74.9241 110.665 74.9948C109.997 75.1479 109.697 74.8877 109.628 74.1438Z" fill="#FFCCD5"/>
<path d="M37.8359 40.0448C39.0061 38.0695 40.4713 36.5647 42.1235 35.2295C44.7435 33.1118 47.7219 31.5595 50.5699 29.797C54.6827 27.2518 58.726 24.5938 62.8062 21.9954C63.0819 21.8198 63.4086 21.672 63.7273 21.6291C64.295 21.5528 64.6983 21.9525 64.5156 22.4845C64.3417 22.9908 64.0526 23.5666 63.6377 23.8639C55.4694 29.718 46.7201 34.6455 38.1691 39.8901C38.1084 39.9273 38.0397 39.9509 37.8359 40.0448Z" fill="#FFCCD5"/>
<path d="M53.0059 38.1668C52.2721 38.1619 52.0577 37.8608 52.3858 37.3848C52.7786 36.815 53.2155 36.2526 53.7271 35.7919C57.9954 31.9493 62.6877 28.7392 67.9206 26.3574C68.4635 26.1103 69.0559 25.9621 69.6371 25.8152C69.9212 25.7434 70.2503 25.7141 70.526 25.7887C70.7432 25.8475 70.9544 26.0687 71.073 26.2732C71.111 26.3388 70.8764 26.6311 70.7133 26.7369C66.4332 29.5133 62.143 32.2739 57.8619 35.0488C56.4243 35.9807 55.0094 36.9477 53.5777 37.8889C53.3656 38.0283 53.1179 38.1134 53.0059 38.1668Z" fill="#FFCCD5"/>
<path d="M117.989 106.37C119.306 106.348 119.445 106.436 119.714 107.227C119.927 107.851 119.705 108.29 119.056 108.281C118.237 108.268 117.412 108.156 116.607 108C116.004 107.883 115.423 107.639 114.839 107.431C114.127 107.178 113.766 107.293 113.543 108.026C113.309 108.798 113.186 109.603 113.023 110.396C112.868 111.153 112.73 111.914 112.572 112.67C112.534 112.852 112.459 113.029 112.38 113.199C112.188 113.611 111.932 113.96 111.416 113.937C110.89 113.913 110.382 113.513 110.326 112.954C110.267 112.362 110.271 111.743 110.379 111.161C110.624 109.846 110.994 108.555 111.231 107.239C111.43 106.131 111.2 105.864 110.109 105.527C109.554 105.356 108.995 105.186 108.464 104.956C108.275 104.874 108.007 104.549 108.048 104.45C108.135 104.244 108.381 104.026 108.601 103.972C108.956 103.885 109.343 103.9 109.714 103.922C110.088 103.944 110.457 104.037 110.83 104.081C112.012 104.222 112.144 104.13 112.594 103.014C112.772 102.569 112.904 101.994 113.549 102.079C114.199 102.164 114.235 102.742 114.299 103.25C114.322 103.436 114.317 103.628 114.303 103.815C114.234 104.753 114.433 105.128 115.315 105.459C116.309 105.831 117.324 106.145 117.989 106.37Z" fill="#FFCCD5"/>
<path d="M120.842 101.387C121.174 101.462 121.685 101.588 122.199 101.693C123.232 101.904 123.512 101.702 123.724 100.683C123.796 100.338 123.909 99.9868 124.078 99.6793C124.396 99.0991 124.867 99.051 125.21 99.6056C125.479 100.041 125.618 100.565 125.771 101.063C125.881 101.421 125.912 101.803 125.99 102.172C126.135 102.86 126.5 103.345 127.168 103.648C127.62 103.854 128.052 104.163 128.399 104.519C128.614 104.74 128.836 105.241 128.728 105.426C128.562 105.712 128.124 105.847 127.787 106.02C127.703 106.063 127.566 106.013 127.456 105.989C126.619 105.808 126.317 106.131 126.376 107.01C126.423 107.717 126.407 108.438 126.326 109.143C126.271 109.613 126.164 110.214 125.596 110.304C125.019 110.397 124.811 109.823 124.55 109.418C124.027 108.608 123.989 107.676 123.885 106.759C123.824 106.216 123.71 105.678 123.671 105.134C123.615 104.349 123.169 103.898 122.488 103.637C122.05 103.469 121.595 103.35 121.152 103.194C120.834 103.082 120.479 103.005 120.224 102.806C119.976 102.611 119.664 102.268 119.683 102.012C119.72 101.508 120.175 101.357 120.842 101.387Z" fill="#FFCCD5"/>
<path d="M89.6442 32.0073C89.2612 31.8836 88.9152 31.7949 88.5866 31.6622C84.5426 30.0299 81.0319 27.5653 77.7922 24.6793C77.1031 24.0654 76.4006 23.4661 75.7285 22.834C75.5747 22.6895 75.5214 22.4375 75.4219 22.2349C75.658 22.2143 75.9173 22.1191 76.1267 22.1844C77.9272 22.7462 79.5039 23.7386 80.9954 24.8626C83.4168 26.6875 85.8761 28.4482 88.5222 29.9396C89.0661 30.246 89.517 30.7316 89.9727 31.1741C90.089 31.2871 90.1274 31.5728 90.0749 31.7387C90.0355 31.8628 89.7925 31.9217 89.6442 32.0073Z" fill="#FFCCD5"/>
<path d="M27.999 50.8789C30.4558 51.0609 32.6123 51.148 34.6293 51.9479C35.5044 52.295 36.2897 52.8737 37.1061 53.3634C37.2441 53.4462 37.3688 53.5952 37.4361 53.7428C37.5315 53.9522 37.6794 54.2508 37.5987 54.3961C37.5151 54.5465 37.1735 54.6464 36.9661 54.6169C36.243 54.5142 35.534 54.3114 34.811 54.2087C32.3015 53.8526 29.7834 53.5537 27.2796 53.1611C26.6377 53.0604 26.0214 52.7268 25.4258 52.4339C25.2301 52.3376 24.9938 51.9986 25.0325 51.8302C25.0816 51.6177 25.3692 51.3584 25.5958 51.3077C26.489 51.1075 27.3985 50.9812 27.999 50.8789Z" fill="#FFCCD5"/>
<path d="M100.216 115.051C100.407 115.179 100.802 115.333 101.036 115.619C101.88 116.653 102.781 117.666 103.456 118.808C104.412 120.424 105.201 122.142 106.027 123.833C106.205 124.196 106.278 124.626 106.324 125.034C106.371 125.45 106.127 125.612 105.766 125.4C105.382 125.172 104.96 124.927 104.702 124.579C103.1 122.412 101.511 120.235 99.9862 118.014C99.5936 117.443 99.3835 116.718 99.2041 116.034C99.0439 115.423 99.4318 115.031 100.216 115.051Z" fill="#FFCCD5"/>
<path d="M93.2832 120.286C92.641 120.481 92.122 120.295 91.7463 119.882C91.2175 119.301 90.717 118.679 90.3014 118.013C89.2643 116.351 88.2617 114.667 87.2913 112.965C87.0395 112.523 86.8905 111.994 86.8156 111.487C86.7317 110.919 87.168 110.676 87.6464 110.508C88.112 110.344 88.3388 110.615 88.5682 110.943C90.2977 113.416 91.4922 116.168 92.6909 118.917C92.8843 119.361 93.0754 119.806 93.2832 120.286Z" fill="#FFCCD5"/>
<path d="M36.5569 62.5563C36.0341 62.6037 35.506 62.7232 34.9893 62.6858C32.817 62.5281 30.6439 62.3614 28.4796 62.1206C27.3845 61.9989 26.304 61.7292 25.2249 61.4901C24.9226 61.4231 24.6055 61.2762 24.3758 61.0738C24.1927 60.9125 24.0068 60.5821 24.0531 60.38C24.0976 60.186 24.4358 59.9331 24.6507 59.9275C25.53 59.9047 26.4192 59.9029 27.2908 60.0093C30.0147 60.3417 32.7035 60.866 35.3208 61.7101C35.7609 61.852 36.1712 62.0868 36.5953 62.2787C36.5826 62.3712 36.5698 62.4637 36.5569 62.5563Z" fill="#FFCCD5"/>
<path d="M67.987 35.0017C67.1806 35.0159 66.8946 34.5731 67.3148 34.0157C67.797 33.3761 68.3595 32.7779 68.9686 32.2582C70.2322 31.1802 71.6138 30.2681 73.1842 29.691C73.53 29.5639 73.9121 29.4871 74.2782 29.4843C74.4794 29.4827 74.7951 29.6414 74.8554 29.8041C74.9295 30.0038 74.8487 30.3183 74.7279 30.5178C74.6103 30.7119 74.3385 30.8045 74.1681 30.9754C73.8747 31.2693 73.6069 31.5891 73.3293 31.899C73.2797 31.9544 73.2446 32.0277 73.1863 32.0697C71.8474 33.0369 70.5791 34.1195 69.0045 34.7069C68.6373 34.844 68.2499 34.9267 67.987 35.0017Z" fill="#FFCCD5"/>
<path d="M99.1751 78.5514C99.7373 78.6528 100.138 78.6829 100.51 78.8025C101.003 78.9609 101.306 78.7772 101.54 78.3717C101.69 78.1104 101.801 77.8134 101.998 77.5958C102.152 77.4271 102.479 77.2136 102.61 77.2753C102.819 77.3736 103.018 77.6692 103.057 77.9082C103.106 78.2096 102.993 78.5385 102.945 78.8548C102.881 79.2727 103.036 79.4982 103.449 79.6637C103.854 79.8263 104.233 80.0983 104.561 80.3925C104.703 80.5192 104.796 80.8894 104.712 81.0283C104.618 81.1847 104.303 81.219 104.077 81.2776C103.999 81.2978 103.9 81.2255 103.809 81.2053C102.804 80.9835 102.232 81.2852 101.867 82.2598C101.708 82.6825 101.615 83.1301 101.455 83.5522C101.284 84.0038 100.938 84.1014 100.653 83.7211C100.441 83.4393 100.329 83.0156 100.331 82.6558C100.333 82.2332 100.517 81.8137 100.602 81.3887C100.706 80.8649 100.497 80.5102 99.9898 80.3334C99.6706 80.2221 99.348 80.1171 99.038 79.9835C98.6734 79.8264 98.2976 79.5608 98.4655 79.1458C98.5785 78.8668 98.9799 78.7051 99.1751 78.5514Z" fill="#FFCCD5"/>
<path d="M49.4632 62.7119C47.3017 62.4954 45.105 62.0406 43.0443 61.0718C42.7399 60.9285 42.5297 60.5833 42.2759 60.3314C42.5808 60.1483 42.8769 59.8294 43.1924 59.8086C44.0047 59.7552 44.8393 59.7491 45.6397 59.8798C46.8187 60.0722 47.98 60.3835 49.1396 60.6805C49.4582 60.7621 49.7593 60.9492 50.0409 61.1308C50.4452 61.3916 50.7113 61.7405 50.5408 62.2694C50.3744 62.7861 49.9381 62.6805 49.4632 62.7119Z" fill="#FFCCD5"/>
<path d="M91.6613 27.8091C91.6755 28.4288 91.4193 28.6494 90.9924 28.5537C90.5773 28.4606 90.1589 28.3127 89.7871 28.1067C88.212 27.234 86.8315 26.1085 85.6644 24.733C85.4011 24.4225 85.1845 24.0568 85.0209 23.6835C84.9482 23.5175 84.9878 23.1718 85.1062 23.0839C85.2579 22.9713 85.6026 22.9401 85.7571 23.0402C87.1081 23.916 88.46 24.7952 89.7586 25.7461C90.3587 26.1855 90.8515 26.7765 91.3708 27.32C91.5276 27.4844 91.6102 27.7202 91.6613 27.8091Z" fill="#FFCCD5"/>
<path d="M100.697 89.0761C100.688 88.2523 101.554 87.402 102.342 87.432C102.503 87.4381 102.673 87.3354 102.831 87.2661C103.577 86.9398 104.166 86.7672 104.322 87.806C104.371 88.1283 104.528 88.4545 104.708 88.7322C105.023 89.2194 104.942 89.6613 104.651 90.0988C104.36 90.5355 103.981 90.6391 103.477 90.438C103.296 90.3658 103.029 90.4207 102.831 90.4968C101.758 90.9103 100.711 90.2222 100.697 89.0761Z" fill="#FFCCD5"/>
<path d="M49.3301 43.5831C48.3781 43.4329 47.6705 43.35 46.9788 43.1953C46.7589 43.1461 46.5816 42.9058 46.3848 42.753C46.5333 42.5727 46.6455 42.3187 46.8362 42.2237C48.3831 41.4533 50.0044 41.233 51.694 41.656C51.8014 41.6828 51.9348 41.7164 51.9965 41.7943C52.1981 42.0493 52.5089 42.3249 52.5116 42.5953C52.5135 42.7935 52.1237 43.1176 51.8628 43.1743C50.9549 43.3716 50.0273 43.4769 49.3301 43.5831Z" fill="#FFCCD5"/>
<path d="M67.2813 72.8189C67.6339 72.4966 68.0191 72.5902 68.3824 72.7537C68.9807 73.023 69.5325 73.0787 70.0393 72.5654C70.127 72.4766 70.2687 72.3911 70.3853 72.3914C70.6863 72.3917 70.9873 72.4408 71.2882 72.4704C71.1945 72.7314 71.1079 72.9955 71.0026 73.2517C70.9685 73.3346 70.8838 73.3961 70.8241 73.4691C70.3863 74.005 70.406 74.1832 70.9597 74.6199C71.1664 74.7829 71.4297 74.901 71.5772 75.1049C71.7213 75.3042 71.7504 75.587 71.8299 75.8331C71.5715 75.8415 71.2744 75.9355 71.0632 75.8393C70.6932 75.671 70.3625 75.4029 70.04 75.1455C69.6116 74.8039 69.2437 74.872 68.8215 75.1799C68.4974 75.4162 68.1171 75.5947 67.7364 75.723C67.5852 75.7739 67.2899 75.6723 67.2018 75.543C67.1345 75.4441 67.2441 75.1568 67.3538 75.0143C68.2555 73.8431 68.2612 73.8474 67.2813 72.8189Z" fill="#FFCCD5"/>
<path d="M59.4681 47.6105C58.742 47.4738 58.041 47.3578 57.3497 47.1994C57.1934 47.1636 56.9528 46.9715 56.9601 46.8661C56.9716 46.7009 57.1266 46.4799 57.281 46.4011C58.6507 45.7011 60.093 45.5161 61.5952 45.87C61.702 45.8951 61.8278 45.9357 61.8959 46.0127C62.0842 46.2257 62.3581 46.4523 62.378 46.692C62.3902 46.8382 62.0176 47.1084 61.7799 47.1668C61.0186 47.3541 60.2396 47.4683 59.4681 47.6105Z" fill="#FFCCD5"/>
<path d="M65.0075 42.7921C67.5398 41.7276 72.2905 41.4353 73.2475 42.4025C72.9198 42.5286 72.6526 42.6981 72.3705 42.7287C70.8195 42.8965 69.2672 43.0807 67.7104 43.1566C66.8077 43.2006 65.8955 43.0517 64.9878 42.9896C64.9943 42.9237 65.0009 42.8578 65.0075 42.7921Z" fill="#FFCCD5"/>
<path d="M30.5293 76.0666C30.5336 75.2077 31.0969 74.7009 32.0382 74.7088C32.9513 74.7165 33.6695 75.3314 33.6555 76.0935C33.6425 76.7984 32.8228 77.4146 31.8904 77.4204C31.0143 77.4257 30.525 76.939 30.5293 76.0666Z" fill="#FFCCD5"/>
<path d="M122.164 114.858C122.103 113.742 122.173 113.674 123.386 113.834C123.697 113.875 124.121 113.763 124.202 114.239C124.289 114.759 124.377 115.297 123.789 115.628C123.3 115.904 122.826 116.206 122.329 116.464C122.209 116.526 121.985 116.514 121.877 116.439C121.699 116.316 121.516 116.135 121.446 115.938C121.346 115.654 121.247 115.299 121.339 115.045C121.388 114.909 121.842 114.922 122.164 114.858Z" fill="#FFCCD5"/>
<path d="M66.6495 48.6344C66.8306 48.6545 67.1463 48.6385 67.4201 48.7384C67.5961 48.8027 67.7892 49.0207 67.8274 49.2011C67.8581 49.3464 67.7112 49.6229 67.5688 49.6967C66.5081 50.2465 65.3631 50.4544 64.1847 50.309C63.5872 50.2353 63.4882 49.7743 63.9174 49.3312C64.4651 48.7656 65.2226 48.8172 65.9106 48.6727C66.1106 48.6309 66.323 48.6491 66.6495 48.6344Z" fill="#FFCCD5"/>
<path d="M28.6419 75.8613C28.6093 75.9764 28.5637 76.2387 28.462 76.4768C28.1712 77.158 27.6297 77.5157 27.1415 77.3786C26.5808 77.2211 26.1221 76.5752 26.1665 76.0058C26.2196 75.3253 26.7756 74.7613 27.4401 74.7139C28.2986 74.6525 28.666 74.9578 28.6419 75.8613Z" fill="#FFCCD5"/>
<path d="M95.2491 26.6255C94.1482 26.3268 93.3187 25.7221 92.7979 24.7513C92.6813 24.5341 92.6808 24.0675 92.8247 23.9388C93.0528 23.7349 93.481 23.5804 93.7664 23.649C94.7429 23.8838 95.5596 25.5323 95.2491 26.6255Z" fill="#FFCCD5"/>
<path d="M79.2595 31.5891C79.5962 31.7864 79.9334 31.8695 80.0198 32.0645C80.1215 32.294 80.0954 32.6724 79.9675 32.8954C79.5668 33.5946 78.9188 34.014 78.1452 34.2163C77.7722 34.3139 77.5443 34.1882 77.499 33.7497C77.4493 33.2681 77.2701 32.7524 77.7584 32.4197C78.2215 32.1041 78.7407 31.8714 79.2595 31.5891Z" fill="#FFCCD5"/>
<path d="M92.9348 35.3665C91.9978 36.1232 91.0794 36.4156 90.041 36.2618C89.5657 36.1914 89.3317 35.8275 89.3041 35.3864C89.2762 34.9401 89.6686 34.8412 89.9991 34.7973C90.986 34.6663 91.9023 34.9277 92.9348 35.3665Z" fill="#FFCCD5"/>
<path d="M49.8144 49.8549C50.0929 49.8934 50.3762 49.9122 50.6478 49.9791C50.7774 50.011 50.9822 50.1369 50.9804 50.2163C50.9772 50.356 50.8748 50.5418 50.756 50.6228C50.0041 51.1353 49.1609 51.3899 48.2549 51.3371C48.0672 51.3261 47.8068 51.1063 47.7405 50.9239C47.6858 50.7736 47.8131 50.4699 47.9562 50.3491C48.4879 49.9002 49.1297 49.7858 49.8144 49.8549Z" fill="#FFCCD5"/>
<path d="M37.4453 75.715C37.4599 76.2461 36.909 76.7612 36.3237 76.7636C35.8007 76.7657 35.4378 76.3638 35.4077 75.7489C35.3775 75.1318 35.8212 74.619 36.3994 74.6024C36.9507 74.5866 37.4283 75.0946 37.4453 75.715Z" fill="#FFCCD5"/>
<path d="M61.844 85.9391C61.8337 85.7694 61.819 85.5999 61.8137 85.43C61.7603 83.7195 62.6849 82.655 64.3899 82.5686C66.4402 82.4646 68.244 83.1381 69.7565 84.5263C70.5411 85.2464 71.0548 86.1434 71.1155 87.2423C71.2336 89.3805 69.6813 91.0262 67.5418 91.049C66.4072 91.061 65.2779 91.041 64.2431 90.4826C62.6437 89.6195 61.8003 88.295 61.8226 86.449C61.8247 86.2792 61.8229 86.1092 61.8229 85.9393C61.83 85.9391 61.837 85.9391 61.844 85.9391ZM66.4058 88.8541C66.703 88.8272 66.9476 88.8165 67.1887 88.7814C68.2732 88.6231 68.6688 87.9167 68.0272 87.0383C67.4845 86.295 66.7618 85.6682 66.0522 85.0691C65.5773 84.668 64.9633 84.366 64.3502 84.8178C63.7325 85.2732 63.8561 85.9382 63.9952 86.5788C63.9991 86.5972 64.0014 86.6161 64.0062 86.6343C64.3627 87.9441 65.4042 88.8854 66.4058 88.8541Z" fill="#FFCCD5"/>
<path d="M72.099 119.996C69.3582 120.347 66.6204 120.725 63.8748 121.033C63.0437 121.126 62.1808 121.104 61.3504 120.996C60.0947 120.833 59.2594 120.048 58.9201 118.84C58.6874 118.011 58.5355 117.142 58.4806 116.283C58.3794 114.701 58.3743 113.112 58.3335 111.525C58.3272 111.28 58.333 111.034 58.3515 110.789C58.5041 108.769 59.3831 107.879 61.3904 107.701C62.8335 107.573 64.275 107.368 65.7199 107.339C66.8748 107.316 68.038 107.474 69.1886 107.622C69.5778 107.672 69.9307 107.963 70.3166 108.095C70.6827 108.221 71.0802 108.388 71.4464 108.353C72.1387 108.287 72.6161 108.58 72.881 109.133C73.3186 110.045 73.7438 110.98 74.0239 111.948C74.6292 114.041 74.9397 116.19 74.9351 118.374C74.9317 119.972 74.7198 120.163 73.1309 120.13C72.7923 120.123 72.4535 120.129 72.1148 120.129C72.1095 120.085 72.1043 120.04 72.099 119.996ZM60.9836 114.836C61.0369 114.838 61.0902 114.841 61.1436 114.843C61.1436 115.542 61.1259 116.242 61.1492 116.939C61.1673 117.481 61.1893 118.03 61.2963 118.557C61.4026 119.082 61.7869 119.345 62.3388 119.301C63.0892 119.243 63.8392 119.18 64.5893 119.118C66.5748 118.952 68.5591 118.769 70.5465 118.629C71.144 118.586 71.7498 118.68 72.3516 118.678C73.2533 118.675 73.5241 118.374 73.3668 117.49C73.2615 116.899 73.0554 116.327 72.908 115.743C72.5619 114.372 72.291 112.978 71.8684 111.632C71.0793 109.118 70.0205 108.514 67.4137 108.914C65.7591 109.168 64.1026 109.41 62.4441 109.636C61.6234 109.748 61.3877 109.851 61.2923 110.667C61.1306 112.049 61.0806 113.445 60.9836 114.836Z" fill="#FFCCD5"/>
<path d="M52.3026 111.444C52.2009 111.652 52.1386 112.001 51.9698 112.064C51.7834 112.134 51.4668 111.989 51.2671 111.851C51.0596 111.707 50.8836 111.48 50.7653 111.252C50.5115 110.762 50.1599 110.783 49.7883 111.04C49.4499 111.274 49.1501 111.565 48.8378 111.837C48.6102 112.034 48.3976 112.25 48.1651 112.441C47.0324 113.372 46.1823 113.254 45.3177 112.05C45.142 111.805 44.9869 111.542 44.7882 111.318C44.4522 110.939 44.1825 110.969 43.8692 111.37C43.4403 111.918 43.0481 112.505 42.56 112.994C41.371 114.187 40.3198 114.158 39.1543 112.952C38.7488 112.532 38.3852 112.072 37.9811 111.65C37.348 110.99 36.9854 110.996 36.4287 111.729C36.008 112.282 35.6739 112.901 35.2672 113.467C35.0166 113.815 34.736 114.16 34.4017 114.42C34.2406 114.546 33.8521 114.573 33.6964 114.461C33.4869 114.311 33.2431 113.949 33.29 113.739C33.7557 111.659 34.6608 109.862 36.7003 108.891C37.4577 108.53 37.8953 108.61 38.4549 109.247C38.8137 109.656 39.1041 110.125 39.432 110.561C39.624 110.817 39.808 111.084 40.0328 111.308C40.5944 111.868 41.1012 111.808 41.5939 111.189C42.11 110.542 42.6455 109.909 43.1934 109.288C43.3776 109.079 43.6131 108.908 43.8478 108.754C44.5373 108.302 45.0192 108.397 45.4735 109.08C45.7235 109.456 45.9188 109.869 46.173 110.241C46.6171 110.892 47.089 110.929 47.6654 110.396C48.2736 109.834 48.8587 109.242 49.5104 108.736C49.8182 108.497 50.265 108.303 50.6363 108.323C50.9675 108.34 51.4553 108.61 51.5697 108.892C51.8922 109.687 52.0576 110.546 52.3026 111.444Z" fill="#FFCCD5"/>
<path d="M43.1119 118.59C40.8198 118.634 38.5279 118.686 36.2355 118.711C36.0373 118.714 35.8374 118.542 35.6382 118.451C35.7939 118.285 35.9257 118.011 36.109 117.97C37.1508 117.739 38.1977 117.475 39.2564 117.388C41.7469 117.182 44.2442 117.056 46.7402 116.928C47.6542 116.882 48.573 116.905 49.4888 116.93C49.8006 116.939 50.1585 116.978 50.4053 117.14C50.6318 117.289 50.737 117.624 50.8956 117.877C50.6671 118.005 50.4439 118.232 50.2094 118.245C48.896 118.315 47.5796 118.326 46.2648 118.374C45.213 118.412 44.162 118.473 43.1107 118.525C43.1111 118.546 43.1116 118.568 43.1119 118.59Z" fill="#FFCCD5"/>
<path d="M46.5594 121.433C45.9848 121.569 45.4161 121.742 44.8346 121.832C42.5649 122.184 40.2892 122.491 37.9846 122.246C37.7722 122.223 37.5746 122.062 37.3701 121.965C37.5461 121.814 37.7036 121.566 37.9014 121.528C38.8761 121.338 39.8578 121.108 40.8438 121.071C42.5682 121.006 44.2976 121.067 46.0249 121.087C46.2027 121.089 46.3797 121.174 46.557 121.22C46.5577 121.291 46.5585 121.362 46.5594 121.433Z" fill="#FFCCD5"/>
<path d="M101.26 51.7854C101.375 51.5938 101.553 51.2213 101.798 50.9009C102.153 50.4381 102.581 50.031 102.935 49.5677C103.481 48.8544 103.468 48.4026 102.954 47.6704C102.456 46.961 101.972 46.2404 101.456 45.5441C101.17 45.1575 101.272 44.8086 101.542 44.5268C101.84 44.2163 102.151 44.4622 102.381 44.675C102.837 45.0957 103.256 45.5564 103.699 45.992C103.994 46.2821 104.296 46.5669 104.609 46.8367C104.913 47.098 105.227 47.1171 105.589 46.8955C105.955 46.6722 106.348 46.4512 106.758 46.3588C106.99 46.3064 107.329 46.4546 107.532 46.6205C107.79 46.8306 107.695 47.1213 107.479 47.3629C107.367 47.4886 107.279 47.6364 107.186 47.7785C106.649 48.6011 106.663 48.8497 107.221 49.6623C107.62 50.243 108.149 50.7593 108.066 51.5729C108 52.222 107.718 52.4231 107.2 52.0439C106.781 51.7373 106.417 51.3425 106.071 50.9495C105.678 50.5027 105.324 50.4244 104.887 50.8384C104.576 51.1332 104.329 51.4977 104.062 51.8381C103.783 52.1939 103.541 52.5818 103.235 52.9115C102.943 53.2267 102.599 53.5539 102.109 53.355C101.62 53.1566 101.218 52.4785 101.26 51.7854Z" fill="#FFCCD5"/>
<path d="M68.0785 117.046C67.2388 116.751 66.392 116.474 65.5643 116.149C65.3556 116.067 65.1417 115.859 65.0524 115.655C64.982 115.494 65.0495 115.219 65.1527 115.056C65.2114 114.964 65.4993 114.922 65.6244 114.982C66.8785 115.585 68.0697 115.63 69.2138 114.712C69.486 114.493 69.6881 114.626 69.7716 114.975C70.0613 116.188 69.4633 116.894 68.1316 116.893C68.1138 116.944 68.0961 116.995 68.0785 117.046Z" fill="#FFCCD5"/>
<path d="M67.4585 111.863C67.4637 110.883 68.0536 110.489 68.8825 110.994C69.3084 111.253 69.669 111.672 69.9584 112.089C70.1961 112.431 70.0332 112.787 69.6229 112.942C69.3628 113.041 69.0891 113.13 68.8148 113.159C67.9359 113.249 67.4538 112.776 67.4585 111.863Z" fill="#FFCCD5"/>
<path d="M63.4289 112.104C63.4359 111.563 63.6902 111.324 64.2413 111.341C64.8171 111.36 65.248 111.72 65.2534 112.189C65.2592 112.692 64.8424 113.067 64.2824 113.061C63.724 113.055 63.421 112.715 63.4289 112.104Z" fill="#FFCCD5"/>
</svg>
