<svg width="151" height="150" viewBox="0 0 151 150" fill="none" xmlns="http://www.w3.org/2000/svg">
<path fill-rule="evenodd" clip-rule="evenodd" d="M77.396 0.189867C103.381 -1.02266 133.956 3.15315 147.042 24.9763C159.328 45.4656 139.814 68.5405 131.813 90.9394C125.546 108.481 122.77 127.872 106.693 137.932C88.1262 149.551 64.5953 154.036 44.2174 145.755C22.6747 137.001 7.80209 117.551 2.31569 95.5171C-3.26115 73.1204 1.25213 49.4119 15.6696 31.1065C30.4638 12.3228 53.0644 1.32525 77.396 0.189867Z" fill="#2017CC"/>
<path d="M127.076 55.9453C126.784 56.9136 126.091 57.538 125.187 57.8448C124.058 58.2282 122.882 58.476 121.726 58.7792C121.639 58.8021 121.545 58.7971 121.456 58.8112C120.063 59.0302 119.741 59.4124 119.89 60.8163C120.792 69.3483 120.963 77.9115 121.054 86.4813C121.099 90.646 121.295 94.8091 121.409 98.9732C121.417 99.2519 121.402 99.6054 121.243 99.7955C121.049 100.029 120.698 100.238 120.403 100.256C119.997 100.28 119.94 99.8651 119.902 99.5348C119.743 98.1622 119.563 96.7914 119.443 95.4153C119.118 91.6837 118.813 87.9505 118.518 84.2164C118.44 83.2198 118.419 82.218 118.388 81.2181C118.335 79.5101 118.302 77.8017 118.247 76.0938C118.234 75.6777 118.185 75.261 118.126 74.8485C118.045 74.2863 117.748 73.9473 117.148 73.8497C116.434 73.7336 116.084 73.9231 116.077 74.67C116.069 75.4463 116.146 76.2312 116.267 76.9996C116.691 79.6967 116.622 82.388 116.385 85.1C116.153 87.7428 116.054 90.399 115.962 93.0516C115.898 94.9024 115.953 96.7574 115.933 98.6102C115.928 99.0785 115.923 99.5763 115.764 100.003C115.658 100.287 115.279 100.47 115.022 100.698C114.833 100.476 114.549 100.282 114.473 100.026C114.319 99.5084 114.217 98.9595 114.202 98.4206C114.165 97.1305 114.178 95.8384 114.193 94.5474C114.221 92.0579 114.235 89.5677 114.314 87.0796C114.357 85.7547 114.58 84.4352 114.616 83.1103C114.66 81.4946 114.556 79.8752 114.587 78.2589C114.612 76.9923 114.725 75.7258 114.843 74.4633C114.883 74.0354 114.87 73.8175 114.345 73.8444C113.676 73.8787 112.999 73.7821 112.33 73.823C111.551 73.8706 111.363 74.149 111.434 74.9078C111.751 78.2587 112.031 81.6103 111.905 84.9832C111.777 88.382 111.665 91.7817 111.575 95.1817C111.548 96.214 111.634 97.2488 111.635 98.2825C111.636 99.2065 111.621 100.133 111.553 101.053C111.525 101.438 111.321 101.802 110.84 101.816C110.34 101.83 110.178 101.453 110.129 101.067C109.869 98.9961 109.532 96.9271 109.42 94.8467C109.296 92.5431 109.399 90.2279 109.382 87.9179C109.359 84.8072 109.287 81.6967 109.296 78.5864C109.299 77.2985 109.444 76.01 109.548 74.7237C109.599 74.1016 109.462 73.8369 108.857 73.8055C108.17 73.7699 107.477 73.8101 106.789 73.8531C106.674 73.8603 106.548 74.0353 106.471 74.1601C106.42 74.2419 106.444 74.3725 106.443 74.4814C106.401 81.7757 106.353 89.07 106.322 96.3644C106.316 97.7093 106.382 99.0545 106.397 100.4C106.4 100.685 106.394 101.014 106.259 101.245C106.135 101.459 105.832 101.568 105.607 101.723C105.484 101.521 105.279 101.328 105.252 101.114C105.119 100.05 105.019 98.9808 104.931 97.9118C104.401 91.4353 104.327 84.9405 104.194 78.4492C104.167 77.1079 104.325 75.7621 104.414 74.4196C104.454 73.8214 104.4 73.7528 103.822 73.737C103.278 73.7221 102.734 73.6501 102.19 73.6445C101.458 73.637 101.26 73.8958 101.347 74.6176C101.654 77.1481 101.766 79.6787 101.683 82.2358C101.608 84.5388 101.838 86.8508 101.904 89.1597C101.977 91.7231 102.024 94.2873 102.065 96.8515C102.073 97.3401 102.018 97.8332 101.949 98.3182C101.908 98.609 101.784 98.8879 101.66 99.2917C101.052 98.76 100.845 98.16 100.766 97.5456C100.657 96.7005 100.662 95.8414 100.595 94.9901C100.274 90.9666 99.8845 86.9475 99.6451 82.9193C99.5214 80.8381 99.6732 78.7413 99.6729 76.6516C99.6728 75.836 99.6142 75.019 99.5483 74.2054C99.513 73.7699 99.249 73.5603 98.7861 73.5184C97.1422 73.3696 97.1495 73.3562 97.151 74.9987C97.1562 80.6021 97.1366 86.2056 97.1698 91.8089C97.1817 93.8086 97.3451 95.807 97.385 97.807C97.4063 98.877 97.3165 99.9496 97.2646 101.02C97.2561 101.194 97.1835 101.364 96.9991 101.564C96.9088 101.286 96.7871 101.014 96.7329 100.729C96.1573 97.7035 95.8576 94.656 95.8523 91.5702C95.8431 86.0765 95.827 80.5813 95.6945 75.0896C95.5553 69.3252 95.2561 63.5649 95.0626 57.8016C94.8069 50.184 94.4756 42.5661 94.4038 34.9463C94.3745 31.8405 94.6067 28.6939 95.3107 25.6281C95.5483 24.5936 95.9 23.5992 96.6121 22.7806C97.7452 21.4781 98.7866 21.5644 99.3964 23.164C100.014 24.7841 100.402 26.4929 100.865 28.17C101.111 29.0598 101.302 29.9646 101.518 30.8627C101.577 30.868 101.637 30.8735 101.696 30.8789C101.858 30.2247 102.038 29.5747 102.176 28.9156C102.443 27.6363 102.612 26.3316 102.96 25.0756C103.309 23.8126 103.928 22.6821 105.244 22.1187C105.986 21.8009 106.379 21.8697 106.939 22.4707C107.999 23.6078 108.442 25.0181 108.737 26.4964C108.972 27.6676 109.213 28.8373 109.452 30.0075C109.514 30.013 109.577 30.0183 109.64 30.0238C109.92 29.2254 110.199 28.4266 110.482 27.6289C110.93 26.3636 111.328 25.0774 111.846 23.8408C112.286 22.7878 113.017 21.9164 113.97 21.2619C114.842 20.6635 115.631 20.7735 116.038 21.741C116.49 22.8154 116.827 23.9683 117.01 25.1195C117.514 28.2907 117.487 31.4988 117.479 34.7009C117.473 37.2661 117.447 39.8312 117.456 42.3963C117.461 43.5961 117.538 44.7955 117.566 45.9954C117.596 47.2902 118.133 48.3193 119.196 49.0424C119.839 49.4799 120.532 49.8453 121.205 50.2389C122.348 50.9074 123.527 51.5209 124.627 52.2536C125.744 52.9972 126.636 53.975 127.076 55.2903C127.076 55.5087 127.076 55.727 127.076 55.9453ZM114.709 23.3122C114.626 23.2814 114.544 23.2507 114.461 23.2199C114.136 23.5643 113.715 23.8592 113.506 24.2637C113.093 25.0654 112.716 25.9043 112.466 26.7688C111.607 29.7322 111.226 32.7801 111.026 35.8503C110.952 36.9924 110.964 38.1399 110.925 39.2845C110.9 39.978 110.508 40.4856 109.963 40.569C109.389 40.6567 108.879 40.327 108.628 39.6784C108.536 39.443 108.467 39.1924 108.433 38.9425C108.091 36.4035 107.777 33.8606 107.416 31.3241C107.123 29.2575 106.788 27.1965 106.444 25.1376C106.382 24.7692 106.221 24.406 106.047 24.0707C105.734 23.4661 105.376 23.4679 105.02 24.0619C104.882 24.2935 104.77 24.5474 104.684 24.8041C103.871 27.2346 103.516 29.7573 103.402 32.2959C103.307 34.3996 103.488 36.5144 103.462 38.6231C103.451 39.4823 103.27 40.3536 103.05 41.1887C102.971 41.4882 102.568 41.8698 102.28 41.8993C101.999 41.9283 101.545 41.6258 101.398 41.347C101.073 40.7296 100.783 40.0533 100.675 39.37C100.38 37.5048 100.229 35.6171 99.9431 33.7502C99.583 31.3991 99.1595 29.0573 98.7348 26.7166C98.5797 25.861 98.3674 25.0131 98.129 24.1767C98.0578 23.9268 97.8091 23.7276 97.6416 23.5052C97.4492 23.7254 97.2042 23.9193 97.0775 24.1723C96.9089 24.509 96.7734 24.8842 96.7261 25.256C96.388 27.9037 95.9599 30.5469 95.7801 33.2064C95.4075 38.7166 95.7857 44.2224 96.0988 49.7263C96.3713 54.5193 96.5885 59.3153 96.8302 64.1101C96.8613 64.7273 96.8957 65.3443 96.9234 65.9616C96.9429 66.3973 97.1704 66.5763 97.5967 66.5443C98.177 66.5008 98.758 66.4353 99.3389 66.4345C103.412 66.4289 107.486 66.4293 111.559 66.4494C112.284 66.453 113.009 66.555 113.734 66.6154C114.694 66.6954 115.653 66.8086 116.614 66.852C117.367 66.8859 117.642 66.6086 117.694 65.8671C117.725 65.4324 117.718 64.9949 117.722 64.5585C117.737 62.8673 117.733 61.1757 117.771 59.4851C117.794 58.4286 118.291 57.5881 119.181 57.0376C119.699 56.7167 120.272 56.4318 120.859 56.2842C121.967 56.0058 123.104 55.8459 124.225 55.6195C124.493 55.5653 124.747 55.443 125.007 55.3519C125.02 55.2909 125.033 55.23 125.045 55.1689C124.74 54.9336 124.456 54.6634 124.127 54.4685C122.08 53.2551 120.031 52.0433 117.966 50.8616C116.666 50.1181 115.923 48.9926 115.554 47.5817C115.417 47.0552 115.271 46.528 115.179 45.9927C114.54 42.2701 115.036 38.5139 114.883 34.7745C114.779 32.2179 115.025 29.6488 115.025 27.0853C115.025 25.8276 114.821 24.5699 114.709 23.3122ZM106.117 68.264C106.116 68.2671 106.116 68.2702 106.116 68.2733C103.392 68.1648 100.667 68.0657 97.9441 67.9393C97.4289 67.9154 97.1043 68.0828 97.0847 68.5971C97.0531 69.4311 97.0466 70.269 97.0924 71.1018C97.1211 71.6234 97.385 71.7513 97.9126 71.7038C99.0147 71.6047 100.124 71.4184 101.222 71.4696C105.105 71.6508 108.985 71.9149 112.865 72.1519C114.296 72.2393 115.725 72.3403 117.155 72.432C117.477 72.4526 117.855 72.4371 117.882 72.0427C117.937 71.2125 117.94 70.3758 117.906 69.5442C117.888 69.1303 117.62 68.8565 117.164 68.812C116.55 68.752 115.939 68.6327 115.324 68.6073C112.256 68.4806 109.186 68.3762 106.117 68.264Z" fill="#FFCCD5"/>
<path d="M67.9264 89.9322C68.1655 95.0927 66.2938 99.6598 63.9282 104.078C62.5046 106.737 60.9724 109.338 59.5763 112.011C58.8304 113.439 58.2507 114.955 57.6304 116.446C56.9726 118.026 56.3146 119.602 55.1992 120.931C55.0242 121.14 54.8445 121.348 54.6434 121.53C54.4237 121.73 54.1853 121.91 53.8913 121.61C53.8253 121.543 53.679 121.495 53.5907 121.518C52.9365 121.689 52.4635 121.308 51.9985 120.978C49.27 119.044 46.538 117.114 43.8379 115.14C40.2706 112.533 36.7016 109.926 33.1904 107.244C30.5746 105.247 28.263 102.936 26.5743 100.065C25.4423 98.1406 24.7632 96.0561 24.466 93.8614C24.0122 90.511 25.342 87.8654 27.9827 85.9004C31.127 83.5607 34.6585 82.8358 38.5167 83.6515C39.6532 83.8918 40.6244 84.4034 41.5724 85.023C42.3321 85.5194 43.0915 86.0239 43.8913 86.4488C44.5264 86.7864 44.6621 86.683 45.0801 86.0968C48.4595 81.3587 53.0224 78.8189 58.8837 78.8858C63.7317 78.9412 67.1925 82.1343 67.798 86.9382C67.8616 87.4426 67.9007 87.9512 67.9223 88.4591C67.9428 88.9495 67.9264 89.4411 67.9264 89.9322ZM65.1518 90.0661C65.0864 89.1252 65.0757 88.1767 64.9456 87.2449C64.5299 84.2676 62.6682 82.2134 59.9071 81.641C58.4514 81.3393 57.0053 81.46 55.5909 81.8755C51.6365 83.0373 48.7151 85.626 46.2042 88.7568C45.6163 89.4897 44.9404 89.487 44.4059 88.7113C44.2437 88.4758 43.987 88.2592 43.7251 88.1468C42.81 87.7537 41.8284 87.4946 40.9546 87.0296C39.1358 86.0616 37.2675 85.6895 35.2217 86.0638C33.2143 86.4312 31.2849 86.9601 29.6316 88.2117C27.9807 89.4616 27.1112 91.1078 27.283 93.208C27.3539 94.0735 27.471 94.947 27.6842 95.7872C28.4064 98.6344 30.0597 100.948 32.0192 103.063C34.6556 105.908 37.7585 108.199 40.8869 110.459C44.0696 112.758 47.2446 115.068 50.4071 117.395C51.1526 117.944 51.8231 118.593 52.5489 119.17C53.0345 119.556 53.2823 119.492 53.5939 118.956C53.7486 118.689 53.8937 118.414 54.0129 118.13C56.0427 113.3 58.4942 108.681 60.9796 104.075C63.3358 99.7093 65.2958 95.2026 65.1518 90.0661Z" fill="#FFCCD5"/>
<path d="M52.3438 74.073C48.8951 74.0901 45.5614 74.8198 42.268 75.7526C38.3736 76.8556 34.5011 78.0368 30.5992 79.1113C29.7458 79.3464 28.8001 79.3774 27.9104 79.3141C26.9648 79.2467 26.5679 78.6462 26.4176 77.7181C25.9476 74.8159 25.4237 71.9226 24.9544 69.0204C24.8306 68.2548 24.8283 67.4696 24.7707 66.6934C24.7319 66.169 24.738 65.6365 24.6442 65.1221C24.5366 64.5321 24.2417 64.0558 23.6411 63.7878C23.3771 63.6699 23.1 63.4341 22.9742 63.18C22.5071 62.2364 22.4399 61.214 22.688 60.2081C22.878 59.4375 23.6165 59.1172 24.4972 59.379C25.6136 59.7108 26.439 60.3562 26.6105 61.6057C26.6878 62.1683 27.0147 62.5408 27.4842 62.8516C29.5583 64.2242 31.6334 65.5967 33.675 67.0165C34.762 67.7724 34.9505 67.7368 35.11 66.4194C35.3641 64.3212 35.6778 62.2425 36.6344 60.32C36.8345 59.9178 36.5887 59.6285 36.328 59.3571C35.6544 58.6562 35.4771 57.8491 35.8593 56.9515C36.1628 56.2383 36.8091 55.8947 37.5809 56.012C38.1511 56.0987 38.7512 56.1241 39.2784 56.3296C40.3541 56.7488 40.5209 57.5863 39.7892 58.4844C39.6401 58.6672 39.4423 58.8392 39.3738 59.0507C39.3043 59.2653 39.2784 59.5771 39.3862 59.7526C40.0112 60.7707 40.6788 61.7627 41.337 62.7602C41.7571 63.397 42.1568 64.0503 42.6188 64.6557C43.1601 65.3648 43.4752 65.3192 43.8726 64.531C44.2895 63.7042 44.6655 62.8554 45.1121 62.0453C45.8184 60.7639 46.7073 59.6168 47.7956 58.6297C48.5599 57.9365 48.5011 57.7539 47.9973 56.8744C47.6916 56.3407 47.5594 55.6463 47.5493 55.0209C47.5379 54.3077 48.0852 53.911 48.8255 53.8765C50.1336 53.8156 52.0218 55.0644 52.4526 56.2937C52.6794 56.9406 52.5145 57.5428 52.0443 58.0022C51.6123 58.4241 51.4991 58.9112 51.6096 59.4415C52.0163 61.3936 52.4001 63.3533 52.9008 65.282C53.4479 67.3891 54.1382 69.4588 54.7134 71.5592C54.853 72.0688 54.8447 72.6403 54.7976 73.1739C54.745 73.7704 54.3611 74.0565 53.7625 74.0815C53.5267 74.0913 53.2899 74.075 53.0535 74.0732C52.8166 74.0715 52.5803 74.073 52.3438 74.073ZM48.6751 60.6301C48.2197 61.2991 47.7659 61.9105 47.37 62.5575C46.2726 64.351 45.5376 66.3054 44.8781 68.2914C44.6556 68.9614 44.176 69.2161 43.5219 68.9571C43.1402 68.8059 42.7817 68.5729 42.4474 68.3293C41.2289 67.4412 40.53 66.1828 39.9446 64.8294C39.6072 64.0494 39.2026 63.2914 38.7568 62.5676C38.4481 62.0662 38.2203 62.1308 37.9648 62.6547C37.4859 63.6367 37.5198 64.6987 37.4261 65.7462C37.3243 66.8835 37.2576 68.0359 37.0094 69.1445C36.7607 70.2554 35.9835 70.5789 34.9744 70.0547C33.7675 69.4277 32.5898 68.7373 31.4385 68.0125C30.2701 67.2768 29.1566 66.4543 28.0005 65.6981C27.7978 65.5654 27.4441 65.4565 27.2686 65.547C27.0911 65.6382 26.987 65.9846 26.9613 66.2308C26.9241 66.5878 26.9657 66.9576 27.0092 67.3176C27.3972 70.5286 27.7919 73.7387 28.1871 76.9488C28.2747 77.6599 28.4683 77.7938 29.1684 77.5825C31.2546 76.9526 33.3415 76.3245 35.4195 75.6684C39.0062 74.536 42.5904 73.3968 46.3212 72.8192C47.6494 72.6135 48.9897 72.4773 50.3101 72.2318C51.3673 72.0351 51.5175 71.7133 51.1928 70.7116C50.309 67.9833 49.2838 65.2905 49.3971 62.3417C49.4198 61.7537 49.2654 61.1461 48.6751 60.6301Z" fill="#FFCCD5"/>
<path d="M79.2121 46.5158C79.156 46.8133 79.1444 47.0548 79.0631 47.2701C78.898 47.7076 78.58 48.0201 78.0991 48.0408C77.6403 48.0605 77.3415 47.7336 77.2158 47.3452C77.016 46.7277 76.8831 46.0865 76.7538 45.4489C76.5215 44.3031 76.2696 44.0685 75.0939 44.1685C74.2274 44.2423 73.3703 44.4205 72.506 44.5285C72.1483 44.5731 71.7718 44.6125 71.4252 44.5452C71.2152 44.5045 70.9755 44.2853 70.8887 44.0856C70.8476 43.9909 71.1008 43.6548 71.2756 43.5984C72.2389 43.2874 73.2184 43.0258 74.1945 42.755C74.4036 42.6969 74.6219 42.6723 74.8352 42.6287C75.6851 42.4555 75.7806 42.3088 75.6077 41.4404C75.5263 41.0312 75.4216 40.6253 75.3639 40.2128C75.2754 39.5794 75.5412 39.38 76.1483 39.5407C76.6987 39.6864 76.9936 40.0555 77.2035 40.5478C77.8482 42.0604 77.8479 42.0948 79.7404 41.913C80.2442 41.8647 80.7543 41.8289 81.2585 41.8521C81.7096 41.873 82.0641 42.0973 82.112 42.6045C82.1645 43.1607 81.7936 43.3967 81.3371 43.4864C80.7863 43.5947 80.2226 43.6365 79.665 43.7113C78.9271 43.8102 78.7159 44.0864 78.8516 44.815C78.9609 45.4017 79.0982 45.9832 79.2121 46.5158Z" fill="#FFCCD5"/>
<path d="M83.6569 21.2476C83.5668 21.8017 83.4661 22.3543 83.3899 22.9103C83.322 23.406 83.5096 23.6652 84.051 23.7567C85.0414 23.9243 85.8988 24.4141 86.5973 25.131C86.7641 25.3023 86.8946 25.6833 86.8172 25.8791C86.6874 26.2074 86.3415 26.1652 86.0167 26.039C85.3403 25.7763 84.659 25.5202 83.9648 25.3107C83.2014 25.0804 82.8873 25.2528 82.6498 26.0131C82.4117 26.7747 82.2211 27.551 82.0003 28.3182C81.8151 28.9617 81.3459 29.2836 80.7533 29.1905C80.1945 29.1027 79.8381 28.6574 79.9324 27.9774C80.0466 27.1537 80.2527 26.3414 80.445 25.5304C80.622 24.7839 80.4682 24.5139 79.7277 24.2926C79.3166 24.1698 78.9012 24.0348 78.5248 23.8353C78.3791 23.7581 78.336 23.4874 78.2461 23.3049C78.4185 23.2307 78.5904 23.0955 78.7634 23.0941C79.1973 23.0905 79.632 23.1437 80.0658 23.1808C80.9141 23.2534 81.2171 23.0441 81.6223 22.2923C81.9297 21.722 82.3066 21.1832 82.7058 20.6718C82.8521 20.4843 83.1513 20.4163 83.3807 20.2938C83.4635 20.5374 83.5511 20.7795 83.6262 21.0253C83.6465 21.0918 83.6293 21.1698 83.6293 21.2425C83.6387 21.244 83.6477 21.2457 83.6569 21.2476Z" fill="#FFCCD5"/>
<path d="M60.1677 27.1287C60.1126 27.6527 60.0655 28.1778 60.0001 28.7005C59.9184 29.3526 60.0717 29.6392 60.6884 29.8786C60.9926 29.9967 61.3138 30.0707 61.6184 30.1878C61.8537 30.2783 62.128 30.3562 62.2876 30.5293C62.4454 30.7005 62.6026 31.03 62.5363 31.2056C62.4688 31.384 62.1201 31.572 61.9088 31.557C61.4255 31.5226 60.9376 31.4059 60.4766 31.2492C60.0141 31.0921 59.7435 31.2508 59.5453 31.6395C59.2319 32.2543 58.9384 32.8798 58.6098 33.4863C58.4207 33.8354 58.2065 34.1788 57.9537 34.4833C57.7094 34.7779 57.4205 34.7462 57.1716 34.4422C56.6934 33.8577 56.5956 33.1992 56.807 32.4918C56.942 32.0399 57.1186 31.6005 57.259 31.15C57.4191 30.6365 57.2782 30.3493 56.7615 30.1857C56.4341 30.0822 56.0874 30.0407 55.751 29.9637C55.5037 29.9072 55.2248 29.8916 55.0228 29.7607C54.8028 29.6181 54.6552 29.3635 54.4761 29.1577C54.7085 29.0604 54.9384 28.8896 55.1741 28.8811C55.6412 28.8642 56.1151 28.9123 56.5799 28.9777C57.4437 29.0992 57.8323 28.8782 58.2051 28.0569C58.4889 27.4317 58.7799 26.8054 59.1317 26.2178C59.2588 26.0055 59.572 25.9045 59.8003 25.7527C59.9073 25.9922 60.0479 26.2233 60.1108 26.4738C60.1623 26.6789 60.1213 26.9073 60.1213 27.1254C60.1368 27.1266 60.1523 27.1276 60.1677 27.1287Z" fill="#FFCCD5"/>
<path d="M41.969 46.3177C41.8059 46.2303 41.631 46.1365 41.4561 46.0426C41.5703 45.8793 41.6489 45.6555 41.8051 45.5637C42.3354 45.2522 42.8845 44.9686 43.4427 44.7091C44.2371 44.3397 44.3405 44.1522 44.0562 43.3207C43.9156 42.9095 43.6956 42.5221 43.5877 42.1042C43.5245 41.8593 43.5225 41.415 43.6495 41.3452C43.873 41.2222 44.2308 41.2654 44.5049 41.3399C44.691 41.3905 44.848 41.5985 44.9861 41.7629C45.1724 41.9847 45.3341 42.2281 45.496 42.4691C46.3286 43.7086 46.7476 43.5957 47.6866 43.1274C48.1752 42.8836 48.8001 42.8607 49.3655 42.8503C49.5779 42.8464 49.92 43.1266 49.9777 43.3386C50.0366 43.5557 49.8945 43.9705 49.7091 44.0833C49.209 44.3878 48.6551 44.6311 48.0927 44.7984C47.4756 44.9819 47.2896 45.2101 47.566 45.8065C47.8091 46.3314 48.1704 46.8035 48.3923 47.3353C48.5073 47.611 48.5693 48.0946 48.4154 48.2568C48.1168 48.5716 47.6265 48.6473 47.2195 48.3552C46.9591 48.1683 46.7288 47.9235 46.5316 47.6686C46.3334 47.4123 46.1887 47.1137 46.028 46.8296C45.3293 45.5942 45.0707 45.499 43.7196 45.8998C43.165 46.064 42.5933 46.1706 41.969 46.3177Z" fill="#FFCCD5"/>
<path d="M33.6177 122.168C33.796 120.75 33.9625 119.331 34.1627 117.917C34.2019 117.64 34.3444 117.365 34.4873 117.117C34.7643 116.636 35.2647 116.458 35.7964 116.603C36.3138 116.745 36.4644 117.148 36.4522 117.608C36.4094 119.237 36.3851 120.868 36.2644 122.492C36.187 123.535 35.9685 124.569 35.7821 125.601C35.7039 126.034 35.4572 126.403 34.9794 126.448C34.4856 126.495 34.2209 126.12 34.0598 125.73C33.9176 125.385 33.8155 125.003 33.7982 124.633C33.7599 123.818 33.7863 123 33.7863 122.183C33.7301 122.178 33.6739 122.173 33.6177 122.168Z" fill="#FFCCD5"/>
<path d="M73.4175 94.9152C75.3643 95.3005 77.2583 95.8899 78.8488 97.1948C79.0603 97.3685 79.2287 97.6456 79.3154 97.9084C79.4442 98.2993 79.0913 98.7011 78.7523 98.5813C76.7583 97.8765 74.6615 97.7897 72.5931 97.5291C72.1435 97.4724 71.6958 97.3917 71.2523 97.2981C70.9458 97.2335 70.7776 97.0349 70.8447 96.7027C71.0728 95.5739 71.2037 95.328 72.2551 95.1298C72.6288 95.0593 73.0031 94.9916 73.4175 94.9152Z" fill="#FFCCD5"/>
<path d="M23.375 118.258C23.4926 117.899 23.5726 117.521 23.7344 117.182C24.436 115.715 25.445 114.49 26.741 113.507C26.956 113.344 27.199 113.209 27.4459 113.099C27.8388 112.924 28.2463 112.813 28.6062 113.179C28.9408 113.519 29.055 114.176 28.7742 114.593C28.1963 115.449 27.5872 116.286 26.9605 117.107C26.4542 117.771 25.8978 118.397 25.3752 119.049C25.1269 119.359 24.8961 119.651 24.4279 119.474C23.7304 119.21 23.4104 118.837 23.375 118.258Z" fill="#FFCCD5"/>
<path d="M47.0423 129.181C45.3894 127.592 44.1881 125.955 44.5508 123.66C44.6305 123.155 44.9224 122.634 45.2524 122.231C45.7072 121.676 46.4099 121.723 46.8444 122.296C47.3444 122.955 47.6171 123.685 47.5073 124.566C47.3686 125.678 47.3595 126.807 47.2706 127.926C47.2408 128.301 47.1379 128.669 47.0423 129.181Z" fill="#FFCCD5"/>
<path d="M63.0364 115.31C63.2491 115.39 63.6947 115.501 64.0844 115.714C65.5203 116.499 66.5603 117.708 67.4898 119.019C67.7761 119.422 67.5063 119.754 67.1711 119.899C66.8816 120.024 66.4681 120.083 66.1885 119.972C64.9197 119.468 63.7152 118.824 62.748 117.838C62.4004 117.483 62.0931 117.052 61.8905 116.6C61.5359 115.81 61.9499 115.266 63.0364 115.31Z" fill="#FFCCD5"/>
<path d="M67.8529 104.435C68.34 104.595 68.7546 104.655 69.0863 104.854C70.3008 105.581 71.5049 106.328 72.6726 107.127C72.9413 107.311 73.049 107.731 73.2308 108.041C72.8349 108.176 72.388 108.5 72.0522 108.411C70.7951 108.074 69.5512 107.657 68.3513 107.153C67.8643 106.949 67.4782 106.468 67.0925 106.069C66.7839 105.749 66.8486 105.329 67.0988 105.015C67.2943 104.77 67.607 104.618 67.8529 104.435Z" fill="#FFCCD5"/>
<path d="M48.1826 23.7448C47.3703 23.4968 46.5445 23.2851 45.7486 22.9925C44.5266 22.5432 43.3167 22.0573 42.1215 21.541C41.8761 21.435 41.7182 21.1264 41.52 20.9111C41.7853 20.782 42.0465 20.6428 42.3185 20.5298C42.4108 20.4915 42.5362 20.4963 42.6371 20.5207C44.5031 20.9709 46.3683 21.4248 48.2317 21.8858C48.4231 21.9332 48.6283 21.9966 48.7809 22.1131C49.0204 22.2962 49.4142 22.5466 49.3984 22.7404C49.3612 23.198 49.046 23.5653 48.5284 23.6517C48.4216 23.6695 48.3122 23.6723 48.204 23.682C48.1968 23.7031 48.1897 23.7239 48.1826 23.7448Z" fill="#FFCCD5"/>
</svg>
