<svg width="113" height="40" viewBox="0 0 113 40" fill="none" xmlns="http://www.w3.org/2000/svg">
<title>eBay Enterprise Marketing Solutions</title>
<path d="M50.1822 5.88503L45.6715 14.906L41.1397 5.88503H37.9914L38.7961 7.38969C37.7302 5.80769 35.6266 5.39989 33.7066 5.39989C28.0806 5.39989 27.7206 8.46545 27.7206 8.95763H30.523C30.523 8.95763 30.6712 7.1647 33.516 7.1647C35.3654 7.1647 36.7984 8.00843 36.7984 9.62559V10.2021H33.516C29.8806 10.2021 27.6712 11.0881 27.0359 12.881C27.0994 12.4802 27.1417 12.0724 27.1417 11.6435C27.1417 8.19827 24.8123 5.42801 20.8663 5.42801C17.1745 5.42801 16.0309 7.41079 16.0309 7.41079V0.787476H13.3273V10.8912C13.292 8.69045 11.852 5.40692 6.86132 5.40692C3.12006 5.39989 0 6.98892 0 11.756C0 15.5317 2.09651 17.9153 6.95309 17.9153C12.6709 17.9153 13.0379 14.1607 13.0379 14.1607H10.2637C10.2637 14.1607 9.67079 16.1856 6.77661 16.1856C4.41892 16.1856 2.73182 14.6036 2.73182 12.3818H13.3203V15.5177C13.3203 16.3544 13.2638 17.5286 13.2638 17.5286H15.918C15.918 17.5286 16.0097 16.6848 16.0097 15.9184C16.0097 15.9184 17.3157 17.9575 20.8663 17.9575C23.8946 17.9575 26.1394 16.2559 26.8806 13.6474C26.8664 13.781 26.8594 13.9286 26.8594 14.0763C26.8594 16.6145 28.9841 17.9926 31.8642 17.9926C35.789 17.9926 37.0455 15.8341 37.0455 15.8341C37.0455 16.6919 37.109 17.5356 37.109 17.5356H39.6008C39.6008 17.5356 39.502 16.488 39.502 15.813V10.0053C39.502 9.23184 39.3749 8.58498 39.142 8.03655L44.1892 17.4723L41.8173 21.9511H44.8103L53.0411 5.88503H50.1822ZM2.80241 10.6029C2.80241 8.42327 4.79304 7.18579 6.76249 7.18579C9.00019 7.18579 10.532 8.55686 10.532 10.6029H2.80241ZM20.2028 16.1223C17.4921 16.1223 16.0309 14.013 16.0309 11.6716C16.0309 9.49199 17.3439 7.24907 20.1816 7.24907C22.7228 7.24907 24.3393 9.12638 24.3393 11.6505C24.3393 14.3646 22.4758 16.1223 20.2028 16.1223ZM36.7984 12.7193C36.7984 13.7247 36.1772 16.2208 32.5207 16.2208C30.5159 16.2208 29.6547 15.2224 29.6547 14.0693C29.6547 11.9669 32.5489 11.9529 36.8055 11.9529L36.7984 12.7193Z" fill="#2017CC"/>
<path d="M12.2615 32.8001C11.605 34.7969 9.91087 36.7516 6.1555 36.7516C1.5107 36.7516 -0.0140381 33.5173 -0.0140381 30.7611C-0.0140381 27.6111 1.92718 24.7706 6.1555 24.7706C9.07792 24.7706 12.5439 26.0291 12.5439 31.1548H1.60247C1.60247 33.4962 3.2825 35.4086 6.1555 35.4086C8.85909 35.4086 10.0803 34.5157 10.645 32.8001H12.2615ZM10.9344 29.9314C10.4756 27.1541 8.42849 26.1135 6.26845 26.1135C4.20017 26.1135 1.97659 27.1752 1.60247 29.9314H10.9344Z" fill="#2017CC"/>
<path d="M23.923 29.1299C23.923 26.894 22.5465 26.1135 20.4994 26.1135C17.337 26.1135 15.8969 27.7166 15.8969 30.283V36.4071H14.2875V25.1151H15.8969V27.3299H15.9393C16.4193 26.1346 18.1205 24.7706 20.6264 24.7706C24.3959 24.7706 25.5324 26.7252 25.5324 29.4181V36.4071H23.923V29.1299Z" fill="#2017CC"/>
<path d="M28.723 21.5574H30.3324V25.1151H33.5372V26.3315H30.3324V33.7985C30.3324 34.7759 30.636 35.2329 31.9419 35.2329C32.7254 35.2329 33.2266 35.1696 33.5301 35.0993V36.4422C32.9231 36.5266 32.2878 36.5758 31.7654 36.5758C29.2595 36.5758 28.7159 35.5985 28.7159 33.7774V26.3315H26.2594V25.1151H28.723V21.5574Z" fill="#2017CC"/>
<path d="M46.2646 32.8001C45.6081 34.7969 43.9139 36.7516 40.1586 36.7516C35.5138 36.7516 33.989 33.5173 33.989 30.7611C33.989 27.6111 35.9302 24.7706 40.1586 24.7706C43.081 24.7706 46.5469 26.0291 46.5469 31.1548H35.6055C35.6055 33.4962 37.2856 35.4086 40.1586 35.4086C42.8621 35.4086 44.0833 34.5157 44.6481 32.8001H46.2646ZM44.9375 29.9314C44.4786 27.1541 42.4315 26.1135 40.2715 26.1135C38.2032 26.1135 35.9796 27.1752 35.6055 29.9314H44.9375Z" fill="#2017CC"/>
<path d="M48.2834 25.1152H49.8929V27.6956H49.9352C50.5211 26.3526 51.5941 24.7636 54.2695 24.7636C54.7283 24.7636 54.9895 24.8058 55.2295 24.848V26.5073C54.7283 26.423 54.2483 26.3737 53.7471 26.3737C52.0035 26.3737 49.8858 27.4354 49.8858 30.6486V36.4001H48.2834V25.1152Z" fill="#2017CC"/>
<path d="M56.2671 25.1152H57.8836V27.3722H57.9259C58.3636 26.4159 59.4083 24.7636 62.5496 24.7636C67.1944 24.7636 68.7191 27.9979 68.7191 30.7541C68.7191 33.9041 66.7779 36.7446 62.5496 36.7446C60.4107 36.7446 58.6671 35.5704 57.9259 34.1361H57.8836V40.7805H56.2742V25.1152H56.2671ZM62.5425 35.4087C65.0908 35.4087 67.0955 33.6298 67.0955 30.7612C67.0955 28.5042 65.832 26.1136 62.5425 26.1136C59.8601 26.1136 57.7918 27.8081 57.7918 30.7612C57.7918 33.0814 59.253 35.4087 62.5425 35.4087Z" fill="#2017CC"/>
<path d="M70.5897 25.1152H72.1992V27.6956H72.2415C72.8274 26.3526 73.9004 24.7636 76.5757 24.7636C77.0346 24.7636 77.2958 24.8058 77.5358 24.848V26.5073C77.0346 26.423 76.5546 26.3737 76.0534 26.3737C74.3098 26.3737 72.1921 27.4354 72.1921 30.6486V36.4001H70.5897V25.1152Z" fill="#2017CC"/>
<path d="M78.5522 20.7699H80.1617V23.1605H78.5522V20.7699ZM78.5522 25.1151H80.1617V36.4071H78.5522V25.1151Z" fill="#2017CC"/>
<path d="M90.9832 28.4549C90.5667 26.6338 89.4373 26.1135 87.0796 26.1135C85.3784 26.1135 83.8113 26.4792 83.8113 28.0471C83.8113 29.2213 84.5736 29.4603 88.0184 29.9174C91.4844 30.3744 92.9244 30.9791 92.9244 33.1728C92.9244 35.4087 91.0961 36.7516 87.5384 36.7516C83.9454 36.7516 81.8065 35.5774 81.8065 32.8634H83.2889C83.5713 34.7548 84.6372 35.4016 87.5384 35.4016C89.7832 35.4016 91.3079 34.9446 91.3079 33.2501C91.3079 32.1181 90.5032 31.6189 86.9737 31.2744C83.4442 30.9298 82.2018 30.1002 82.2018 28.1033C82.2018 26.1487 83.7901 24.7565 87.0866 24.7565C90.7714 24.7565 92.275 26.0784 92.4726 28.4479H90.9832V28.4549Z" fill="#2017CC"/>
<path d="M106.287 32.8001C105.631 34.7969 103.936 36.7516 100.181 36.7516C95.5362 36.7516 94.0115 33.5173 94.0115 30.7611C94.0115 27.6111 95.9527 24.7706 100.181 24.7706C103.103 24.7706 106.569 26.0291 106.569 31.1548H95.628C95.628 33.4962 97.308 35.4086 100.181 35.4086C102.885 35.4086 104.106 34.5157 104.671 32.8001H106.287ZM104.953 29.9314C104.494 27.1541 102.447 26.1135 100.287 26.1135C98.2186 26.1135 95.995 27.1752 95.6209 29.9314H104.953Z" fill="#2017CC"/>
<path d="M107.699 24.419H108.031V25.1573H108.694V25.4104H108.031V26.9643C108.031 27.1682 108.094 27.2596 108.362 27.2596C108.525 27.2596 108.631 27.2455 108.694 27.2315V27.5127C108.567 27.5338 108.433 27.5408 108.327 27.5408C107.805 27.5408 107.692 27.3369 107.692 26.9572V25.4104H107.183V25.1573H107.692V24.419H107.699Z" fill="#2017CC"/>
<path d="M112.661 26.0151C112.661 25.5862 112.442 25.3682 111.962 25.3682C111.447 25.3682 111.158 25.6635 111.158 26.1205V27.5057H110.826V25.9166C110.826 25.6213 110.614 25.3682 110.155 25.3682C109.675 25.3682 109.322 25.6424 109.322 26.1838V27.5057H108.991V25.1643H109.322V25.6002H109.329C109.471 25.3541 109.725 25.094 110.261 25.094C110.791 25.094 111.038 25.3752 111.101 25.6073C111.214 25.3752 111.553 25.094 112.026 25.094C112.69 25.094 112.993 25.4245 112.993 25.9096V27.5127H112.661V26.0151Z" fill="#2017CC"/>
</svg>
