<svg width="113" height="40" viewBox="0 0 113 40" fill="none" xmlns="http://www.w3.org/2000/svg">
	 <title>eBay Enterprise Marketing Solutions</title>
<g>
	<g>
		<path class="st0" d="M710.9,83.7l-63.9,128.3L582.8,83.7h-44.6l11.4,21.4c-15.1-22.5-44.9-28.3-72.1-28.3
			c-79.7,0-84.8,43.6-84.8,50.6h39.7c0,0,2.1-25.5,42.4-25.5c26.2,0,46.5,12,46.5,35v8.2h-46.5c-51.5,0-82.8,12.6-91.8,38.1
			c0.9-5.7,1.5-11.5,1.5-17.6c0-49-33-88.4-88.9-88.4c-52.3,0-68.5,28.2-68.5,28.2V11.2h-38.3v143.7c-0.5-31.3-20.9-78-91.6-78
			C44.2,76.8,0,99.4,0,167.2c0,53.7,29.7,87.6,98.5,87.6c81,0,86.2-53.4,86.2-53.4h-39.3c0,0-8.4,28.8-49.4,28.8
			c-33.4,0-57.3-22.5-57.3-54.1h150v44.6c0,11.9-0.8,28.6-0.8,28.6h37.6c0,0,1.3-12,1.3-22.9c0,0,18.5,29,68.8,29
			c42.9,0,74.7-24.2,85.2-61.3c-0.2,1.9-0.3,4-0.3,6.1c0,36.1,30.1,55.7,70.9,55.7c55.6,0,73.4-30.7,73.4-30.7
			c0,12.2,0.9,24.2,0.9,24.2h35.3c0,0-1.4-14.9-1.4-24.5v-82.6c0-11-1.8-20.2-5.1-28l71.5,134.2l-33.6,63.7h42.4L751.4,83.7H710.9z
			 M39.7,150.8c0-31,28.2-48.6,56.1-48.6c31.7,0,53.4,19.5,53.4,48.6H39.7z M286.2,229.3c-38.4,0-59.1-30-59.1-63.3
			c0-31,18.6-62.9,58.8-62.9c36,0,58.9,26.7,58.9,62.6C344.8,204.3,318.4,229.3,286.2,229.3z M521.3,180.9
			c0,14.3-8.8,49.8-60.6,49.8c-28.4,0-40.6-14.2-40.6-30.6c0-29.9,41-30.1,101.3-30.1L521.3,180.9L521.3,180.9z" fill="#2017CC"/>
	</g>
</g>
<g>
	<path class="st0" d="M173.7,466.5c-9.3,28.4-33.3,56.2-86.5,56.2c-65.8,0-87.4-46-87.4-85.2c0-44.8,27.5-85.2,87.4-85.2
		c41.4,0,90.5,17.9,90.5,90.8h-155c0,33.3,23.8,60.5,64.5,60.5c38.3,0,55.6-12.7,63.6-37.1H173.7z M154.9,425.7
		c-6.5-39.5-35.5-54.3-66.1-54.3c-29.3,0-60.8,15.1-66.1,54.3H154.9z" fill="#2017CC"/>
	<path class="st0" d="M338.9,414.3c0-31.8-19.5-42.9-48.5-42.9c-44.8,0-65.2,22.8-65.2,59.3v87.1h-22.8V357.2h22.8v31.5h0.6
		c6.8-17,30.9-36.4,66.4-36.4c53.4,0,69.5,27.8,69.5,66.1v99.4h-22.8V414.3z" fill="#2017CC"/>
	<path class="st0" d="M406.9,306.6h22.8v50.6h45.4v17.3h-45.4v106.2c0,13.9,4.3,20.4,22.8,20.4c11.1,0,18.2-0.9,22.5-1.9v19.1
		c-8.6,1.2-17.6,1.9-25,1.9c-35.5,0-43.2-13.9-43.2-39.8V374.5H372v-17.3h34.9V306.6z" fill="#2017CC"/>
	<path class="st0" d="M655.4,466.5c-9.3,28.4-33.3,56.2-86.5,56.2c-65.8,0-87.4-46-87.4-85.2c0-44.8,27.5-85.2,87.4-85.2
		c41.4,0,90.5,17.9,90.5,90.8h-155c0,33.3,23.8,60.5,64.5,60.5c38.3,0,55.6-12.7,63.6-37.1H655.4z M636.6,425.7
		c-6.5-39.5-35.5-54.3-66.1-54.3c-29.3,0-60.8,15.1-66.1,54.3H636.6z" fill="#2017CC"/>
	<path class="st0" d="M684,357.2h22.8v36.7h0.6c8.3-19.1,23.5-41.7,61.4-41.7c6.5,0,10.2,0.6,13.6,1.2V377c-7.1-1.2-13.9-1.9-21-1.9
		c-24.7,0-54.7,15.1-54.7,60.8v81.8H684V357.2z" fill="#2017CC"/>
	<path class="st0" d="M797.1,357.2H820v32.1h0.6c6.2-13.6,21-37.1,65.5-37.1c65.8,0,87.4,46,87.4,85.2c0,44.8-27.5,85.2-87.4,85.2
		c-30.3,0-55-16.7-65.5-37.1H820v94.5h-22.8V357.2z M886,503.6c36.1,0,64.5-25.3,64.5-66.1c0-32.1-17.9-66.1-64.5-66.1
		c-38,0-67.3,24.1-67.3,66.1C818.7,470.5,839.4,503.6,886,503.6z" fill="#2017CC"/>
	<path class="st0" d="M1000,357.2h22.8v36.7h0.6c8.3-19.1,23.5-41.7,61.4-41.7c6.5,0,10.2,0.6,13.6,1.2V377
		c-7.1-1.2-13.9-1.9-21-1.9c-24.7,0-54.7,15.1-54.7,60.8v81.8H1000V357.2z" fill="#2017CC"/>
	<path class="st0" d="M1112.8,295.4h22.8v34h-22.8V295.4z M1112.8,357.2h22.8v160.6h-22.8V357.2z" fill="#2017CC"/>
	<path class="st0" d="M1288.9,404.7c-5.9-25.9-21.9-33.3-55.3-33.3c-24.1,0-46.3,5.2-46.3,27.5c0,16.7,10.8,20.1,59.6,26.6
		c49.1,6.5,69.5,15.1,69.5,46.3c0,31.8-25.9,50.9-76.3,50.9c-50.9,0-81.2-16.7-81.2-55.3h21c4,26.9,19.1,36.1,60.2,36.1
		c31.8,0,53.4-6.5,53.4-30.6c0-16.1-11.4-23.2-61.4-28.1c-50-4.9-67.6-16.7-67.6-45.1c0-27.8,22.5-47.6,69.2-47.6
		c52.2,0,73.5,18.8,76.3,52.5H1288.9z" fill="#2017CC"/>
	<path class="st0" d="M1505.7,466.5c-9.3,28.4-33.3,56.2-86.5,56.2c-65.8,0-87.4-46-87.4-85.2c0-44.8,27.5-85.2,87.4-85.2
		c41.4,0,90.5,17.9,90.5,90.8h-155c0,33.3,23.8,60.5,64.5,60.5c38.3,0,55.6-12.7,63.6-37.1H1505.7z M1486.8,425.7
		c-6.5-39.5-35.5-54.3-66.1-54.3c-29.3,0-60.8,15.1-66.1,54.3H1486.8z" fill="#2017CC"/>
	<path class="st0" d="M1525.7,347.3h4.7v10.5h9.4v3.6h-9.4v22.1c0,2.9,0.9,4.2,4.7,4.2c2.3,0,3.8-0.2,4.7-0.4v4
		c-1.8,0.3-3.7,0.4-5.2,0.4c-7.4,0-9-2.9-9-8.3v-22h-7.2v-3.6h7.2V347.3z" fill="#2017CC"/>
	<path class="st0" d="M1596,370c0-6.1-3.1-9.2-9.9-9.2c-7.3,0-11.4,4.2-11.4,10.7v19.7h-4.7v-22.6c0-4.2-3-7.8-9.5-7.8
		c-6.8,0-11.8,3.9-11.8,11.6v18.8h-4.7v-33.3h4.7v6.2h0.1c2-3.5,5.6-7.2,13.2-7.2c7.5,0,11,4,11.9,7.3c1.6-3.3,6.4-7.3,13.1-7.3
		c9.4,0,13.7,4.7,13.7,11.6v22.8h-4.7V370z" fill="#2017CC"/>
</g>
</svg>
