<svg width="113" height="40" viewBox="0 0 113 40" fill="none" xmlns="http://www.w3.org/2000/svg">
<title>Future Cities Catapult</title>
<path d="M96.8449 6.14593C94.6802 6.14593 93.9541 4.98088 93.9541 3.07149C93.9541 1.16897 94.6802 0 96.8449 0L110.111 0.00196136C112.274 0.00196136 113 1.17093 113 3.07345C113 4.98186 112.274 6.14691 110.111 6.14691L106.84 6.13906V23.452C106.84 25.8096 105.561 26.7961 103.48 26.7961C101.389 26.7961 100.115 25.8096 100.115 23.452V6.14102L96.8449 6.14593V6.14593ZM65.2698 6.7157C65.2698 4.62391 66.3595 3.94332 68.1724 3.94332C69.9735 3.94332 71.0957 4.66412 71.0957 6.75689V17.1511C71.0957 20.4266 72.3583 21.9653 74.5996 21.9653C76.9127 21.9653 78.1233 20.4276 78.1233 17.1511L78.1164 5.31137C78.1164 3.21761 79.2189 2.49681 81.0289 2.49681C82.8329 2.49681 83.9413 3.21761 83.9413 5.31137V16.8608C83.9413 22.892 81.3492 26.9599 74.5996 26.9599C67.8904 26.9599 65.2609 22.9214 65.2609 16.8922L65.2698 6.7157V6.7157ZM88.5134 26.6304C86.3477 26.6304 85.6235 25.4653 85.6235 23.5569V4.17476C85.6235 1.96136 86.8184 1.20035 88.7767 1.20035C90.7292 1.20035 91.9309 1.96136 91.9309 4.17476L91.9299 20.9228L96.2485 20.9218C98.2619 20.9218 98.9379 22.0104 98.9379 23.7795C98.9379 25.5565 98.2619 26.6255 96.2485 26.6255L88.5134 26.6304V26.6304ZM54.4247 16.5451V10.608H55.3445C58.2854 10.608 58.6637 12.2134 58.6637 13.5824C58.6637 15.0829 58.2294 16.5451 55.3376 16.5451H54.4247ZM49.0567 24.1012C49.0567 26.0949 50.1071 26.7804 51.8306 26.7804C53.5473 26.7804 54.6036 26.0949 54.6036 24.1012L54.6006 20.8453H56.6346C61.8768 20.8453 64.2105 17.8229 64.2105 13.6109C64.2105 9.37138 61.9122 6.30872 55.4083 6.30872H51.7265C49.7259 6.30872 49.0567 7.38158 49.0567 9.14583V24.1012ZM23.7713 14.719C22.3435 14.719 21.864 13.9463 21.864 12.692C21.864 11.4338 22.3435 10.6669 23.7713 10.6669H32.1048C33.5335 10.6669 34.0091 11.4504 34.0091 12.7047C34.0091 13.9649 33.5335 14.7318 32.1048 14.7318H30.2761L30.2791 24.6072C30.2791 26.2244 29.3997 26.7824 27.9739 26.7824C26.5403 26.7824 25.6677 26.2254 25.6677 24.6072L25.6716 14.7318L23.7713 14.719V14.719ZM38.0849 18.8703L39.9873 12.1143L41.6616 18.8693L38.0849 18.8703ZM37.2183 23.1127L42.5263 23.1166L42.9223 24.5239C43.3871 26.293 44.351 26.7824 45.8122 26.7824C47.6084 26.7824 48.7187 25.789 48.2009 23.8688C47.744 22.1771 44.1771 11.5573 44.1771 11.5573C43.2014 8.70452 42.3907 8.04158 40.115 8.04158C37.8589 8.04158 37.0945 8.71825 36.0382 11.5603C36.0382 11.5603 32.1834 22.0889 31.6852 23.859C31.133 25.8115 32.1588 26.7824 33.9531 26.7824C35.3877 26.7824 36.1659 26.2636 36.7653 24.4886L37.2183 23.1127V23.1127ZM16.442 20.4923L17.7764 15.1309L19.2798 20.4923H16.442V20.4923ZM15.7542 23.8629L19.9637 23.8678L20.283 24.9897C20.6505 26.396 21.415 26.7824 22.5764 26.7824C24.0002 26.7824 24.8846 25.9959 24.4719 24.4699C24.1103 23.1294 21.1005 14.6906 21.1005 14.6906C20.3518 12.4978 19.6846 11.8996 17.8766 11.8996C16.0873 11.8996 15.48 12.438 14.6409 14.6935C14.6409 14.6935 11.7559 23.0529 11.3609 24.4592C10.9237 26.0116 11.7373 26.7804 13.162 26.7804C14.2989 26.7804 14.918 26.3695 15.3935 24.9622L15.7542 23.8629V23.8629ZM6.07547 23.4932C7.01681 23.4932 7.46783 23.099 7.90803 22.7665C8.86117 22.0428 9.54997 22.3389 10.1454 22.946C10.9836 23.8041 10.6839 24.8073 10.0531 25.4143C9.1756 26.2538 7.82746 26.9589 5.92316 26.9589C2.48305 26.9579 0 24.2748 0 20.4178C0 16.4735 2.79061 13.8462 6.1187 13.8462C7.96797 13.8462 9.3171 14.4847 10.17 15.3045C10.8342 15.94 10.9345 16.7432 10.3754 17.5689C9.82019 18.3927 8.90636 18.6369 8.1527 18.0494C7.70267 17.6974 7.2094 17.1845 6.20026 17.1845C4.66936 17.1845 3.65825 18.526 3.65825 20.4168C3.65825 22.2222 4.62612 23.4932 6.07547 23.4932V23.4932ZM37.2212 31.7721C37.2212 31.1111 37.7165 30.7434 38.252 30.7434H41.412C42.0615 30.7434 42.4438 31.1268 42.4438 31.6985C42.4438 32.2938 42.0615 32.6508 41.412 32.6508H39.2827V34.265H41.1438C41.7923 34.265 42.1745 34.6327 42.1745 35.2192C42.1745 35.8046 41.7923 36.1714 41.1438 36.1714H39.2827V38.7791C39.2827 39.5038 38.8504 39.8725 38.252 39.8725C37.6516 39.8725 37.2212 39.5038 37.2212 38.7791V31.7721V31.7721ZM49.0666 37.3541C49.0666 39.187 47.6398 39.998 45.9822 39.998C44.3265 39.998 42.9017 39.187 42.9017 37.3541V33.9865C42.9017 33.4128 43.3095 32.9558 43.8961 32.9558C44.4817 32.9558 44.8885 33.4128 44.8885 33.9865V37.0756C44.8885 37.8239 45.4614 38.1691 45.9831 38.1691C46.5059 38.1691 47.0807 37.8229 47.0807 37.0756V33.9865C47.0807 33.4128 47.4895 32.9558 48.0741 32.9558C48.6598 32.9558 49.0675 33.4128 49.0675 33.9865V37.3541H49.0666ZM50.7478 34.8652H50.5198C49.8831 34.8652 49.4753 34.5837 49.4753 33.9472C49.4753 33.3108 49.8831 33.0332 50.5198 33.0332H50.7478V31.7348C50.7478 31.1641 51.1556 30.7061 51.7422 30.7061C52.3278 30.7061 52.7356 31.1641 52.7356 31.7348V33.0332H53.2849C53.9197 33.0332 54.3284 33.3098 54.3284 33.9472C54.3284 34.5827 53.9197 34.8652 53.2849 34.8652H52.7356V38.8448C52.7356 39.4155 52.3278 39.8735 51.7422 39.8735C51.1556 39.8735 50.7478 39.4155 50.7478 38.8448V34.8652ZM60.9011 37.3541C60.9011 39.187 59.4744 39.998 57.8177 39.998C56.161 39.998 54.7362 39.187 54.7362 37.3541V33.9865C54.7362 33.4128 55.143 32.9558 55.7296 32.9558C56.3143 32.9558 56.7231 33.4128 56.7231 33.9865V37.0756C56.7231 37.8239 57.2959 38.1691 57.8177 38.1691C58.3404 38.1691 58.9133 37.8229 58.9133 37.0756V33.9865C58.9133 33.4128 59.3221 32.9558 59.9067 32.9558C60.4914 32.9558 60.9011 33.4128 60.9011 33.9865V37.3541V37.3541ZM61.5634 33.9865C61.5634 33.4128 61.9721 32.9558 62.5578 32.9558C63.0933 32.9558 63.4235 33.299 63.5512 33.5913C63.8814 33.196 64.3638 32.8293 64.9249 32.8293C65.4358 32.8293 65.9458 33.2362 65.9458 33.857C65.9458 34.5455 65.4231 34.7092 64.6959 34.926C63.8303 35.18 63.5512 35.4104 63.5512 36.4274V38.8438C63.5512 39.4145 63.1424 39.8725 62.5578 39.8725C61.9721 39.8725 61.5634 39.4145 61.5634 38.8438V33.9865V33.9865ZM67.9179 37.0638C67.9179 37.4806 68.2353 38.1701 69.5117 38.1701C70.4923 38.1701 71.0898 37.5463 71.5477 37.5463C71.9928 37.5463 72.379 37.8886 72.379 38.3985C72.379 39.3616 70.7596 39.998 69.2572 39.998C67.1161 39.998 65.7788 38.4113 65.7788 36.4146C65.7788 34.5062 67.2173 32.8302 69.2572 32.8302C71.2165 32.8302 72.4782 34.4699 72.4782 36.1999C72.4782 36.8971 72.148 37.0648 71.5113 37.0648H67.9179V37.0638ZM70.4923 35.7017C70.4923 35.2564 69.9814 34.5052 69.2051 34.5052C68.4279 34.5052 67.9169 35.2564 67.9169 35.7017H70.4923V35.7017ZM81.1035 30.5413C82.3515 30.5413 83.8421 30.8983 83.8421 31.9771C83.8421 32.4743 83.4864 32.9568 82.9508 32.9568C82.4654 32.9568 81.9574 32.5243 81.1536 32.5243C79.4852 32.5243 78.8229 33.8737 78.8229 35.2702C78.8229 36.7079 79.5628 37.9406 80.9768 37.9406C82.2611 37.9406 82.4654 37.5228 83 37.5228C83.8175 37.5228 83.9167 38.2073 83.9167 38.475C83.9167 39.6068 82.1991 40 81.0672 40C78.2137 40 76.6081 37.866 76.6081 35.2712C76.6071 32.5233 78.3788 30.5413 81.1035 30.5413V30.5413ZM85.4339 30.0069C86.0844 30.0069 86.6179 30.5276 86.6179 31.1896C86.6179 31.8505 86.0844 32.3723 85.4339 32.3723C84.7834 32.3723 84.2479 31.8505 84.2479 31.1896C84.2479 30.5276 84.7834 30.0069 85.4339 30.0069ZM84.4395 33.9865C84.4395 33.4128 84.8492 32.9558 85.4349 32.9558C86.0215 32.9558 86.4283 33.4128 86.4283 33.9865V38.8438C86.4283 39.4145 86.0215 39.8725 85.4349 39.8725C84.8492 39.8725 84.4395 39.4145 84.4395 38.8438V33.9865ZM88.0702 34.8652H87.8413C87.2046 34.8652 86.7997 34.5837 86.7997 33.9472C86.7997 33.3108 87.2036 33.0332 87.8413 33.0332H88.0702V31.7348C88.0702 31.1641 88.479 30.7061 89.0646 30.7061C89.6493 30.7061 90.0571 31.1641 90.0571 31.7348V33.0332H90.6063C91.2441 33.0332 91.6518 33.3098 91.6518 33.9472C91.6518 34.5827 91.2441 34.8652 90.6063 34.8652H90.0561V38.8448C90.0561 39.4155 89.6483 39.8735 89.0636 39.8735C88.478 39.8735 88.0692 39.4155 88.0692 38.8448V34.8652H88.0702ZM93.0137 30.0069C93.328 30.0069 93.6294 30.1315 93.8517 30.3533C94.0739 30.5751 94.1988 30.8759 94.1988 31.1896C94.1988 31.5032 94.0739 31.8041 93.8517 32.0259C93.6294 32.2477 93.328 32.3723 93.0137 32.3723C92.858 32.3727 92.7036 32.3423 92.5596 32.283C92.4156 32.2238 92.2848 32.1367 92.1746 32.0268C92.0644 31.9169 91.977 31.7864 91.9175 31.6427C91.858 31.499 91.8275 31.345 91.8277 31.1896C91.8277 30.5276 92.3633 30.0069 93.0137 30.0069ZM92.0184 33.9865C92.0184 33.4128 92.4281 32.9558 93.0137 32.9558C93.5994 32.9558 94.0072 33.4128 94.0072 33.9865V38.8438C94.0072 39.4145 93.5994 39.8725 93.0137 39.8725C92.4281 39.8725 92.0184 39.4145 92.0184 38.8438V33.9865ZM96.8204 37.0638C96.8204 37.4806 97.1397 38.1701 98.4151 38.1701C99.3958 38.1701 99.9922 37.5463 100.451 37.5463C100.896 37.5463 101.279 37.8886 101.279 38.3985C101.279 39.3616 99.6621 39.998 98.1606 39.998C96.0186 39.998 94.6822 38.4113 94.6822 36.4156C94.6822 34.5062 96.1198 32.8302 98.1606 32.8302C100.119 32.8302 101.382 34.4699 101.382 36.1999C101.382 36.8971 101.05 37.0648 100.413 37.0648H96.8204V37.0638ZM99.3958 35.7017C99.3958 35.2564 98.8848 34.5052 98.1076 34.5052C97.3303 34.5052 96.8194 35.2564 96.8194 35.7017H99.3958V35.7017ZM102.566 37.6719C103.191 37.6719 103.623 38.2436 104.477 38.2436C104.884 38.2436 105.038 38.0553 105.038 37.8513C105.038 37.4443 104.605 37.4071 103.497 36.9471C102.478 36.5294 101.93 36.1469 101.93 35.0809C101.93 33.9482 102.896 32.8302 104.489 32.8302C105.292 32.8302 106.783 33.2137 106.783 34.2405C106.783 34.7347 106.424 35.0799 105.955 35.0799C105.562 35.0799 104.972 34.5827 104.363 34.5827C104.094 34.5827 103.84 34.7092 103.84 35.0025C103.84 35.7782 106.947 35.5997 106.947 37.7739C106.947 39.1733 105.763 39.998 104.399 39.998C103.152 39.998 101.751 39.5038 101.751 38.628C101.752 38.0671 102.121 37.6719 102.566 37.6719V37.6719Z" fill="#2017CC"/>
</svg>
