<svg width="25" height="25" viewBox="0 0 25 25" fill="none" xmlns="http://www.w3.org/2000/svg">
<path d="M14.631 2.71313H6.63098C6.10055 2.71313 5.59184 2.92385 5.21677 3.29892C4.8417 3.67399 4.63098 4.1827 4.63098 4.71313V20.7131C4.63098 21.2436 4.8417 21.7523 5.21677 22.1273C5.59184 22.5024 6.10055 22.7131 6.63098 22.7131H18.631C19.1614 22.7131 19.6701 22.5024 20.0452 22.1273C20.4203 21.7523 20.631 21.2436 20.631 20.7131V8.71313L14.631 2.71313Z" stroke="#2017CC" stroke-width="2" stroke-linecap="round" stroke-linejoin="round"/>
<path d="M14.631 2.71313V8.71313H20.631" stroke="#2017CC" stroke-width="2" stroke-linecap="round" stroke-linejoin="round"/>
<path d="M16.631 13.7131H8.63098" stroke="#2017CC" stroke-width="2" stroke-linecap="round" stroke-linejoin="round"/>
<path d="M16.631 17.7131H8.63098" stroke="#2017CC" stroke-width="2" stroke-linecap="round" stroke-linejoin="round"/>
<path d="M10.631 9.71313H9.63098H8.63098" stroke="#2017CC" stroke-width="2" stroke-linecap="round" stroke-linejoin="round"/>
</svg>
