<svg width="25" height="25" viewBox="0 0 25 25" fill="none" xmlns="http://www.w3.org/2000/svg">
<title>Copy</title>
<path d="M20.0159 9.12524H11.0159C9.91133 9.12524 9.0159 10.0207 9.0159 11.1252V20.1252C9.0159 21.2298 9.91133 22.1252 11.0159 22.1252H20.0159C21.1205 22.1252 22.0159 21.2298 22.0159 20.1252V11.1252C22.0159 10.0207 21.1205 9.12524 20.0159 9.12524Z" stroke="#2017CC" stroke-width="2" stroke-linecap="round" stroke-linejoin="round"/>
<path d="M5.0159 15.1252H4.0159C3.48547 15.1252 2.97676 14.9145 2.60169 14.5395C2.22661 14.1644 2.0159 13.6557 2.0159 13.1252V4.12524C2.0159 3.59481 2.22661 3.0861 2.60169 2.71103C2.97676 2.33596 3.48547 2.12524 4.0159 2.12524H13.0159C13.5463 2.12524 14.055 2.33596 14.4301 2.71103C14.8052 3.0861 15.0159 3.59481 15.0159 4.12524V5.12524" stroke="#2017CC" stroke-width="2" stroke-linecap="round" stroke-linejoin="round"/>
</svg>
