<svg width="189" height="40" viewBox="0 0 189 40" fill="none" xmlns="http://www.w3.org/2000/svg">
<g clip-path="url(#clip0)">
<path d="M13.311 11.0192H19.3039V23.7476H27.7297V28.8389H13.311V11.0192ZM29.0888 11.0192H35.0793V28.8389H29.0888V11.0192ZM35.8749 11.0192H42.5837L46.0662 21.024L49.5487 11.0192H56.1583L48.8837 28.9663H43.1472L35.8749 11.0192ZM56.388 11.0192H71.6676V15.9062H62.2793V17.7139H71.0364V22.0168H62.2793V23.9519H71.8055V28.8389H56.388V11.0192Z" fill="#2017CC"/>
<path d="M78.8987 11.0192H84.507L90.8844 18.8846V11.0192H96.8192V28.8389H91.4987L84.8408 20.6154V28.8389H78.8987V11.0192Z" fill="#2017CC"/>
<path d="M104.099 10.8918H110.041L117.596 28.839H111.088L110.142 26.4519H103.869L102.948 28.8438H96.5436L104.099 10.8918ZM108.67 22.2212L107.032 17.8942L105.393 22.2212H108.67ZM118.568 16.0601H113.294V11.012H129.838V16.0601H124.561V28.839H118.568V16.0601ZM130.733 11.0192H136.723V28.839H130.733V11.0192ZM137.903 19.9808V19.9303C137.903 14.762 142.182 10.637 147.713 10.637C153.244 10.637 157.471 14.7236 157.471 19.8774V19.9303C157.471 25.0962 153.193 29.2212 147.662 29.2212C142.131 29.2212 137.903 25.1466 137.903 19.9808ZM151.427 19.9808V19.9303C151.427 17.8173 149.976 15.9063 147.662 15.9063C145.347 15.9063 143.95 17.7909 143.95 19.8774V19.9303C143.95 22.0433 145.401 23.9519 147.713 23.9519C150.025 23.9519 151.427 22.0673 151.427 19.9808ZM158.085 11.0192H163.694L170.071 18.8846V11.0192H176.013V28.839H170.693L164.027 20.6154V28.839H158.085V11.0192Z" fill="#2017CC"/>
<path d="M189 40.0026H0V0.00985718H189V40.0026ZM3.97347 36.0531H185.024V3.95216H3.97347V36.0531Z" fill="#2017CC"/>
<path d="M178.944 12.4014C178.944 12.0291 179.093 11.672 179.358 11.4088C179.623 11.1455 179.982 10.9976 180.357 10.9976C180.731 10.9976 181.09 11.1455 181.355 11.4088C181.62 11.672 181.769 12.0291 181.769 12.4014V12.4014C181.769 12.7738 181.62 13.1308 181.355 13.3941C181.09 13.6574 180.731 13.8053 180.357 13.8053C179.982 13.8053 179.623 13.6574 179.358 13.3941C179.093 13.1308 178.944 12.7738 178.944 12.4014V12.4014ZM181.604 12.4014C181.604 12.0725 181.473 11.757 181.239 11.5244C181.005 11.2917 180.688 11.1611 180.357 11.1611C180.026 11.1611 179.708 11.2917 179.474 11.5244C179.24 11.757 179.109 12.0725 179.109 12.4014V12.4014C179.109 12.7304 179.24 13.0459 179.474 13.2785C179.708 13.5111 180.026 13.6418 180.357 13.6418C180.688 13.6418 181.005 13.5111 181.239 13.2785C181.473 13.0459 181.604 12.7304 181.604 12.4014ZM179.771 11.6058H180.436C180.521 11.6004 180.606 11.6121 180.685 11.6402C180.765 11.6683 180.838 11.7122 180.901 11.7692C180.942 11.8122 180.975 11.8631 180.997 11.9188C181.018 11.9746 181.028 12.034 181.026 12.0937V12.0937C181.03 12.1953 181.001 12.2953 180.942 12.3786C180.884 12.4619 180.8 12.5239 180.702 12.5553L181.07 13.0889H180.683L180.364 12.6082H180.103V13.0889H179.771V11.6058ZM180.434 12.3269C180.601 12.3269 180.69 12.238 180.69 12.1154C180.69 11.9735 180.589 11.899 180.427 11.899H180.103V12.3365L180.434 12.3269Z" fill="#2017CC"/>
</g>
<defs>
<clipPath id="clip0">
<rect width="189" height="40" fill="white"/>
</clipPath>
</defs>
</svg>
