<svg width="215" height="40" viewBox="0 0 215 40" fill="none" xmlns="http://www.w3.org/2000/svg">
<title>M&amp;C Saatchi</title>
<path d="M17.917 0.477783L14.9107 24.8658H14.8271L12.143 0.477783H0V39.5768H8.09917L8.1115 13.3595L11.1294 39.6247L18.5944 39.6393L21.6198 13.466L21.6379 39.6253H29.4938L29.4628 0.478004L17.917 0.477783Z" fill="#2017CC"/>
<path d="M46.0487 37.1164C43.9948 39.0634 40.852 40 38.5106 40C31.3217 40 29.8221 33.4402 29.8221 29.2238C29.8221 24.0872 32.1227 20.41 35.4097 18.031C33.807 15.5985 32.4512 12.7328 32.4512 9.48855C32.4512 3.70356 36.0574 0 40.7408 0C45.9167 0 49.8282 2.56843 49.8282 9.11047C49.8282 14.0302 47.4454 16.5169 44.7757 19.3291L47.651 24.5728C48.1434 23.2217 48.637 21.8698 48.637 20.3555H55.6205C55.4151 24.7893 53.9362 29.4385 51.7585 31.9255L56.0603 39.6392L47.4227 39.6239L46.0487 37.1164ZM41.1191 6.4369C39.8045 6.4369 39.1067 7.11049 39.1067 8.4081C39.1067 9.32674 39.3529 10.1918 39.8045 11.0569L40.9549 13.2202C41.4889 12.7335 43.173 10.6786 43.173 8.62392C43.173 6.894 42.2695 6.4369 41.1191 6.4369ZM39.3121 24.5733C38.6956 24.9522 37.1853 26.5086 37.1853 28.6706C37.1853 30.5635 38.2956 32.0286 39.7328 32.0286C40.9659 32.0286 42.1872 31.3856 42.803 30.845L39.3121 24.5733ZM91.8299 11.701L99.3563 11.7048C99.3563 5.33564 98.0528 0.278249 89.8383 0.278249C86.6666 0.278249 84.5804 1.34874 83.2495 2.68464C81.3573 4.58434 80.0699 5.76729 80.095 11.299C80.1221 17.2042 84.0238 21.4039 88.3177 24.4338C89.4733 25.2491 91.5256 26.4801 92.0091 29.296C92.2909 30.9316 91.3011 32.6268 89.7962 32.6268C88.3731 32.6268 87.7631 31.1286 87.7631 29.2561V27.4897L80.1138 27.456V28.473C80.1138 36.8753 83.0918 39.8869 89.314 39.8869C96.8373 39.8869 100.271 37.3014 100.425 28.4194C100.617 17.3966 88.62 17.9356 88.0477 9.93437C87.9372 8.38574 88.6983 7.39472 89.9182 7.39472C91.3013 7.39472 91.8299 8.54291 91.8299 10.1482V11.701ZM68.6366 14.7288H76.5911V11.922C76.5911 5.93176 75.4376 0.292859 66.704 0.292859C56.1664 0.292859 56.2942 7.82061 56.2942 19.747C56.2942 32.0519 56.0964 39.9637 66.6345 39.9637C73.8102 39.9637 76.755 34.5878 76.755 25.5758V23.1479H68.8003V26.1159C68.8003 30.9185 68.2675 32.6447 66.9554 32.6447C64.9461 32.6447 64.7414 31.0263 64.7414 19.7472C64.7414 8.7926 64.8228 7.20302 66.9554 7.20302C68.6368 7.20302 68.6368 9.92551 68.6368 11.5985L68.6366 14.7288ZM141.666 9.54765H147.243V39.5774H155.444V9.54788H161.02V0.54875H141.666V9.54765ZM173.573 14.7288H181.527V11.922C181.527 5.93176 180.572 0.108023 171.837 0.108023C161.3 0.108023 161.231 7.82061 161.231 19.7474C161.231 32.0517 160.869 39.8991 171.407 39.8991C178.583 39.8991 181.691 34.5876 181.691 25.5763V23.1477H173.737V26.1157C173.737 30.9183 173.204 32.6445 171.891 32.6445C169.882 32.6445 169.677 31.0261 169.677 19.747C169.677 8.79238 169.759 7.2028 171.891 7.2028C173.573 7.2028 173.573 9.92529 173.573 11.5983V14.7288ZM195.051 14.4049H191.115V0.548971H182.914V39.5779H191.115V23.4709H195.051V39.5774H203.252V0.549635H195.051V14.4049ZM205.855 0.549413H215V39.5777H205.855V0.549413ZM135.865 33.1306H130.37L129.495 39.6184H120.951L128.411 0.549635H138.033L145.32 39.6193H136.82L135.865 33.1306ZM133.234 8.9004H133.152L131.265 24.7123H134.997L133.234 8.9004ZM113.177 33.1306H107.683L106.807 39.6184H98.2636L105.723 0.549635H115.345L122.633 39.6193H114.133L113.177 33.1306ZM110.547 8.9004H110.464L108.578 24.7123H112.309L110.547 8.9004Z" fill="#2017CC"/>
<path d="M100.427 28.2824H99.0366V35.5629H100.427V28.2824Z" fill="#2017CC"/>
</svg>
