<svg width="489" height="348" viewBox="0 0 489 348" fill="none" xmlns="http://www.w3.org/2000/svg">
<path d="M86.8782 171.514L132.799 164.057C154.312 164.057 173.343 171.514 189.891 186.429C207.266 200.514 215.954 221.643 215.954 249.814C215.954 277.157 206.853 300.357 188.65 319.414C170.447 338.471 144.797 348 111.701 348C79.4315 348 52.5406 335.571 31.0279 310.714C10.3426 285.857 0 253.957 0 215.014C0 175.243 14.8934 135.886 44.6802 96.9428C75.2944 57.9999 118.734 25.6857 174.997 0L183.685 21.1285C105.909 64.2142 67.0203 107.714 67.0203 151.629C67.0203 164.886 73.6396 171.514 86.8782 171.514ZM359.924 171.514L405.845 164.057C427.358 164.057 446.388 171.514 462.937 186.429C480.312 200.514 489 221.643 489 249.814C489 277.157 479.898 300.357 461.695 319.414C443.492 338.471 417.843 348 384.746 348C352.477 348 325.586 335.571 304.074 310.714C283.388 285.857 273.046 253.957 273.046 215.014C273.046 175.243 287.939 135.886 317.726 96.9428C348.34 57.9999 391.779 25.6857 448.043 0L456.731 21.1285C378.954 64.2142 340.066 107.714 340.066 151.629C340.066 164.886 346.685 171.514 359.924 171.514Z" fill="#2017CC"/>
</svg>
