<svg width="215" height="30" viewBox="0 0 215 30" fill="none" xmlns="http://www.w3.org/2000/svg">
<title>Ticketmaster</title>
<g clip-path="url(#clip0)">
<path d="M2.44636 9.21611H6.26881L7.16071 5.0212L12.8307 3.17798L11.5565 9.21611H16.2709L15.4427 13.0932H10.7283L8.81711 21.928C8.68969 22.3729 8.56228 23.1356 8.56228 23.8983C8.56228 25.1059 9.39048 25.8687 10.6009 25.8687C11.5565 25.8687 12.5121 25.678 13.1492 25.4237L12.2573 29.4915C11.3654 29.6822 10.3461 29.9365 9.39048 29.9365C5.82286 29.9365 3.27456 28.5381 3.27456 24.661C3.27456 23.072 3.5931 21.5466 3.97534 19.9576L5.44061 13.0932H1.61816L2.44636 9.21611Z" fill="#2017CC"/>
<path d="M139.29 26.3771H139.226C137.443 28.6652 135.595 29.9364 132.664 29.9364C129.033 29.9364 126.421 27.9025 126.421 24.1525C126.421 17.4788 133.875 16.9703 138.844 16.9703H140.692C140.819 16.3983 140.819 15.8262 140.819 15.2542C140.819 13.2203 138.589 12.6483 136.742 12.6483C134.448 12.6483 132.155 13.2203 130.052 14.2373L130.817 10.0423C133.047 9.27963 135.34 8.83472 137.697 8.83472C141.775 8.83472 145.597 10.2966 145.597 15.0635C145.597 17.7966 143.558 25.7415 143.113 29.5551H138.653L139.29 26.3771ZM134.13 26.1229C138.08 26.1229 139.29 23.3898 140.118 20.1483H138.271C135.722 20.1483 131.454 20.5932 131.454 24.0254C131.454 25.3601 132.792 26.1229 134.13 26.1229Z" fill="#2017CC"/>
<path d="M18.437 9.21611H23.7247L19.3926 29.428H14.1049L18.437 9.21611ZM20.3482 0.508484H25.6359L24.5529 5.52967H19.2652L20.3482 0.508484Z" fill="#2017CC"/>
<path d="M39.6516 13.8559C38.6323 13.1568 37.2307 12.839 35.7654 12.839C31.5607 12.839 29.2036 16.7796 29.2036 20.5932C29.2036 23.1991 30.0955 25.8686 33.6631 25.8686C34.9372 25.8686 36.5936 25.4873 37.9315 24.8517L37.3581 29.0466C35.7654 29.8093 33.9816 30 32.2615 30C27.0375 30 23.661 26.5042 23.661 21.2923C23.661 14.2373 28.3754 8.83472 35.638 8.83472C37.6129 8.83472 39.5242 9.21607 40.9257 9.59743L39.6516 13.8559Z" fill="#2017CC"/>
<path d="M45.4489 0H50.7366L47.2327 16.589H47.2964L54.6865 9.2161H61.5032L51.8197 18.4322L57.8719 29.4915H51.9471L46.7231 18.75H46.6593L44.3659 29.4915H39.2056L45.4489 0Z" fill="#2017CC"/>
<path d="M80.5517 9.21611H84.3742L85.2661 5.0212L90.936 3.17798L89.6619 9.21611H94.3762L93.548 13.0932H88.8337L86.9225 21.928C86.795 22.3729 86.6676 23.1356 86.6676 23.8983C86.6676 25.1059 87.4958 25.8687 88.7063 25.8687C89.6619 25.8687 90.6175 25.678 91.2546 25.4237L90.3627 29.4915C89.4708 29.6822 88.4514 29.9365 87.4958 29.9365C83.9282 29.9365 81.3799 28.5381 81.3799 24.661C81.3799 23.072 81.6984 21.5466 82.0807 19.9576L83.546 13.0932H79.7235L80.5517 9.21611Z" fill="#2017CC"/>
<path d="M78.768 16.4619C78.768 11.3136 75.4552 8.77118 70.486 8.77118C63.7967 8.77118 58.955 14.8093 58.955 21.1017C58.955 27.1398 62.9048 29.9364 68.7022 29.9364C70.8683 29.9364 73.098 29.428 75.1367 28.7924L75.8374 24.5975C73.8625 25.4873 71.7602 26.0593 69.5941 26.0593C66.2176 26.0593 64.2427 24.8517 63.9878 21.6737C63.9878 21.483 63.9878 21.2924 63.9878 21.1017C63.9878 21.0381 63.9878 21.0381 63.9878 20.9746V20.911C63.9878 19.5127 64.3064 18.178 64.816 16.9068C65.8354 14.3008 67.2369 12.5212 70.3586 12.5212C72.5884 12.5212 73.7351 13.7288 73.7351 15.8898C73.7351 16.3347 73.6714 16.7797 73.6077 17.2881H66.4087C65.9628 18.8771 65.8354 19.9576 65.8354 20.911H78.2583C78.5769 19.4491 78.768 17.9873 78.768 16.4619Z" fill="#2017CC"/>
<path d="M96.6696 11.4407C96.7971 10.678 96.9882 9.85169 97.1156 9.21609H102.021L101.575 11.9491H101.639C103.04 9.85169 105.398 8.77118 107.882 8.77118C110.303 8.77118 112.788 10.1695 113.042 12.6483H113.106C114.444 10.0424 117.375 8.77118 120.241 8.77118C123.299 8.77118 125.848 11.25 125.848 14.3008C125.848 16.0805 125.402 18.178 124.956 19.8305L122.853 29.4915H117.566L119.668 19.6398C119.923 18.4322 120.369 16.5254 120.369 15.3178C120.369 13.8559 119.222 12.9025 117.884 12.9025C114.189 12.9025 113.297 17.161 112.66 19.8941L110.558 29.4915H105.27L107.373 19.6398C107.627 18.4322 108.073 16.5254 108.073 15.3178C108.073 13.8559 106.927 12.9025 105.589 12.9025C102.021 12.9025 101.002 17.161 100.365 19.8941L98.2623 29.4915H92.9746L96.6696 11.4407Z" fill="#2017CC"/>
<path d="M161.333 13.3474C160.76 13.0296 159.294 12.5847 157.829 12.5847C156.236 12.5847 154.261 13.0296 154.261 14.6186C154.261 17.161 161.142 18.1144 161.142 23.072C161.142 28.3474 156.555 29.9364 152.032 29.9364C149.929 29.9364 147.763 29.6186 145.852 28.7288L146.999 24.5339C148.464 25.3601 149.993 26.1229 152.032 26.1229C153.815 26.1229 155.663 25.5508 155.663 23.8983C155.663 20.6568 148.782 20.339 148.782 15.2542C148.782 10.4873 153.369 8.83472 157.574 8.83472C159.485 8.83472 161.46 9.21607 162.543 9.47031L161.333 13.3474Z" fill="#2017CC"/>
<path d="M164.709 9.21611H168.532L169.424 5.0212L175.094 3.17798L173.82 9.21611H178.534L177.706 13.0932H172.991L171.08 21.928C170.953 22.3729 170.825 23.1356 170.825 23.8983C170.825 25.1059 171.653 25.8687 172.864 25.8687C173.82 25.8687 174.775 25.678 175.412 25.4237L174.52 29.4915C173.628 29.6822 172.609 29.9365 171.653 29.9365C168.086 29.9365 165.538 28.5381 165.538 24.661C165.538 23.072 165.856 21.5466 166.175 19.9576L167.704 13.0932H163.881L164.709 9.21611Z" fill="#2017CC"/>
<path d="M200.513 11.9491C200.64 11.0593 200.831 10.1695 200.959 9.21609H205.992L205.291 13.0297H205.355C206.31 10.8051 208.922 8.77118 211.343 8.77118C212.044 8.77118 212.745 8.83474 213.382 8.96186L212.299 14.1102C211.725 13.9195 210.961 13.7924 210.26 13.7924C206.501 13.7924 204.718 17.161 204.017 20.4025L202.106 29.4915H196.818L200.513 11.9491Z" fill="#2017CC"/>
<path d="M196.882 16.4619C196.882 11.3136 193.569 8.77118 188.6 8.77118C181.974 8.77118 177.069 14.8093 177.069 21.1017C177.069 27.1398 181.018 29.9364 186.816 29.9364C188.982 29.9364 191.212 29.428 193.25 28.7924L193.951 24.5975C191.976 25.4873 189.874 26.0593 187.708 26.0593C184.331 26.0593 182.356 24.8517 182.101 21.6737C182.101 21.483 182.101 21.2924 182.101 21.1017C182.101 21.0381 182.101 21.0381 182.101 20.9746V20.911C182.101 19.5127 182.42 18.178 182.93 16.9068C183.949 14.3008 185.351 12.5212 188.472 12.5212C190.702 12.5212 191.849 13.7288 191.849 15.8898C191.849 16.3347 191.785 16.7797 191.721 17.2881H184.522C184.076 18.8771 183.949 19.9576 183.949 20.911H196.372C196.691 19.4491 196.882 17.9873 196.882 16.4619Z" fill="#2017CC"/>
</g>
<defs>
<clipPath id="clip0">
<rect width="215" height="30" fill="white"/>
</clipPath>
</defs>
</svg>
