<svg width="121" height="40" viewBox="0 0 121 40" fill="none" xmlns="http://www.w3.org/2000/svg">
<title>Vibe Pay</title>
<path fill-rule="evenodd" clip-rule="evenodd" d="M16.4838 24.0471C16.6146 23.7942 17.1174 22.7975 17.269 22.4122C18.0878 20.3298 19.3042 18.4656 19.4189 16.218C19.4703 15.2106 19.4502 14.5287 19.1389 13.7722C18.5803 12.4163 17.2143 11.7946 15.8158 11.5358C15.7912 11.5314 15.713 11.5178 15.6379 11.5083C15.2674 11.4616 15.3144 11.0458 15.4226 10.9047C15.7296 10.5011 15.9466 10.2145 16.3076 9.86106C17.6172 8.58049 19.1707 7.76992 21.0017 7.54335C21.7441 7.45163 22.482 7.50106 23.199 7.73385C24.4928 8.15342 25.323 9.24499 25.4518 10.6763C25.5942 12.2562 25.2917 13.7793 24.8468 15.2783C23.9042 18.4528 22.3791 21.3502 20.5704 24.1038C18.5905 27.1183 16.3248 29.8928 13.6029 32.2753C13.2185 32.6122 13.1066 32.5814 12.8965 32.1071C11.2827 28.4599 9.6907 24.8026 8.04234 21.1715C7.28522 19.5042 6.41638 17.8853 5.26904 16.4428C4.94142 16.0313 4.57157 15.6398 4.16594 15.3068C3.15713 14.4804 2.19171 14.2329 1.05263 14.5098C0.922039 14.5413 0.877452 14.5417 0.772579 14.5881C0.420138 14.7721 -0.340851 14.5296 0.172892 13.6527C0.532108 13.04 0.997343 12.4991 1.49664 11.9856C2.95947 10.4813 5.1603 8.79635 7.16908 8.32977C8.49466 8.13242 9.6821 8.73427 10.3728 9.6547C11.1571 10.7007 11.1843 11.4991 11.5926 12.7233C12.6194 15.8036 13.5982 18.9006 14.5851 21.9941C14.8676 22.8682 15.0223 23.5303 15.2832 24.2386C15.8722 25.8366 17.6443 26.3129 18.8121 25.7751C18.9058 25.7318 18.8597 25.5889 18.7596 25.6136C17.8884 25.827 17.1876 25.2991 16.9003 25.1283C16.6063 24.9532 16.2645 24.4793 16.3328 24.3439C16.416 24.1796 16.4838 24.0471 16.4838 24.0471ZM46.0844 18.2554C47.1583 19.4399 47.4998 21.0141 47.4555 22.6542C47.4212 23.9741 47.1662 25.2926 46.676 26.5536C46.0175 28.2502 44.9106 29.8636 42.9875 31.1021C41.7064 31.9283 39.7892 32.5682 37.6952 32.4942C36.5445 32.4535 35.3887 32.2373 34.3888 31.6688C33.963 31.4256 33.5483 31.1283 33.1933 30.7466C32.2566 29.8152 31.75 28.3666 31.75 28.3666C31.75 28.3666 31.91 29.6088 32.5135 30.6426C31.8585 31.2601 30.8032 31.9519 30.1839 32.1616C29.17 32.5046 28.159 32.4909 27.233 32.4351L27.2197 32.4343C23.6423 31.9866 23.4775 29.9176 23.8859 27.3924C24.0806 26.1903 24.2871 25.1571 24.2871 25.1571L25.9159 17.2904C26.0064 16.8696 25.9778 17.0026 26.0728 16.5346C26.0901 16.4508 26.1645 16.3913 26.2495 16.3956C26.8824 16.4247 28.3215 16.4653 29.0098 16.6331C29.5325 16.7606 29.9929 16.9528 30.252 17.4458C30.6275 17.9875 30.5924 19.194 30.2712 20.7417C29.8722 22.7193 29.3476 25.2953 29.2021 26.0422C28.9751 27.5175 29.9698 27.7996 30.1034 27.8186C31.1569 27.9708 31.4326 26.9175 31.6715 25.8465C32.1101 23.8488 34.2428 13.748 34.2428 13.748C34.2428 13.748 34.4977 12.5486 34.6579 11.7948C34.6731 11.7226 34.7325 11.668 34.8056 11.6593C35.831 11.5337 36.576 11.5513 37.0844 11.6439C37.6304 11.744 37.9049 11.9297 38.0099 12.0003C38.715 12.4833 38.7805 13.5973 38.5947 14.7246C38.4679 15.4929 38.1877 16.7926 37.9989 17.6433C37.9597 17.8201 38.1803 17.9299 38.2983 17.7936C39.558 16.3364 41.2941 16.3628 42.239 16.4413L42.2513 16.4424C43.992 16.6896 45.2587 17.3436 46.0844 18.2554ZM41.8123 26.843C42.4348 25.7551 42.7283 24.5768 42.7719 23.3288C42.7719 23.3219 42.7719 23.3154 42.7716 23.3088C42.74 22.9169 42.7482 22.5168 42.6681 22.1348C42.5262 21.4547 42.2222 20.84 41.5326 20.5483C40.4408 20.0876 39.3974 20.2663 38.4377 20.9131C37.6397 21.4506 37.1758 22.2346 36.861 23.1166C36.4631 24.2292 36.2033 25.3671 36.3868 26.5456C36.4608 27.0201 36.6089 27.5251 36.8728 27.9197C37.4013 28.7113 38.2717 28.7729 39.1402 28.6963C40.3866 28.5851 41.2232 27.8707 41.8123 26.843ZM31.3465 12.7325C31.3465 13.8566 30.4282 14.7674 29.2957 14.7674C28.1635 14.7674 27.2451 13.8566 27.2451 12.7325C27.2451 11.6086 28.1635 10.6977 29.2957 10.6977C30.4282 10.6977 31.3465 11.6086 31.3465 12.7325ZM54.3693 28.6296C56.4811 29.1191 58.5159 28.7598 60.4832 27.9028C60.7147 29.5927 59.8526 31.197 58.2858 31.7907C56.251 32.5623 54.1494 32.7496 52.028 32.1273C49.5791 31.4088 47.9698 29.3978 47.7819 26.8611C47.4174 21.9399 50.4448 17.5828 54.8787 16.6763C56.6708 16.3104 58.3871 16.5562 60.0209 17.3931C61.9838 18.3988 62.9081 20.0429 62.6508 22.1218C62.3952 24.1898 61.3303 25.3708 59.0315 25.7881C57.4804 26.0698 55.8821 26.108 54.3028 26.2253C53.8432 26.2593 53.3799 26.2459 52.8884 26.2374C52.7314 26.2348 52.5721 26.2323 52.409 26.2323C52.6034 27.7333 53.0751 28.3298 54.3693 28.6296ZM57.0545 22.8868C57.9013 22.8634 58.5647 22.5026 58.5909 21.5811C58.6163 20.6772 57.9675 20.2918 57.1625 20.1126C55.276 19.6908 53.8621 20.4603 53.155 22.3204C53.1399 22.3603 53.1252 22.4006 53.1108 22.4418C53.0966 22.4816 51.721 22.8681 51.2677 22.899C51.2677 22.899 55.7231 22.9234 57.0545 22.8868Z" fill="#2017CC"/>
<path fill-rule="evenodd" clip-rule="evenodd" d="M71.0418 8.59907C70.6901 9.66514 70.5133 10.9337 70.1591 13.4707L68.9372 22.2207C68.4827 25.4763 68.2551 27.1041 68.3566 28.4406C68.7742 33.9566 72.7783 38.543 78.2015 39.7158C79.5148 40 81.1634 40 84.4607 40H103.651C106.219 40 107.505 40 108.612 39.8001C113.14 38.9831 116.855 35.7592 118.291 31.4009C118.642 30.3349 118.819 29.0664 119.174 26.5294V26.5293L120.396 17.7793C120.85 14.5237 121.078 12.8959 120.976 11.5594C120.558 6.04343 116.555 1.457 111.132 0.284179C109.818 2.12874e-08 108.169 0 104.872 0H85.6823C83.113 0 81.8291 2.98023e-07 80.7206 0.199857C76.1924 1.01688 72.4774 4.24086 71.0418 8.59907ZM85.3628 13.355C86.0449 13.355 89.9369 13.775 89.9369 17.935C89.9168 19.835 88.7934 24.615 84.0588 24.615C82.6946 24.615 81.4708 23.755 81.1899 22.695L80.1267 27.755H79.244C78.4415 27.755 77.9399 27.435 77.9399 26.575C77.9399 26.355 78.0001 26.095 78.0603 25.835L79.5048 19.095C79.906 17.195 80.869 13.355 85.3628 13.355ZM84.1591 22.455C86.406 22.455 87.3289 20.055 87.3489 18.075C87.3489 16.515 86.4863 15.475 85.0819 15.475C82.6946 15.475 81.9122 18.215 81.9122 19.975C81.9122 21.855 83.0557 22.455 84.1591 22.455ZM96.76 13.335C98.787 13.335 100.592 14.375 100.633 16.595C100.633 17.055 100.592 17.535 100.471 18.115L100.011 20.335C99.3681 23.435 97.9243 24.635 94.794 24.635C93.8117 24.635 91.0625 24.215 91.0625 21.595C91.0625 19.455 92.7283 17.775 97.1613 17.775H98.1049L98.2052 17.335C98.2446 17.155 98.2654 16.975 98.2654 16.755C98.2654 15.695 97.3425 15.415 96.1983 15.415C94.6141 15.415 93.5107 15.895 92.6072 16.735H92.4876L92.6674 15.755C92.9082 14.435 94.6141 13.335 96.76 13.335ZM97.483 20.815L97.7438 19.555H96.4598C95.2554 19.555 93.591 19.815 93.591 21.415C93.591 22.275 94.3526 22.635 95.2361 22.635C96.5401 22.635 97.2215 22.055 97.483 20.815ZM111.334 13.595C111.916 13.595 112.257 13.795 112.257 14.295C112.257 14.54 112.149 14.785 112.042 15.03C112.026 15.065 112.011 15.1 111.996 15.135C111.194 17.195 109.569 19.955 107.884 22.395C105.296 26.135 103.731 27.915 101.624 27.915C100.401 27.915 100.16 27.195 100.16 26.755C100.16 26.635 100.16 26.575 100.2 26.395L100.34 25.795H101.464C102.718 25.795 103.499 24.6714 104.217 23.6375L104.232 23.615C103.249 21.315 102.467 17.395 102.467 14.375V13.595H103.751C104.493 13.595 104.955 14.075 104.975 14.835C104.975 15.055 104.995 15.355 105.015 15.575C105.135 17.535 105.396 19.455 105.958 21.315C107.522 19.215 109.308 15.955 110.11 13.595H111.334Z" fill="#2017CC"/>
</svg>
