<svg width="32" height="32" viewBox="0 0 32 32" fill="none" xmlns="http://www.w3.org/2000/svg">
<circle cx="16" cy="16" r="14" fill="#2017CC"/>
<path d="M12 23V9H17.3C18.02 9 18.6467 9.18 19.18 9.54C19.7267 9.9 20.1467 10.3733 20.44 10.96C20.7467 11.5467 20.9 12.1867 20.9 12.88C20.9 13.8533 20.5933 14.7467 19.98 15.56C20.4867 15.96 20.8733 16.44 21.14 17C21.42 17.56 21.56 18.16 21.56 18.8C21.56 19.32 21.46 19.8267 21.26 20.32C21.0733 20.8133 20.8133 21.2667 20.48 21.68C20.1467 22.08 19.7533 22.4 19.3 22.64C18.86 22.88 18.3933 23 17.9 23H12ZM14.18 14.94H17.24C17.5067 14.94 17.7533 14.84 17.98 14.64C18.2067 14.44 18.3867 14.18 18.52 13.86C18.6533 13.54 18.72 13.2133 18.72 12.88C18.72 12.44 18.5933 12.0533 18.34 11.72C18.0867 11.3733 17.74 11.2 17.3 11.2H14.18V14.94ZM14.18 20.8H17.9C18.1667 20.8 18.4067 20.7 18.62 20.5C18.8467 20.3 19.0267 20.0467 19.16 19.74C19.3067 19.4333 19.38 19.12 19.38 18.8C19.38 18.32 19.2467 17.9133 18.98 17.58C18.7133 17.2333 18.3733 17.06 17.96 17.06H14.18V20.8Z" fill="#FFCCD5"/>
</svg>
